<?xml version="1.0" encoding="UTF-8"?>
<svg id="Camada_1" data-name="Camada 1" xmlns="http://www.w3.org/2000/svg" xmlns:xlink="http://www.w3.org/1999/xlink" version="1.1" viewBox="0 0 300 300">
  <defs>
    <style>
      .cls-1 {
        fill: url(#Gradiente_sem_nome_2);
      }

      .cls-1, .cls-2 {
        stroke-width: 0px;
      }

      .cls-2 {
        fill: #fff;
      }
    </style>
    <linearGradient id="Gradiente_sem_nome_2" data-name="Gradiente sem nome 2" x1="103.8" y1="716.03" x2="388.33" y2="1000.56" gradientTransform="translate(-96 -708.23)" gradientUnits="userSpaceOnUse">
      <stop offset="0" stop-color="#e62339"/>
      <stop offset="1" stop-color="#f28d1d"/>
    </linearGradient>
  </defs>
  <g id="globoplay">
    <rect class="cls-1" y="0" width="300" height="300" rx="20.87" ry="20.87"/>
    <path class="cls-2" d="M225.87,229.15c-1.67-.88-1.14-2.67-.39-4.08.26-.53.61-1.1.92-1.62,2.19-4.3,2.19-4.34,6.75-3.24,1.27.44,2.63.39,3.86-.09,1.23-.48,2.24-1.4,2.85-2.59,1.45-2.28,2.72-4.73,3.77-7.23,0,0-12.36-28.15-17.97-41.08-1.58-3.64-1.45-3.86,2.5-3.86h7.5c.75-.09,1.49.09,2.1.53.61.44,1.05,1.05,1.23,1.8,3.33,8.46,10.52,26.96,10.52,26.96,1.36-4.03,2.94-8.07,4.25-11.75,1.75-5.04,3.64-10.04,5.39-15.12.13-.83.61-1.58,1.32-2.06s1.53-.66,2.37-.53c2.28.18,4.6,0,6.97,0,3.2,0,3.73.88,2.54,3.81-2.67,7.15-5.7,14.29-8.59,21.57-3.55,8.86-8.07,19.64-11.57,28.41-2.19,5.39-7.5,13.28-16.18,13.28-3.64.18-7.23-.88-10.13-3.07v-.04Z"/>
    <path class="cls-2" d="M113.63,207.76v18.85c0,3.01-1.55,4.52-4.65,4.52h-4.82c-2.1,0-2.67-.96-2.67-2.89v-60.15c0-1.97.75-2.98,2.85-2.67h5.09c3.68,0,3.46,1.1,3.46,4.6,12.93-12.28,31.96-3.02,35.38,12.67,1.4,5.39.92,11.09-1.32,16.18-2.28,5.09-6.18,9.25-11.14,11.79-3.02,1.62-6.4,2.37-9.82,2.19s-6.71-1.32-9.51-3.24c-.88-.48-1.58-1.01-2.85-1.84ZM113.42,188.34c-.09,1.58.13,3.2.66,4.69s1.36,2.89,2.46,4.03c1.1,1.18,2.37,2.1,3.86,2.76,1.45.66,3.02,1.01,4.6,1.01s3.2-.31,4.65-.92c1.49-.61,2.81-1.53,3.9-2.72,1.1-1.18,1.93-2.54,2.46-4.08.53-1.49.75-3.11.61-4.69,0-6.97-3.81-12.01-11.09-12.28-1.62-.09-3.24.18-4.73.75-1.53.57-2.89,1.49-4.03,2.63-1.14,1.14-2.02,2.54-2.59,4.03-.57,1.53-.83,3.16-.7,4.73l-.04.04Z"/>
    <path class="cls-2" d="M208.51,169.62c.61-4.34,0-4.38,4.78-4.34h4.3c2.41-.26,3.16,1.1,3.16,3.16v40.2c0,2.28-.96,3.51-3.42,3.29h-3.73c-4.3,0-5.13,0-5.13-4.73-1.58,1.75-3.46,3.16-5.61,4.12s-4.43,1.49-6.8,1.49c-2.59.18-5.13-.22-7.58-1.05-2.41-.88-4.65-2.19-6.58-3.95-2.98-2.5-5.35-5.66-6.93-9.21s-2.28-7.45-2.06-11.35c.22-3.9,1.32-7.67,3.2-11.09,1.93-3.38,4.6-6.31,7.8-8.46,3.33-2.32,7.28-3.55,11.35-3.46,4.03.09,7.98,1.49,11.18,3.99l2.1,1.36-.04.04ZM185.44,188.47c0,7.32,4.82,12.71,11.44,12.58,1.58,0,3.2-.35,4.65-.96,1.45-.66,2.76-1.58,3.86-2.76s1.93-2.54,2.46-4.08c.53-1.49.75-3.11.61-4.69.09-1.58-.18-3.16-.75-4.65s-1.4-2.85-2.5-3.99-2.41-2.06-3.86-2.72c-1.45-.66-3.02-.96-4.6-1.01-1.53,0-3.07.39-4.47,1.05s-2.67,1.53-3.73,2.67-1.89,2.46-2.41,3.95-.75,3.02-.7,4.56v.09-.04Z"/>
    <path class="cls-2" d="M167.16,178.91v29.81c0,2.32-.88,3.24-3.11,3.11-1.97-.09-3.95-.09-5.92,0-2.67.18-3.55-1.1-3.55-3.51v-58.53c0-3.38.44-3.86,3.81-3.9h5.61c2.28,0,3.11.92,3.11,3.16-.04,9.95,0,19.95,0,29.86h.04Z"/>
    <path class="cls-2" d="M50.85,158.57c-7.06.18-13.94-1.93-19.68-6.05-1.97-1.62-2.32-2.85-1.27-4.82.75-1.4,1.45-2.85,2.15-4.25,1.23-2.5,2.41-2.89,4.87-1.45,4.52,2.85,9.78,4.3,15.12,4.16,8.64-.26,11.92-5.66,11.75-13.02-1.58,1.62-3.51,2.89-5.61,3.68s-4.38,1.14-6.62.96c-4.82-.09-9.56-1.62-13.46-4.43-3.51-2.5-6.18-5.96-7.8-9.95-1.58-3.99-2.02-8.37-1.18-12.58.48-4.69,2.41-9.07,5.48-12.63s7.15-6.09,11.66-7.28c3.24-1.05,6.71-1.14,10-.31s6.27,2.59,8.59,5.09c0-2.15.18-3.46,1.05-4.16,1.36-.57,2.85-.79,4.3-.66,6.88,0,6.75-.26,6.66,4.52v34.06c0,12.93-4.08,29.15-26,29.15v-.04ZM64.31,114.42c.13-1.58-.09-3.11-.61-4.6s-1.32-2.85-2.41-3.99c-1.05-1.14-2.37-2.06-3.77-2.72-1.45-.61-2.98-.96-4.56-.96-1.62-.09-3.2.18-4.69.79-1.49.57-2.85,1.49-3.95,2.63s-1.97,2.54-2.5,4.03c-.53,1.49-.75,3.11-.66,4.69,0,7.89,5,12.36,11.75,12.41,1.58,0,3.11-.31,4.56-.96,1.45-.61,2.72-1.53,3.81-2.72,1.05-1.14,1.89-2.54,2.37-3.99.53-1.49.7-3.07.57-4.65h.04l.04.04Z"/>
    <path class="cls-2" d="M167.43,95.09c3.33-3.11,7.72-4.87,12.28-4.95,3.42,0,6.84.79,9.91,2.32,3.07,1.53,5.74,3.77,7.85,6.49,6.66,8.07,6.71,23.98-.66,31.96-1.8,2.24-3.99,4.03-6.53,5.39-2.5,1.32-5.3,2.15-8.11,2.37-2.85.22-5.7-.13-8.42-1.05-2.72-.92-5.17-2.37-7.32-4.3-.31-.26,0,2.67-.66,3.55-.79,1.49-9.86,1.4-10.78,0-.35-.7-.53-1.49-.48-2.28v-59.93c0-2.41,1.05-3.38,3.38-3.33,2.32.04,3.9.18,5.92,0,2.67,0,3.42,1.14,3.42,3.55.04,5.79.18,19.95.22,20.17v.04ZM178.47,102.24c-6.44,0-11.35,4.78-11.53,12.23-.13,1.58.09,3.16.61,4.65s1.36,2.85,2.41,4.03c1.05,1.18,2.37,2.1,3.81,2.72,1.45.66,3.02.96,4.6,1.01,1.58,0,3.16-.31,4.6-.92s2.76-1.53,3.86-2.67c1.1-1.14,1.93-2.5,2.46-3.99.53-1.49.79-3.07.66-4.65.13-1.58-.09-3.2-.61-4.69s-1.36-2.89-2.46-4.03c-1.1-1.18-2.41-2.1-3.86-2.72-1.45-.61-3.02-.96-4.65-.92l.09-.04Z"/>
    <path class="cls-2" d="M149.15,114.38c.09,3.24-.48,6.44-1.71,9.43-1.18,2.98-2.98,5.74-5.26,8.02s-4.95,4.12-7.98,5.35c-2.98,1.23-6.18,1.84-9.43,1.84s-6.4-.7-9.38-1.97-5.66-3.16-7.85-5.48c-2.24-2.32-3.95-5.09-5.09-8.11s-1.67-6.23-1.53-9.47c.09-6.36,2.67-12.45,7.23-16.88,4.56-4.47,10.65-6.93,17.01-6.88,3.16,0,6.31.61,9.25,1.8,2.94,1.23,5.57,2.98,7.8,5.26,2.24,2.24,3.99,4.91,5.17,7.85,1.18,2.94,1.75,6.09,1.71,9.25h.04ZM136.56,114.91c.09-1.58-.09-3.11-.61-4.6s-1.32-2.85-2.37-3.99-2.32-2.1-3.73-2.76-2.94-1.05-4.52-1.1-3.11.18-4.56.75c-1.45.53-2.81,1.36-3.95,2.46-1.14,1.05-2.06,2.37-2.67,3.77-.61,1.45-.96,2.98-1.01,4.52-.13,1.62.09,3.24.61,4.82.53,1.53,1.36,2.98,2.41,4.21,1.1,1.23,2.41,2.19,3.86,2.94s3.07,1.1,4.69,1.18c1.58,0,3.11-.35,4.56-.96s2.76-1.53,3.86-2.63c1.1-1.14,1.97-2.46,2.54-3.95.57-1.45.83-3.02.83-4.6l.04-.04Z"/>
    <path class="cls-2" d="M207.54,114.34c.09-6.36,2.72-12.41,7.28-16.88,4.56-4.43,10.7-6.88,17.05-6.8s12.41,2.72,16.88,7.28c4.43,4.56,6.88,10.7,6.8,17.05-.04,3.16-.7,6.27-1.97,9.16-1.23,2.89-3.07,5.52-5.3,7.72-2.28,2.19-4.91,3.95-7.85,5.09-2.94,1.18-6.05,1.75-9.21,1.71-6.36-.09-12.41-2.72-16.88-7.28-4.43-4.56-6.88-10.7-6.8-17.05ZM243.14,114.34c.09-1.62-.18-3.24-.75-4.73s-1.45-2.89-2.59-4.03c-1.14-1.14-2.5-2.06-3.99-2.63-1.49-.57-3.11-.88-4.73-.79s-3.24.48-4.69,1.18c-1.49.7-2.76,1.71-3.86,2.98-1.05,1.23-1.84,2.67-2.32,4.25s-.61,3.2-.44,4.82c.09,3.16,1.4,6.14,3.68,8.33s5.3,3.42,8.42,3.38c1.58-.04,3.16-.44,4.56-1.1s2.72-1.62,3.77-2.81,1.89-2.59,2.37-4.08c.53-1.49.7-3.07.61-4.69h0l-.04-.09Z"/>
    <path class="cls-2" d="M82.95,104.87v-30.6c0-3.64,1.45-4.87,5.96-2.89,5.22,2.28,6.53,2.67,6.53,7.01,0,16.57,0,35.03-.18,52.04,0,3.33.18,4.78-3.95,6.62-.83.39-2.5,1.23-3.73,1.71-2.46,1.01-4.73,0-4.65-3.59v-21.57c-.04-2.76-.04-5.79,0-8.72Z"/>
  </g>
</svg>