<svg width="398" height="121" viewBox="0 0 398 121" fill="none" xmlns="http://www.w3.org/2000/svg">
<path fill-rule="evenodd" clip-rule="evenodd" d="M286.46 30.5435C296.78 12.8801 315.928 1 337.863 1C370.727 1 397.368 27.647 397.368 60.5097C397.368 93.3724 370.727 120 337.863 120C316.245 120 297.323 108.472 286.898 91.2356C292.046 82.4234 295.005 72.199 295.005 61.2752C295.023 50.4411 292.068 39.8135 286.46 30.5435ZM305.586 46.183C305.586 46.1856 305.586 46.1882 305.586 46.1908H305.584V46.183H305.586ZM305.586 46.183H330.93C330.93 45.9556 330.9 45.7277 330.871 45.4993C330.842 45.2699 330.813 45.0401 330.813 44.8098C330.813 39.1044 333.546 36.0229 337.897 36.0229C340.626 36.1358 342.802 37.2734 343.828 39.1044C345.43 41.6074 345.43 43.3255 343.828 47.1024C342.8 49.4905 340.283 52.6928 333.894 58.9728C333.298 59.629 332.663 60.2118 332.039 60.7857C331.582 61.2049 331.131 61.6194 330.704 62.0543L305.683 83.2902V97.6714H371.126V77.9315H342.001L352.849 69.5907L359.585 64.4463C361.537 62.8608 363.465 60.8038 365.292 58.404C377.747 42.5268 370.896 21.067 351.706 15.3481C349.905 14.7881 347.993 14.4547 346.09 14.1229L346 14.1073C323.839 11.3588 309.458 21.9786 306.022 41.4984C305.816 43.1047 305.684 44.5868 305.586 46.183Z" fill="white"/>
<path fill-rule="evenodd" clip-rule="evenodd" d="M282.422 13.1801C281.555 14.0547 280.499 14.4755 279.276 14.4755C278.091 14.4988 276.95 14.0294 276.122 13.1801C275.269 12.3601 274.798 11.2186 274.819 10.0343C274.819 8.78375 275.251 7.73189 276.122 6.8495C276.997 5.99244 278.045 5.54442 279.276 5.54442C280.499 5.54442 281.555 5.99244 282.422 6.8495C283.306 7.73189 283.736 8.78375 283.736 10.0343C283.736 11.2692 283.306 12.323 282.422 13.1801ZM279.267 6.52691C278.328 6.52691 277.533 6.88532 276.867 7.57682C276.226 8.23326 275.867 9.11759 275.873 10.035C275.873 10.97 276.204 11.7979 276.867 12.4894C277.535 13.2023 278.328 13.5646 279.267 13.5646C280.205 13.5646 281.016 13.2042 281.68 12.4894C282.346 11.7979 282.683 10.97 282.683 10.035C282.683 9.10786 282.346 8.28001 281.68 7.57682C281.061 6.90091 280.184 6.52107 279.267 6.52691Z" fill="white"/>
<path fill-rule="evenodd" clip-rule="evenodd" d="M279.131 10.2822H278.811V12.3548H277.668V7.6H279.517C280.017 7.6 280.389 7.68766 280.639 7.88634C280.876 8.0597 281.011 8.33436 281.005 8.62654V9.03754C281.016 9.26544 280.942 9.48945 280.798 9.66476C280.668 9.83617 280.481 9.95499 280.272 10.0017C280.572 10.1478 280.81 10.3972 280.944 10.7049C281.063 11.0166 281.127 11.3088 281.127 11.5737V12.3548H279.838V11.5094C279.844 11.2075 279.78 10.9095 279.649 10.6368C279.519 10.403 279.347 10.2822 279.131 10.2822ZM279.494 8.3713H278.812V9.63158H279.494C279.657 9.63158 279.77 9.58872 279.854 9.49522C279.922 9.40952 279.957 9.27511 279.957 9.07448V8.90502C279.957 8.74919 279.92 8.62452 279.825 8.52713C279.745 8.42584 279.622 8.36935 279.494 8.3713Z" fill="white"/>
<path fill-rule="evenodd" clip-rule="evenodd" d="M234.914 1.89429C210.562 1.89429 189.38 16.0398 179.845 36.5763C180.009 32.2637 179.247 28.3894 178.036 24.5267C173.647 11.7194 159.88 3.82269 146.422 3.23443H94.088V120.255H139.618C146.418 120.255 153.224 120.255 159.126 117.863C171.382 113.257 179.397 101.488 180.153 86.7537C189.842 107.002 210.706 120.999 234.914 120.999C268.334 120.999 295.415 94.3407 295.415 61.4449C295.415 28.5355 268.334 1.89429 234.914 1.89429ZM234.915 90.7768C218.426 90.7768 205.12 77.6695 205.12 61.4417C205.12 45.2042 218.426 31.9625 234.915 31.9625C251.4 31.9625 264.715 45.2081 264.715 61.4417C264.715 77.6695 251.4 90.7768 234.915 90.7768ZM161.994 61.5908C167.3 62.6271 172.135 66.5053 174.858 71.2718C173.954 65.3074 174.104 59.3566 174.858 53.548C171.827 57.7107 166.993 60.6948 161.994 61.5908ZM147.335 89.7178C145.664 92.1078 143.4 93.4499 140.519 93.4499H124.638V74.6879H141.423C144.144 74.9801 146.731 76.778 148.083 79.3102C149.744 82.4249 149.289 86.8972 147.335 89.7178ZM140.67 30.1647H124.641V48.7826H138.101C141.426 48.9384 144.607 48.4923 146.57 45.812C149.146 42.6818 149.146 37.6154 147.338 34.1968C146.124 31.9646 143.405 30.3244 140.67 30.1647Z" fill="white"/>
<path fill-rule="evenodd" clip-rule="evenodd" d="M234.752 39.5598C222.36 39.5598 212.217 49.383 212.217 61.7481C212.217 73.9399 222.362 83.9228 234.752 83.9228C247.31 83.9228 257.295 73.9399 257.295 61.7481C257.295 49.383 247.31 39.5598 234.752 39.5598Z" fill="white"/>
<path fill-rule="evenodd" clip-rule="evenodd" d="M54.005 47.1493H32.8198V3.23429H0V120.255H32.8198V76.0383H54.005V120.255H86.8229V3.23429H54.005V47.1493Z" fill="white"/>
</svg>
