<?xml version="1.0" encoding="UTF-8"?>
<svg id="Layer_1" data-name="Layer 1" xmlns="http://www.w3.org/2000/svg" version="1.1" viewBox="0 0 5236.51 1004.76">
  <defs>
    <style>
      .cls-1 {
        fill: #e52a1b;
      }

      .cls-1, .cls-2 {
        stroke-width: 0px;
      }

      .cls-2 {
        fill: #fff;
      }
    </style>
  </defs>
  <g>
    <g>
      <path class="cls-2" d="M4338.27,840.35c-92.98,0-132.46-65.79-132.46-130.7v-226.31h-48.24v-86.84h48.24v-135.09h114.04v135.09h80.7v86.84h-80.7v219.29c0,26.32,12.27,41.23,39.46,41.23h41.23v96.49h-62.28Z"/>
      <path class="cls-2" d="M4667.2,840.35h-89.47l-168.42-457.01h120.17l92.98,282.45,92.1-282.45h120.17l-167.53,457.01Z"/>
      <path class="cls-2" d="M5096.16,650.89v140.35h-107.02v-140.35h-141.22v-107.02h141.22v-140.35h107.02v140.35h140.35v107.02h-140.35Z"/>
    </g>
    <g>
      <g>
        <path class="cls-1" d="M3599.08,452.71c-46.85-46.65-103.55-69.52-167.8-69.52s-119.91,22.87-165.61,69.52c-46.97,46.72-69.76,103.04-69.76,168.2s22.79,121.5,69.76,167.1c45.7,46.78,101.29,70.56,165.61,70.56s120.96-23.78,167.8-70.56c45.84-45.6,68.68-101.99,68.68-167.1s-22.85-121.49-68.68-168.2M3519.51,708.81c-23.98,25.04-53.38,36.83-88.23,36.83s-63.19-11.8-87.18-36.83c-23.98-24.96-37.1-54.28-37.1-87.9,0-35.84,13.12-65.16,37.1-89,23.99-24.91,53.46-36.91,87.18-35.85,34.85-1.06,64.25,10.94,89.29,35.85,22.99,23.84,34.84,53.16,36.04,89-1.2,33.62-13.04,62.94-37.1,87.9"/>
        <path class="cls-1" d="M1937.92,267.11c-81.68-1.05-149.31,27.15-205.88,85.72-57.86,57.51-86.06,125.84-86.06,207.35s28.2,150.88,86.06,208.32c56.57,56.48,124.2,84.67,205.88,84.67,65.45,0,125.4-19.56,177.66-59.75,51.21-41.25,84.99-92.18,102.42-155.17h-118.78c-15.24,30.44-36.97,55.28-64.25,74.91-30.54,18.51-62.14,28.28-97.05,28.28-50.08,0-92.62-18.52-127.45-53.31-35.92-35.78-53.4-78.02-52.34-127.95-1.06-49.95,16.42-92.38,52.34-128.08,34.83-34.72,77.37-53.18,127.45-53.18,34.91,0,66.5,9.75,97.05,29.32,27.29,18.44,49.02,44.47,64.25,74.85h118.78c-17.43-62.98-51.21-115.11-102.42-155.17-52.26-41.3-112.21-61.86-177.66-60.81"/>
        <path class="cls-1" d="M2658.72,382.09c-76.3-1.13-129.76,19.56-160.3,59.75-19.47,24.91-29.33,57.59-32.65,98.83h113.39c2.06-19.56,8.75-32.61,16.3-41.24,11.98-15.29,31.6-22.94,60.01-21.81,23.92-1.13,42.41,3.23,55.52,10.86,13.05,6.53,18.48,19.57,19.6,38.02,0,15.15-8.8,27.21-26.16,34.79l-87.25,13.98c-40.28,5.45-72.94,15.23-98.04,29.44-42.46,24.92-63.11,64.97-62.07,122.63-1.04,40.05,12.01,72.66,38.1,96.52,22.91,19.63,54.52,30.37,92.74,31.57,62.01-1.2,111.04-16.34,145.94-46.79v46.79h113.4v-332.2c0-54.29-19.81-92.25-56.77-111.74-39.28-20.62-82.8-30.52-131.77-29.39M2706.62,637.13l21.73-11.8v45.53c0,38.94-10.86,66.14-31.6,81.32-21.8,15.21-44.65,22.83-70.82,22.83-16.29,0-29.4-4.39-40.27-12.95-10.86-9.88-16.37-23.99-16.37-44.55,0-22.73,8.82-39.14,27.23-51.06,10.92-6.52,29.4-11.93,53.39-15.15l56.7-14.18Z"/>
      </g>
      <rect class="cls-1" x="2275.76" y="267.11" width="113.35" height="588.29"/>
      <path class="cls-1" d="M3111.93,398.42c-30.4,11.99-57.63,32.61-80.62,63.98v-57.51l-107.83-.98v451.51h112.22v-216.05c0-36.97,4.44-62.91,14.23-79.19,7.55-17.33,21.73-31.5,39.22-43.42,19.61-13.11,40.23-19.64,62.14-19.64l34.77,2.3-.98-115.17-29.41,2.18-43.72,11.99Z"/>
      <polygon class="cls-1" points="3611.27 328.97 3884.8 56.6 3956.74 128.17 3683.15 400.6 3611.27 328.97"/>
      <rect class="cls-1" x="3389.37" width="101.3" height="292.07"/>
      <rect class="cls-1" x="3739.11" y="513.52" width="299.76" height="100.88"/>
    </g>
  </g>
  <path class="cls-2" d="M1221.67,732.43v-153.45c0-26.98,6.74-48.76,20.24-65.34,13.49-16.57,31.2-24.87,53.12-24.87,24.73,0,43.7,10.68,56.91,32.04,13.2,21.37,19.81,53.68,19.81,96.96,0,41.03-7.16,72.65-21.5,94.85-14.33,22.21-36.4,33.3-66.18,33.3-20.8,0-41.6-4.49-62.39-13.49ZM1076.65,399.4l14.33,119.72v485.64h130.69v-174.52c21.35,10.67,46.37,16.02,75.03,16.02,38.79,0,73.77-8.85,104.97-26.56,31.2-17.71,56.07-44.54,74.61-80.52,18.55-35.96,27.82-79.81,27.82-131.53,0-45.53-7.16-84.73-21.5-117.62-14.33-32.88-33.87-57.88-58.59-75.03-24.74-17.14-52.56-25.72-83.47-25.72-49.47,0-89.94,21.92-121.41,65.76h-8.43l-9.28-55.65h-124.78ZM722.55,732.43v-153.45c0-26.98,6.74-48.76,20.24-65.34,13.49-16.57,31.2-24.87,53.12-24.87,24.73,0,43.7,10.68,56.91,32.04,13.2,21.37,19.81,53.68,19.81,96.96,0,41.03-7.16,72.65-21.5,94.85-14.33,22.21-36.4,33.3-66.18,33.3-20.8,0-41.6-4.49-62.39-13.49ZM577.53,399.4l14.33,119.72v485.64h130.69v-174.52c21.35,10.67,46.37,16.02,75.03,16.02,38.79,0,73.77-8.85,104.97-26.56,31.2-17.71,56.07-44.54,74.61-80.52,18.55-35.96,27.82-79.81,27.82-131.53,0-45.53-7.16-84.73-21.5-117.62-14.33-32.88-33.87-57.88-58.59-75.03-24.74-17.14-52.56-25.72-83.47-25.72-49.47,0-89.94,21.92-121.41,65.76h-8.43l-9.28-55.65h-124.78ZM188.86,600.84l64.07-219.99h9.28l64.07,219.99h-137.43ZM519.36,836.13l-165.25-578.38h-188.02L0,836.13h128.15l37.94-132.44h182.12l37.94,132.44h133.21Z"/>
</svg>