<svg width="651" height="120" viewBox="0 0 651 120" fill="none" xmlns="http://www.w3.org/2000/svg">
<path d="M0.638916 0.957129C0.968106 0.927218 1.2973 0.867398 1.62649 0.867398C12.0708 0.867398 22.545 0.867398 32.9893 0.867398C33.3185 0.867398 33.6477 0.897308 34.0966 0.927218V15.6132H20.5998V105.135H34.0966V120H0.638916V0.957129Z" fill="white"/>
<path d="M577.319 95.683H555.802C555.802 95.0847 555.802 94.6062 555.802 94.0977C555.802 78.6042 555.802 63.1406 555.802 47.6471C555.802 46.3908 555.742 45.1047 555.503 43.8784C555.054 41.4556 553.857 39.4816 551.313 38.8235C548.53 38.1057 546.106 38.8534 544.221 41.0369C542.306 43.2502 541.857 45.9422 541.857 48.7537C541.827 54.7059 541.857 60.6879 541.857 66.6401C541.857 75.7627 541.857 84.9153 541.857 94.0379V95.653H520.489V24.1376H541.049V32.6321C541.408 32.2433 541.587 32.0937 541.707 31.9143C545.448 25.0947 551.433 22.1336 558.975 22.2233C561.369 22.2233 563.793 22.5523 566.127 23.1206C570.646 24.2273 573.788 27.0987 575.644 31.3759C575.853 31.8843 576.062 32.3928 576.362 33.1107C576.721 32.5723 576.99 32.1835 577.26 31.7946C579.743 28.0857 582.557 24.676 587.016 23.3001C592.642 21.5354 598.328 21.7149 603.774 23.988C608.682 26.0518 611.196 30.1495 612.184 35.1745C612.662 37.5673 612.872 40.0499 612.872 42.4726C612.932 59.7607 612.872 77.0788 612.932 94.3669C612.932 95.5633 612.573 95.8325 611.435 95.8325C605.271 95.7727 599.076 95.8325 592.911 95.8325C586.746 95.8325 592.013 95.8325 591.445 95.8325C591.445 95.1745 591.445 94.666 591.445 94.1874C591.445 78.664 591.445 63.1406 591.445 47.6171C591.445 46.2712 591.325 44.8953 591.026 43.6092C590.517 41.2164 589.23 39.3918 586.686 38.8235C583.963 38.2253 581.629 39.003 579.833 41.0668C578.127 43.011 577.529 45.3739 577.499 47.8863C577.439 52.7617 577.469 57.6072 577.469 62.4826C577.469 73.011 577.469 83.5394 577.469 94.0678C577.469 104.596 577.469 95.0847 577.469 95.7428L577.319 95.683Z" fill="white"/>
<path d="M426.221 95.7727H424.905C417.573 95.7727 410.271 95.7727 402.939 95.7727C401.891 95.7727 401.532 95.5035 401.293 94.4267C396.475 71.2164 391.597 48.0359 386.719 24.8554C386.689 24.6461 386.659 24.4367 386.629 24.1077H408.026C410.33 41.6351 412.635 59.1625 414.939 76.6899C415.059 76.6899 415.149 76.6899 415.268 76.6899C415.627 74.3868 415.987 72.1137 416.346 69.8106C418.261 57.2483 420.176 44.656 422.121 32.0937C422.481 29.7009 422.9 27.338 423.199 24.9452C423.289 24.1675 423.618 23.988 424.336 23.988C431.369 23.988 438.401 23.988 445.404 23.988C446.302 23.988 446.511 24.317 446.631 25.1246C449.055 42.1436 451.509 59.1625 453.933 76.2114C453.933 76.3908 453.993 76.5404 454.352 76.7498C456.866 59.2522 459.38 41.7248 461.923 24.1077H482.573C481.795 27.6969 481.046 31.2562 480.268 34.7856C475.989 54.6162 471.679 74.4167 467.43 94.2473C467.19 95.3839 466.801 95.8026 465.545 95.8026C458.482 95.7428 451.419 95.7727 444.327 95.7727C437.234 95.7727 443.399 95.7727 442.771 95.7727C440.167 78.0957 437.563 60.5085 434.96 42.8913C434.84 42.8913 434.75 42.8913 434.631 42.8913C431.847 60.4786 429.034 78.0658 426.221 95.7727Z" fill="white"/>
<path d="M158.47 95.683H137.821V87.1884C137.731 87.1884 137.672 87.1585 137.582 87.1286C137.462 87.3978 137.312 87.6969 137.193 87.9661C134.589 94.2473 129.711 97.2682 123.068 97.5673C112.593 98.0459 105.71 92.9013 102.478 82.2532C100.593 76.0319 99.9943 69.661 99.9345 63.2004C99.8447 55.4536 99.9046 47.7069 101.461 40.0798C102.329 35.8325 103.675 31.7348 106.429 28.2652C110.199 23.5095 115.376 22.014 121.182 22.1336C128.035 22.2532 133.362 25.005 136.504 31.3161C136.564 31.4357 136.654 31.5254 136.744 31.5852C136.744 31.5852 136.804 31.5852 136.983 31.5852V1.10668H158.47V95.683ZM121.062 57.996C121.332 63.2004 121.481 67.1785 121.781 71.1266C121.99 73.8185 122.559 76.4806 124.025 78.8435C125.462 81.1466 127.586 82.1037 130.25 81.9541C132.734 81.8046 134.44 80.4287 135.188 78.2154C135.996 75.8524 136.804 73.34 136.923 70.8873C137.223 64.3669 137.253 57.7866 137.193 51.2662C137.193 48.0957 136.714 44.9252 135.457 41.9641C134.35 39.3918 132.524 37.7767 129.562 37.7767C126.479 37.7767 124.324 39.1525 123.097 41.994C122.738 42.8315 122.349 43.7288 122.26 44.656C121.751 49.5314 121.362 54.4068 121.033 58.0558L121.062 57.996Z" fill="white"/>
<path d="M168.137 24.0778H189.594V25.6929C189.594 41.1864 189.594 56.6501 189.594 72.1436C189.594 73.2802 189.654 74.4168 189.833 75.5533C190.282 78.5743 191.988 80.4885 194.532 81.0568C197.165 81.655 200.038 80.5184 201.654 78.2154C202.971 76.3609 203.51 74.2373 203.539 71.994C203.599 66.8794 203.569 61.7647 203.569 56.65C203.569 46.331 203.569 36.012 203.569 25.6929V24.1077H224.997V95.683C224.578 95.683 224.189 95.7428 223.77 95.7428C217.754 95.7428 211.739 95.7428 205.754 95.7727C204.617 95.7727 204.288 95.4437 204.347 94.337C204.437 92.4526 204.347 90.5384 204.347 88.6241C204.347 88.2353 204.318 87.8166 204.258 87.0987C203.929 87.6072 203.749 87.8166 203.629 88.0558C200.188 94.2173 194.771 97.1486 187.858 97.5374C184.417 97.7468 181.005 97.3579 177.773 96.0419C172.536 93.9183 169.783 89.8205 168.765 84.4666C168.316 82.0738 168.107 79.5912 168.107 77.1685C168.047 59.9402 168.107 42.7418 168.107 25.5135V24.0179L168.137 24.0778Z" fill="white"/>
<path d="M94.458 95.7129C94.1288 95.7129 93.7398 95.7727 93.3208 95.7727C87.3654 95.7727 81.3802 95.7727 75.4248 95.7727C74.4073 95.7727 73.9584 95.4437 73.8387 94.4865C73.5395 92.2134 73.2103 89.9402 72.8512 87.5174C72.6716 87.7268 72.5519 87.8764 72.4621 88.0259C68.2724 95.4736 61.5989 98.016 53.4589 97.4776C51.6633 97.3579 49.8378 96.999 48.132 96.4307C42.1467 94.4865 38.9446 90.0299 37.6578 84.1376C36.2513 77.7966 36.2513 71.4855 38.795 65.324C41.0095 59.9402 45.1693 56.7996 50.6159 55.2742C55.7932 53.8385 60.9704 52.5224 66.1776 51.1765C66.3272 51.1466 66.5068 51.0867 66.6564 51.0269C72.1629 49.4118 74.2876 44.5065 71.714 39.3021C71.4446 38.7936 71.1154 38.2851 70.6965 37.8664C67.4644 34.5763 60.4317 35.9222 58.8157 40.2592C58.1873 41.9641 58.0077 43.8485 57.5887 45.8225H38.795C38.8548 41.7547 39.3636 37.8365 40.9497 34.0678C43.2241 28.684 47.4138 25.3938 52.8604 23.8684C61.8383 21.3559 70.9359 21.2961 79.9138 23.7787C87.3056 25.8126 91.1661 31.0469 92.0639 38.5244C92.3033 40.3789 92.3631 42.2333 92.3631 44.0877C92.3631 56.65 92.3332 69.2124 92.423 81.7747C92.423 84.8853 92.7522 88.0259 93.1412 91.1067C93.3208 92.6022 94.0091 94.0678 94.5178 95.6231L94.458 95.7129ZM72.2526 60.5982C68.8111 62.0339 65.3097 63.4397 61.8981 64.9651C60.1624 65.7428 58.8157 67.1186 58.1873 68.9731C56.9902 72.5025 57.0501 76.0618 58.5464 79.5015C59.5639 81.8345 61.4792 82.9113 64.0229 82.8215C68.2126 82.672 71.1154 80.2792 71.9833 76.1815C72.103 75.673 72.2227 75.1944 72.2227 74.6859C72.2227 69.99 72.2227 65.324 72.2227 60.6281L72.2526 60.5982Z" fill="white"/>
<path d="M329.26 73.1007H348.114C348.323 74.7458 348.443 76.4207 348.772 78.0658C349.849 83.9282 356.463 86.5005 361.341 82.9711C364.753 80.4885 365.112 74.985 362.059 71.8445C360.473 70.1994 358.438 69.2722 356.313 68.4646C351.645 66.6999 346.976 64.995 342.338 63.1406C340.602 62.4227 338.956 61.4058 337.37 60.3589C333.031 57.4576 330.637 53.3599 329.978 48.1854C329.499 44.3868 329.499 40.5882 330.607 36.8794C332.372 30.8973 336.323 26.7996 342.098 24.7059C351.645 21.2363 361.371 21.1166 370.947 24.3769C378.698 27.009 382.858 33.1705 383.068 41.3659C383.068 42.4128 383.068 43.4596 383.068 44.5962H364.154C363.975 42.9811 363.855 41.4257 363.556 39.9003C363.077 37.3579 361.431 35.8624 358.887 35.5932C357.421 35.4138 355.924 35.4736 354.458 35.683C352.064 35.9821 350.388 37.2682 349.789 39.7208C349.131 42.4726 349.43 45.1047 351.914 46.7498C353.8 47.9761 355.924 48.9332 358.049 49.7109C362.388 51.326 366.937 52.4925 371.187 54.3171C380.284 58.2652 384.414 65.4138 383.935 75.3141C383.606 82.0439 381.392 87.8764 375.915 92.1236C372.444 94.8455 368.404 96.341 364.094 96.999C356.643 98.1655 349.251 97.9561 342.009 95.653C334.168 93.1406 329.709 87.2483 329.26 78.993C329.17 77.0788 329.26 75.1346 329.26 73.1306V73.1007Z" fill="white"/>
<path d="M631.396 105.224V15.7328H617.84V0.927218H650.639V119.91H617.84V105.224H631.396Z" fill="white"/>
<path d="M272.071 38.7936H263.272V24.0778H272.041V3.02094H293.528V24.0179H303.464V38.7338H293.618C293.588 39.332 293.528 39.7807 293.528 40.2293C293.528 51.6849 293.528 63.1406 293.528 74.5962C293.528 75.2243 293.558 75.8524 293.618 76.4806C293.947 79.9202 295.533 81.4457 299.004 81.6251C300.441 81.6849 301.877 81.6251 303.404 81.6251C303.404 81.8644 303.493 82.1934 303.493 82.5224C303.493 86.5304 303.493 90.5683 303.493 94.5763C303.493 95.5035 303.254 95.7727 302.296 95.8923C296.191 96.5204 290.057 96.9093 283.952 96.1615C276.26 95.2343 272.969 91.7647 272.37 83.9282C272.161 81.3559 272.071 78.7837 272.071 76.2114C272.041 64.2772 272.071 52.3729 272.071 40.4387V38.7637V38.7936Z" fill="white"/>
<path d="M256.629 95.7129H235.381V1.07677H256.629V95.7129Z" fill="white"/>
<path d="M489.097 24.0778H510.434V95.683H489.097V24.0778Z" fill="white"/>
<path d="M489.067 0H510.434V16.3011H489.067V0Z" fill="white"/>
</svg>
