<svg width="263" height="120" viewBox="0 0 263 120" fill="none" xmlns="http://www.w3.org/2000/svg">
<path fill-rule="evenodd" clip-rule="evenodd" d="M109.511 28.648L106.339 29.5221C104.129 30.3947 102.151 31.9019 100.483 34.1945V29.9939L92.6499 29.92V62.9022H100.8V47.1247C100.8 44.4253 101.12 42.5262 101.834 41.3326C102.383 40.0695 103.412 39.0371 104.683 38.1659C106.104 37.2103 107.606 36.7326 109.193 36.7326L111.721 36.8968L111.646 28.4867L109.511 28.648ZM45.7294 62.9188H53.9588V19.9483H45.7294V62.9188ZM78.4884 46.1691L76.9081 47.0329L72.7926 48.0639C71.0497 48.3034 69.7075 48.6999 68.9137 49.1746C67.5744 50.0472 66.9358 51.2424 66.9358 52.9049C66.9358 54.4105 67.3379 55.437 68.1242 56.1559C68.9137 56.7831 69.8657 57.1025 71.0497 57.1025C72.9508 57.1025 74.6108 56.5464 76.1956 55.437C77.696 54.3277 78.4884 52.3443 78.4884 49.4956V46.1691ZM87.119 38.7167V62.9811H78.8821V59.5689C76.3484 61.789 72.7918 62.8998 68.2844 62.9811C65.5084 62.8998 63.217 62.1114 61.554 60.6811C59.6588 58.9373 58.7113 56.553 58.7881 53.6289C58.7113 49.4194 60.2102 46.4892 63.2939 44.6656C65.1196 43.6302 67.4892 42.9217 70.4147 42.5208L76.7476 41.4959C78.01 40.9427 78.6456 40.0626 78.6456 38.9578C78.5644 37.6103 78.1697 36.6563 77.222 36.1815C76.2745 35.6238 74.9293 35.3029 73.1923 35.3872C71.1301 35.3029 69.7066 35.8635 68.8374 36.9787C68.2844 37.6103 67.8055 38.5629 67.6518 39.9901H59.4193C59.6588 36.9787 60.3728 34.5929 61.7934 32.7721C64.0079 29.8391 67.8853 28.329 73.4258 28.4118C76.9855 28.329 80.1475 29.0478 82.9962 30.5536C85.6852 31.9809 87.119 34.7512 87.119 38.7167ZM21.1998 28.2999C23.7349 28.2999 26.0292 29.0113 28.2437 30.4416C30.2245 31.7905 31.8062 33.6912 32.9135 35.9098H41.5376C40.2722 31.3128 37.8184 27.5041 34.0976 24.577C30.3059 21.5611 25.9524 20.0555 21.1998 20.1339C15.2705 20.0555 10.3582 22.1158 6.24708 26.3949C2.05478 30.5983 0 35.5903 0 41.5378C0 47.4023 2.05478 52.5629 6.24708 56.7605C10.3582 60.8799 15.2705 62.9461 21.1998 62.9461C25.9524 62.9461 30.3059 61.5159 34.0976 58.5813C37.8184 55.5684 40.2722 51.8455 41.5376 47.247H32.9135C31.8062 49.4686 30.2245 51.2849 28.2437 52.7152C26.0292 54.0685 23.7349 54.78 21.1998 54.78C17.5632 54.78 14.4796 53.4311 11.9429 50.8885C9.33816 48.2751 8.06832 45.1911 8.14668 41.5378C8.06832 37.8947 9.33816 34.7991 11.9429 32.1869C14.4796 29.6488 17.5632 28.2999 21.1998 28.2999ZM138.628 45.5603C138.545 42.9468 137.675 40.8006 136.009 39.0598C134.192 37.2405 132.058 36.3634 129.526 36.4447C127.074 36.3634 124.937 37.2405 123.197 39.0598C121.454 40.8006 120.504 42.9468 120.504 45.5603C120.504 48.0171 121.454 50.1588 123.197 51.984C124.937 53.8122 127.074 54.6745 129.526 54.6745C132.058 54.6745 134.192 53.8122 135.932 51.984C137.675 50.1588 138.545 48.0171 138.628 45.5603ZM141.709 33.2746C145.033 36.6869 146.696 40.8017 146.696 45.5614C146.696 50.3182 145.033 54.4389 141.709 57.7698C138.308 61.182 134.192 62.9214 129.526 62.9214C124.858 62.9214 120.817 61.182 117.5 57.7698C114.091 54.4389 112.434 50.3182 112.434 45.5614C112.434 40.8017 114.091 36.6869 117.5 33.2746C120.817 29.8683 124.858 28.1969 129.526 28.1969C134.192 28.1969 138.308 29.8683 141.709 33.2746ZM152.098 46.0145H174.353V38.6428H152.098V46.0145ZM167.992 9.56462L148.122 29.4658L142.902 24.2313L162.766 4.33598L167.992 9.56462ZM134.179 22.4579V0.202637H126.808V22.4579H134.179Z" fill="white"/>
<path d="M199.938 62.719V55.5975H196.895C194.888 55.5975 193.981 54.4968 193.981 52.5546V36.3693H199.938V29.9599H193.981V19.9897H185.565V29.9599H182.004V36.3693H185.565V53.0725C185.565 57.8634 188.479 62.719 195.341 62.719H199.938Z" fill="white"/>
<path d="M232.458 28.9888H223.589L216.791 49.8354L209.928 28.9888H201.059L213.489 62.719H220.093L232.458 28.9888Z" fill="white"/>
<path d="M262.621 48.7348V40.8363H252.262V30.4778H244.364V40.8363H233.939V48.7348H244.364V59.0933H252.262V48.7348H262.621Z" fill="white"/>
<path d="M115.129 111.305H100.898V104.641L110.218 84.2485H119.687L110.719 103.89H115.329L118.736 95.2715H124.297V103.89H128.405L127.705 111.305H124.297V118.821H114.627L115.129 111.305Z" fill="white"/>
<path d="M142.724 84.2485V98.5785H143.075L151.643 84.2485H161.764L153.546 97.8269L162.114 118.821H151.492L146.282 104.591H145.98L142.724 110.102V118.821H132.854V84.2485H142.724Z" fill="white"/>
</svg>
