<svg width="133" height="120" viewBox="0 0 133 120" fill="none" xmlns="http://www.w3.org/2000/svg">
<path fill-rule="evenodd" clip-rule="evenodd" d="M61.3971 114.953C70.1265 114.953 80.8479 107.042 77.2698 99.0801L68.2978 79.1136L101.05 110.427C107.141 116.251 116.753 116.364 122.711 110.405H122.713C128.663 104.44 128.655 94.6904 122.692 88.7355L100.999 67.0761L123.252 44.8556C129.214 38.904 129.224 29.1527 123.273 23.1865C117.321 17.2219 107.574 17.2122 101.61 23.1655L77.2698 47.4685V20.9197C77.2698 12.1887 70.1265 5.04541 61.3971 5.04541C52.6677 5.04541 45.5244 12.1887 45.5244 20.9197V21.3983C51.0201 26.3377 54.4899 33.4923 54.4899 41.4181C54.4899 46.55 53.0348 51.357 50.5173 55.4492L53.4778 66.4358C53.8432 68.2644 53.0283 68.6654 51.5941 68.3194L45.5244 66.3487V99.0801C45.5244 107.811 52.6677 114.953 61.3971 114.953ZM40.3706 65.0829V98.9726C40.3706 110.536 49.8324 120 61.3978 120C72.8791 120 82.2844 110.675 82.4218 99.2248L97.237 114.017C105.239 122.006 118.316 121.992 126.3 113.988C134.286 105.985 134.271 92.9029 126.271 84.9156L108.224 66.8925L125.939 49.2058C133.839 41.3171 133.854 28.3985 125.969 20.4953C118.085 12.5921 105.171 12.5791 97.271 20.4662L82.425 35.2895V21.0288C82.425 9.46346 72.9632 0 61.3978 0C50.9013 0 42.1375 7.79504 40.6073 17.8818C36.7362 15.7211 32.285 14.4878 27.5596 14.4878C12.7476 14.4878 0.630859 26.6061 0.630859 41.4181C0.630859 56.2302 12.7476 68.3485 27.5596 68.3485C32.1884 68.3485 36.5544 67.1629 40.3706 65.0829ZM29.9768 23.0344H17.1729C14.0669 23.0344 11.5269 25.5308 11.5269 28.5802V55.1678C11.5269 58.2188 14.0669 60.7136 17.1729 60.7136H29.9768C38.9067 60.7136 47.2755 50.4611 47.2755 41.874C47.2755 33.2869 38.9067 23.0344 29.9768 23.0344ZM26.761 32.7356H22.2192V51.0141H26.761C31.8783 51.0141 36.066 46.9009 36.066 41.8741C36.066 36.8473 31.8783 32.7356 26.761 32.7356Z" fill="white"/>
</svg>
