<svg width="350" height="120" viewBox="0 0 350 120" fill="none" xmlns="http://www.w3.org/2000/svg">
<path fill-rule="evenodd" clip-rule="evenodd" d="M328.308 42.6092C338.742 48.4826 346.488 58.7095 348.761 71.218C352.789 93.6984 337.503 115.169 314.519 119.12C304.344 120.891 294.428 118.915 286.113 114.208L249.595 93.5491L304.498 0.327592L333.782 16.8859L321.025 38.5074L328.308 42.6092ZM303.103 85.3434C304.705 86.256 306.668 86.6603 308.629 86.3063C313.122 85.548 316.067 81.3439 315.292 76.9887C314.878 74.5578 313.329 72.5849 311.315 71.419L304.031 67.3188L295.82 81.2415L303.103 85.3434ZM269.892 55.3187C283.269 44.3318 285.025 24.7856 273.818 11.6211C262.609 -1.49466 242.622 -3.21424 229.244 7.77263C215.865 18.7612 214.111 38.356 225.318 51.4718C236.527 64.5876 256.514 66.3072 269.892 55.3187ZM244.839 26C247.938 23.4181 252.637 23.8224 255.271 26.9109C257.906 30.0011 257.492 34.5559 254.341 37.1395C251.191 39.6727 246.49 39.2668 243.908 36.2285C241.274 33.1903 241.687 28.5835 244.839 26ZM152.457 66.542C154.707 58.9372 159.206 51.8811 165.866 46.4069C183.737 31.7242 210.338 34.0008 225.314 51.522C240.295 69.0416 237.969 95.1172 220.099 109.803C202.228 124.488 175.627 122.209 160.649 104.69C153.345 96.1439 150.166 85.5647 150.89 75.264L142.845 120L109.529 114.242L116.958 72.9321C113.019 89.7303 101.523 104.636 84.3658 112.486C54.7701 126.006 19.6471 113.447 5.85807 84.4843C-7.93272 55.4712 4.87753 21.0376 34.4219 7.52254C49.1932 0.788491 65.3609 0.535168 79.5641 5.59997L67.9431 36.9417C61.8991 34.7658 55.0302 34.8664 48.7791 37.7536C36.2289 43.4744 30.8061 58.1068 36.6431 70.4123C42.4783 82.7161 57.4054 88.0325 69.9555 82.3101C78.3234 78.5136 83.4862 70.7159 84.3127 62.3093L64.6866 71.2712L53.9949 48.7892L106.264 24.8878C108.795 28.1273 111.016 31.6722 112.93 35.5207C117.777 45.7191 119.324 56.5868 118.027 66.9798L130.071 0L163.387 5.75767L152.457 66.542ZM186.679 83.269C189.573 86.7132 194.789 87.1158 198.249 84.2823C201.762 81.4454 202.174 76.3303 199.282 72.9381C196.389 69.5459 191.175 69.0912 187.713 71.9265C184.2 74.7634 183.787 79.8768 186.679 83.269Z" fill="white"/>
</svg>
