<svg width="231" height="120" viewBox="0 0 231 120" fill="none" xmlns="http://www.w3.org/2000/svg">
<path fill-rule="evenodd" clip-rule="evenodd" d="M230.55 84.757V78.3446C230.268 78.3446 229.972 78.3454 229.661 78.3462C225.108 78.3588 217.645 78.3794 213.517 75.9398C206.172 71.5335 206.231 63.2576 206.293 54.657C206.298 53.8718 206.304 53.0839 206.304 52.296V32.4599H229.748V26.0475H206.304V0H186.267V54.5009C186.267 74.9378 197.288 84.957 223.336 84.957C225.74 84.957 227.944 84.957 230.55 84.757ZM178.652 82.5529V55.5012C178.652 23.5333 152.609 23.6002 137.302 23.6396C136.779 23.6409 136.268 23.6422 135.772 23.6422H95.6963V82.3518H116.335V30.0547C116.335 30.0547 125.553 29.4538 130.962 29.4538C150.599 29.4538 158.214 35.8662 158.214 52.4966V82.5529H178.652ZM0.319824 53.7006C0.319824 27.451 26.3684 23.6433 41.396 23.6433V23.4433H86.2798V80.1491V80.1493C86.2798 86.7616 86.2798 90.7681 85.6789 94.3747C81.4713 120.022 54.0198 121.826 23.9636 119.021V113.411C23.9636 113.411 30.3761 114.012 33.9827 114.012C41.597 114.012 54.4208 114.012 60.6311 106.398C63.8379 102.39 65.0409 97.7814 65.6418 90.5681C66.0417 86.3605 65.8429 80.9511 65.8429 80.9511C58.0275 83.3559 50.6131 84.1567 41.396 83.9557C30.175 83.7557 0.319824 79.9492 0.319824 53.7006ZM66.0424 30.0548C66.0424 30.0548 61.6349 29.4538 56.8253 29.2528C52.0168 29.0529 46.0053 29.4538 41.7977 30.0548C30.9766 31.8587 22.1616 40.2738 22.1616 53.6997C22.1616 66.5223 31.1777 75.5396 44.8035 76.9425C56.4254 78.1443 65.8436 74.3377 65.8436 73.7357H66.0424V30.0548Z" fill="white"/>
</svg>
