<svg width="194" height="120" viewBox="0 0 194 120" fill="none" xmlns="http://www.w3.org/2000/svg">
<path fill-rule="evenodd" clip-rule="evenodd" d="M68.1547 0L90.7289 8.06348L83.4739 15.3178L68.1547 0ZM171.141 109.193V0L180.602 6.35332V17.6056C178.846 19.1402 177.328 21.1692 176.092 22.8212C175.403 23.7427 174.801 24.5469 174.295 25.0826C173.198 26.2307 172.147 27.375 171.141 28.5126V49.1165C174.817 43.2855 178.314 39.2493 180.602 36.8886V109.193H171.141ZM180.602 36.8886C180.602 36.8887 180.602 36.8885 180.602 36.8886V17.6056C180.602 17.6057 180.602 17.6056 180.602 17.6056V36.8886ZM67.0605 109.185H76.5216V91.1729L67.0605 81.7027V109.185ZM99.8223 81.7758V92.1471H89.451L99.8223 81.7758Z" fill="white"/>
<path d="M83.4739 21.2942L104.77 0H166.948V33.529C156.245 47.0889 151.724 59.0809 149.623 64.653C149.192 65.796 148.863 66.6689 148.604 67.2297C148.456 67.6528 148.186 68.0223 147.827 68.2909C147.468 68.5595 147.037 68.715 146.59 68.7376C145.79 68.7376 145.045 68.2779 144.751 67.0091C143.951 63.221 143.445 56.7205 142.829 48.3904C142.498 43.9587 139.215 41.9544 135.169 42.9933C131.271 44.0047 129.496 46.4964 129.827 50.8913C130.063 54.0313 130.746 57.1251 132.426 64.7385C132.581 65.4402 132.744 66.1811 132.917 66.9631C133.413 69.2341 137.689 88.3492 141.413 93.7096C145.937 100.219 154.102 97.9482 154.231 92.2109C154.269 89.0639 154.721 85.9356 155.574 82.9062C158.39 73.1613 161.953 66.2448 165.058 60.2175C165.633 59.1021 166.192 58.0172 166.727 56.9504C166.801 56.804 166.874 56.6584 166.948 56.5136V109.174H127.34C127.186 106.305 126.904 102.784 126.701 100.615C126.29 97.3598 126.06 94.0846 126.011 90.8043H126.02C126.02 90.0627 126.057 88.5191 126.103 86.5337C126.187 82.9554 126.305 77.9418 126.305 73.6016C126.305 70.7372 125.885 66.7069 125.468 62.7097C125.057 58.7778 124.65 54.8775 124.65 52.1511C124.65 48.8503 124.65 45.0346 124.512 43.3888C124.696 43.2693 124.88 43.1497 125.065 43.029C127.531 41.4215 130.279 39.631 137.156 35.7483C137.435 35.5895 137.744 35.4209 138.073 35.2413C140.848 33.7258 145.045 31.4339 145.045 27.7675C145.045 25.0092 142.498 21.1108 138.48 21.9751C136.606 22.3755 135.729 23.3296 134.509 24.6554C133.377 25.8866 131.95 27.4384 129.156 29.1651C124.429 32.0797 121.91 33.4865 120.935 34.0289C119.522 33.2709 117.941 32.8789 116.338 32.8888C113.634 32.8888 110.48 34.1117 110.48 37.6239C110.48 37.8849 110.494 38.149 110.507 38.4131C110.577 39.7867 110.647 41.1624 108.834 42.1108C108.258 42.4761 106.24 43.6736 103.605 45.2373L103.604 45.238C100.735 46.9409 97.1335 49.078 93.8647 51.0477C90.6547 52.9847 88.4887 53.6508 86.7821 54.1756C85.6777 54.5153 84.7658 54.7957 83.8879 55.3231C83.0995 55.7664 82.443 56.4111 81.9858 57.1915C81.5285 57.9718 81.2869 58.8596 81.2856 59.764C81.3609 60.846 81.7123 61.8907 82.3063 62.7982C83.7316 64.637 85.0005 65.6024 87.2349 65.6024C90.1153 65.6024 92.6288 63.6891 96.2386 60.9413C97.3766 60.075 98.6236 59.1257 100.025 58.1274C100.511 57.7851 101.018 57.4232 101.537 57.0527C104.951 54.6164 108.881 51.8109 110.582 51.8109C112.338 51.8109 113.552 53.1349 113.552 58.5687C113.552 68.4761 113.223 73.8977 112.925 78.8249C112.676 82.9286 112.448 86.6894 112.448 92.4133C112.448 94.6843 112.531 98.8494 112.604 100.615C112.665 102.289 112.603 106.22 112.519 109.174H104.09L104.08 71.5415L83.4739 92.1461L62.8675 71.5415V109.174H0V0H62.1779L83.4739 21.2942Z" fill="white"/>
</svg>
