<svg width="240" height="120" viewBox="0 0 240 120" fill="none" xmlns="http://www.w3.org/2000/svg">
<path d="M239.52 55.2012H221.555V0H239.52V55.2012Z" fill="white"/>
<path d="M221.317 90V63.1201H240V119.521H220.359L208.383 100.321L196.406 119.521H177.963V63.1201H195.688V90L208.622 70.8001L221.317 90Z" fill="white"/>
<path fill-rule="evenodd" clip-rule="evenodd" d="M172.454 91.2009V90.9604C172.454 75.121 159.521 62.4002 142.514 62.4002C125.748 62.4002 112.575 75.3599 112.575 91.4413C112.575 107.281 125.508 120 142.514 120C159.281 120 172.454 107.281 172.454 91.2009ZM154.011 91.4413C154.011 97.9205 149.699 103.68 142.754 103.68C135.808 103.68 131.258 97.6815 131.258 91.2009V90.9604C131.258 84.4797 135.568 78.7205 142.514 78.7205C149.461 78.7205 154.011 84.7202 154.011 91.4413Z" fill="white"/>
<path d="M90.0594 82.5605H71.8565V63.1201H54.132V119.521H71.8565V100.08H90.0594V119.521H107.305V63.1201H90.0594V82.5605Z" fill="white"/>
<path d="M24.9106 77.0402C28.9814 77.0402 32.8152 78.4816 37.3659 80.6413L49.3412 69.8397C43.1136 65.0409 34.7305 62.6407 24.1922 62.6407C8.86302 62.6407 0 70.8001 0 81.6001C0 91.2009 7.6661 95.2813 17.006 97.9205C18.443 98.1609 21.7968 98.8808 21.7968 98.8808C27.7844 100.08 29.2214 101.041 29.2214 102.48V102.721C29.2214 104.161 27.5444 105.36 24.9106 105.36C20.8383 105.36 16.7676 103.92 12.4553 101.76L0.239998 112.799C6.46765 117.601 14.6107 120 24.9106 120C40.2397 120 48.8628 111.841 48.8628 101.041V100.8C48.8628 91.2009 41.4367 87.1204 32.0952 84.4797C30.6583 84.2408 27.7844 83.5209 27.7844 83.5209C21.7968 82.32 20.8383 81.3612 20.8383 79.9198V79.6809C20.8383 78.2396 22.0352 77.0402 24.9106 77.0402Z" fill="white"/>
<path d="M182.036 55.2012H200V15.6004H215.568V0H166.467V15.6004H182.036V55.2012Z" fill="white"/>
<path d="M174.85 39.6007H148.502V0H130.538V55.2012H174.85V39.6007Z" fill="white"/>
<path d="M97.2455 56.4005C113.772 56.4005 125.03 48.961 125.03 30V0H105.15V29.7611C105.15 36.9601 102.036 39.6007 97.2455 39.6007C92.4548 39.6007 89.341 36.4807 89.341 29.2801V0H69.7011V30.2405C69.7011 48.7205 80.7179 56.4005 97.2455 56.4005Z" fill="white"/>
<path d="M32.5752 48.0006L19.6414 28.8007V54.7202H1.43691V0H20.5983L32.5752 19.1999L44.5505 0H62.9935V54.7202H45.7489V28.8007L32.5752 48.0006Z" fill="white"/>
</svg>
