<svg width="445" height="120" viewBox="0 0 445 120" fill="none" xmlns="http://www.w3.org/2000/svg">
<path d="M61.0546 112.265C54.3751 113.438 47.5782 113.79 40.5471 114.726L19.1013 51.9143V117.422C12.4218 118.125 6.3282 119.063 0 120V0H17.813L42.1875 68.087V0H61.0546V112.265ZM97.9688 43.9453C105.235 43.9453 116.368 43.5937 123.047 43.5937V62.3433C114.726 62.3433 105 62.3433 97.9688 62.6949V90.586C108.985 89.8831 120 88.9448 131.133 88.5931V106.639L79.2183 110.741V0H131.133V18.75H97.9688V43.9453ZM200.859 18.7505H181.406V105C175.078 105 168.75 105 162.657 105.234V18.7505H143.204V0H200.86L200.859 18.7505ZM231.328 42.6566H256.992V61.4062H231.328V103.946H212.928V0H265.312V18.75H231.328V42.6566ZM295.781 87.539C306.445 87.7727 317.226 88.5944 327.656 89.1794V107.695C310.899 106.64 294.141 105.587 277.031 105.234V0H295.781V87.539ZM343.476 108.984C349.453 109.336 355.781 109.688 361.875 110.39V0H343.476V108.984ZM444.024 0L420.234 57.0705L444.024 120C436.992 119.063 429.961 117.773 422.929 116.601L409.453 81.9146L395.743 113.79C388.945 112.617 382.383 112.265 375.587 111.328L399.728 56.3667L377.93 0H398.085L410.39 31.5235L423.516 0H444.024V0Z" fill="white"/>
</svg>
