<svg width="121" height="120" viewBox="0 0 121 120" fill="none" xmlns="http://www.w3.org/2000/svg">
<path fill-rule="evenodd" clip-rule="evenodd" d="M119.767 50.7842H106.591V86.2321H94.6389V50.7842H80.9836V86.2321H73.0036C70.0397 86.2321 68.6236 85.3921 67.0874 82.9559L51.6313 59.8081H51.3797V86.2321H39.7636V50.7842H26.1436V86.2321H13.9874V50.7842H1.18356C0.715098 53.7842 0.475098 56.8681 0.475098 59.9996C0.475098 93.1329 27.3436 120 60.4751 120C93.6074 120 120.475 93.1329 120.475 59.9996C120.475 56.8681 120.235 53.7842 119.767 50.7842ZM3.19971 42.0718C10.8197 17.6878 33.5836 0 60.4751 0C87.3674 0 110.131 17.6878 117.751 42.0718H69.5836V64.2719H69.1636L57.0197 45.348C55.5436 42.9003 54.0674 42.0718 51.1036 42.0718H3.19971Z" fill="white"/>
</svg>
