<?xml version="1.0" encoding="UTF-8"?>
<svg xmlns="http://www.w3.org/2000/svg" version="1.1" viewBox="0 0 152 55">
  <defs>
    <style>
      .cls-1, .cls-2 {
        fill: #fff;
      }

      .cls-2 {
        fill-rule: evenodd;
      }

      .cls-3 {
        isolation: isolate;
        opacity: .2;
      }

      .cls-4 {
        fill: #6ad360;
      }
    </style>
  </defs>
  <!-- Generator: Adobe Illustrator 28.6.0, SVG Export Plug-In . SVG Version: 1.2.0 Build 709)  -->
  <g>
    <g id="Camada_1">
      <g>
        <g id="Grupo_5616">
          <path id="Retângulo_877" class="cls-3" d="M15.6,6.5h112c13.4,0,24.2,10.8,24.2,24.2h0c0,13.4-10.8,24.2-24.2,24.2H15.6c-4.2,0-7.6-3.4-7.6-7.6s0,0,0,0V14.1c0-4.2,3.4-7.6,7.6-7.6Z"/>
          <path id="Retângulo_874" class="cls-4" d="M8,0h117.2c13.9,0,25.2,11.3,25.2,25.2h0c0,13.9-11.3,25.2-25.2,25.2H8c-4.4,0-7.9-3.5-7.9-7.9s0,0,0,0V7.9C.1,3.5,3.7,0,8,0Z"/>
        </g>
        <path id="Caminho_3071" class="cls-2" d="M114.6,34.7c1.7,1.1,3.7,1.7,5.8,1.7,5.7,0,10.4-4.7,10.3-10.5,0-5.7-4.7-10.4-10.5-10.3-5.7,0-10.3,4.7-10.3,10.4,0,2.2.8,4.3,2,6.2l-1.3,3.8,3.9-1.3ZM107.9,26c0-6.9,5.5-12.5,12.4-12.6,6.9,0,12.5,5.5,12.6,12.4,0,6.9-5.5,12.5-12.4,12.6,0,0,0,0-.1,0-2.1,0-4.2-.5-6-1.5l-6.8,2.2,2.2-6.6c-1.1-2-1.7-4.2-1.8-6.4M124.1,27.5c.4.2,2.5,1.2,2.5,1.2.2,0,.3.2.3.3,0,0,0,0,0,.1,0,.7-.1,1.3-.6,1.8-.8.8-2,1.1-3.1,1h0c-1.7-.4-3.3-1.2-4.7-2.3-1.4-1.2-2.5-2.6-3.4-4.2-.4-.7-.5-1.4-.5-2.2,0-1,.5-1.8,1.2-2.5.2-.1.3-.2.5-.2h1c.2,0,.3.2.4.3.1.3.9,2.2,1,2.4h0c.1.3.1.6,0,.8-.3.3-.8.9-.8.9-.1.1-.1.3,0,.5.5.8,1,1.5,1.7,2.1.7.6,1.5,1.1,2.4,1.5.3.1.6,0,.8-.2,0,0,0,0,0,0h0c.2-.3.8-1.1.8-1.1.2-.2.4-.2.6-.1"/>
        <g>
          <path id="Caminho_3185" class="cls-1" d="M18.2,12.3h.2l1.4,4.6h-3l1.4-4.6ZM17,10.6l-3.1,10.5h1.7l.8-2.8h3.6l.8,2.8h1.8l-3.2-10.5h-2.5Z"/>
          <path id="Caminho_3186" class="cls-1" d="M24.5,13.6c.7-.4,1.4-.6,2.2-.6.4,0,.7,0,1.1,0,.3,0,.6,0,.9.2v1.4c-.3-.1-.7-.2-1-.3-.3,0-.7-.1-1-.1-.3,0-.6,0-.9.2-.2.2-.4.4-.4.7,0,.2,0,.5.3.6.2.2.5.3.8.4l.7.2c.6.2,1.1.5,1.6.9.4.4.6.9.5,1.5,0,.7-.3,1.3-.8,1.8-.6.5-1.4.7-2.2.6-.5,0-.9,0-1.4-.1-.4,0-.8-.2-1.2-.4v-1.4c.4.2.8.4,1.3.5.4.1.8.2,1.3.2.4,0,.7,0,1-.3.2-.2.4-.5.3-.7,0-.2,0-.5-.3-.6-.3-.2-.6-.4-.9-.5l-.7-.2c-.5-.2-1-.5-1.4-.8-.4-.4-.5-.9-.5-1.4,0-.7.3-1.3.8-1.7"/>
          <path id="Caminho_3187" class="cls-1" d="M31.3,13.6c.7-.4,1.4-.6,2.2-.6.4,0,.7,0,1.1,0,.3,0,.6,0,.9.2v1.4c-.3-.1-.7-.2-1-.3-.3,0-.7-.1-1-.1-.3,0-.6,0-.9.2-.2.2-.4.4-.4.7,0,.2,0,.5.3.6.2.2.5.3.8.4l.7.2c.6.2,1.1.5,1.6.9.4.4.6.9.5,1.5,0,.7-.3,1.3-.8,1.8-.6.5-1.4.7-2.2.6-.5,0-.9,0-1.4-.1-.4,0-.8-.2-1.2-.4v-1.4c.4.2.8.4,1.3.5.4.1.8.2,1.3.2.4,0,.7,0,1-.3.2-.2.4-.5.3-.7,0-.2,0-.5-.3-.6-.3-.2-.6-.4-.9-.5l-.7-.2c-.5-.2-1-.5-1.4-.8-.4-.4-.5-.9-.5-1.4,0-.7.3-1.3.8-1.7"/>
          <path id="Caminho_3188" class="cls-1" d="M37.9,10.3c.2-.2.5-.3.8-.3.3,0,.6,0,.8.3.2.2.3.4.3.7,0,.3,0,.5-.3.7-.2.2-.5.3-.8.3-.3,0-.6,0-.8-.2-.2-.2-.3-.4-.3-.7,0-.3,0-.5.3-.7M39.5,21.1h-1.8v-7.9h1.8v7.9Z"/>
          <path id="Caminho_3189" class="cls-1" d="M43.4,13.2l.2,1h.2c.3-.3.7-.6,1.1-.8.4-.2.9-.3,1.4-.3.6,0,1.2.2,1.7.7.4.5.7,1.1.6,1.8v5.6h-1.8v-5.1c0-.4-.1-.7-.3-1-.3-.3-.6-.4-1-.4-.3,0-.6,0-.9.2-.3.1-.6.3-.8.5v5.8h-1.8v-5.9l-.3-2h1.7Z"/>
          <path id="Caminho_3190" class="cls-1" d="M55.3,21.1c-.4,0-.8.1-1.2.1-1,0-2.1-.3-2.8-1.1-.7-.9-1-1.9-1-3,0-1.1.3-2.1.9-3,.6-.7,1.5-1.1,2.5-1.1.9,0,1.8.3,2.4,1,.6.8.9,1.8.9,2.9,0,.2,0,.5,0,.7h-4.9c0,.6.2,1.2.6,1.7.4.4,1.1.6,1.7.6.4,0,.8,0,1.1-.1.4,0,.7-.2,1.1-.3v1.3c-.4.2-.8.3-1.2.3M55.4,16.6h0c0-.7-.1-1.2-.4-1.7-.3-.4-.7-.6-1.2-.6-.5,0-1,.2-1.3.7-.3.5-.4,1.1-.4,1.6h3.4Z"/>
          <path id="Caminho_3191" class="cls-1" d="M63.3,13.2l.2,1.1h.2c.2-.4.6-.7.9-.9.4-.2.9-.4,1.3-.3.6,0,1.1.2,1.5.5.5.4.8.8,1,1.4.3.7.4,1.4.4,2.1,0,.8-.1,1.6-.5,2.3-.3.6-.7,1.1-1.3,1.4-.6.3-1.2.5-1.9.5-.6,0-1.1-.1-1.6-.4v3.3h-1.8v-9l-.3-2h1.7ZM65.1,19.9c.6,0,1.1-.2,1.5-.7.4-.6.5-1.3.5-2,0-.7-.1-1.4-.4-2-.3-.5-.8-.7-1.3-.7-.5,0-.9.2-1.2.6-.3.4-.5,1-.5,1.5v3c.5.2,1,.4,1.5.4"/>
          <path id="Caminho_3192" class="cls-1" d="M75.2,21.1c-.4,0-.8.1-1.2.1-1,0-2.1-.3-2.8-1.1-.7-.9-1-1.9-1-3,0-1.1.3-2.1.9-3,.6-.7,1.5-1.1,2.5-1.1.9,0,1.8.3,2.4,1,.6.8.9,1.8.9,2.9,0,.2,0,.5,0,.7h-4.9c0,.6.2,1.2.6,1.7.4.4,1.1.6,1.7.6.4,0,.8,0,1.1-.1.4,0,.7-.2,1.1-.3v1.3c-.4.2-.8.3-1.2.3M75.3,16.6h0c0-.7-.1-1.2-.4-1.7-.3-.4-.7-.6-1.2-.6-.5,0-1,.2-1.3.7-.3.5-.4,1.1-.4,1.6h3.4Z"/>
          <rect id="Retângulo_875" class="cls-1" x="78.8" y="9.9" width="1.8" height="11.2"/>
          <path id="Caminho_3193" class="cls-1" d="M83.4,20.1c-.7-.9-1-1.9-1-3,0-1.1.3-2.1,1-3,1.4-1.5,3.8-1.5,5.3,0,0,0,0,0,0,0,.7.9,1,1.9.9,3,0,1.1-.3,2.1-.9,3-1.5,1.5-3.8,1.5-5.3,0,0,0,0,0,0,0M84.7,19.2c.3.5.8.8,1.4.7.6,0,1.1-.2,1.4-.7.3-.6.5-1.3.5-2,0-.7-.1-1.4-.5-2-.3-.5-.8-.8-1.4-.7-.6,0-1.1.2-1.4.7-.3.6-.5,1.3-.4,2,0,.7.1,1.4.4,2"/>
          <path id="Caminho_3194" class="cls-1" d="M15.8,26.4l2.1,8.8h.2l2.1-8.8h2.6l2,8.8h.2l2.1-8.8h1.6l-2.6,10.5h-2.5l-2.1-8.8h-.2l-2.1,8.8h-2.5l-2.7-10.5h1.8Z"/>
          <path id="Caminho_3195" class="cls-1" d="M32.2,25.7v4.1h0c.3-.3.7-.5,1.1-.7.4-.2.9-.3,1.3-.3.6,0,1.2.2,1.6.6.4.5.7,1.1.6,1.7v5.7h-1.8v-5.1c0-.4-.1-.7-.4-1-.3-.3-.6-.4-1-.4-.3,0-.6,0-.9.2-.3.1-.6.3-.8.5v5.8h-1.8v-11.2h1.8Z"/>
          <path id="Caminho_3196" class="cls-1" d="M43.3,36h-.1c-.3.3-.6.6-1,.8-.4.2-.8.3-1.2.3-.6,0-1.2-.2-1.7-.6-.4-.5-.7-1.1-.6-1.7,0-.7.2-1.4.8-1.8.7-.4,1.4-.7,2.2-.6.4,0,.9,0,1.3,0v-.7c0-.4-.1-.8-.4-1.1-.3-.3-.7-.4-1.2-.4-.4,0-.8,0-1.1.2-.4,0-.7.2-1.1.4v-1.4c.4-.2.8-.3,1.2-.4.4,0,.9-.1,1.3-.1.8,0,1.6.2,2.2.7.6.5.8,1.3.8,2.1v3.3l.3,2h-1.4l-.3-.9ZM40.5,35.6c.2.2.6.3.9.3.6,0,1.2-.3,1.6-.7h0v-1.9c-.4,0-.7,0-1.1,0-1.2,0-1.7.5-1.7,1.4,0,.3,0,.7.3.9"/>
          <path id="Caminho_3197" class="cls-1" d="M47.2,30.4h-.9v-1l1-.2.5-2.1h1.2v2h2.3v1.3h-2.3v4.2c0,.3,0,.6.2.8.2.2.4.3.7.3.5,0,.9-.1,1.4-.3v1.4c-.3.1-.6.2-.9.2-.3,0-.6,0-.9,0-1.1,0-2.1-.7-2.2-1.9,0-.1,0-.2,0-.3v-4.5Z"/>
          <path id="Caminho_3198" class="cls-1" d="M53.1,29.5c.7-.4,1.4-.6,2.2-.6.4,0,.7,0,1.1,0,.3,0,.6,0,.9.2v1.4c-.3-.1-.7-.2-1-.3-.3,0-.7-.1-1-.1-.3,0-.6,0-.9.2-.4.3-.5.8-.2,1.2,0,0,0,0,0,0,.2.2.5.3.8.4l.7.2c.6.2,1.1.5,1.6.9.4.4.6.9.5,1.5,0,.7-.3,1.3-.8,1.8-.6.5-1.4.7-2.2.6-.5,0-.9,0-1.4-.1-.4,0-.8-.2-1.2-.4v-1.4c.4.2.8.4,1.3.5.4.1.8.2,1.3.2.4,0,.7,0,1-.3.2-.2.4-.5.3-.7,0-.2,0-.5-.3-.6-.3-.2-.6-.4-.9-.5l-.7-.2c-.5-.2-1-.5-1.4-.8-.4-.4-.5-.9-.5-1.4,0-.7.3-1.3.8-1.7"/>
          <path id="Caminho_3199" class="cls-1" d="M65.7,36.9l-.8-2.8h-3.6l-.8,2.8h-1.7l3.1-10.5h2.5l3.2,10.5h-1.8ZM64.6,32.7l-1.4-4.6h-.2l-1.4,4.6h3Z"/>
          <path id="Caminho_3200" class="cls-1" d="M70.4,29l.2,1.1h.2c.2-.4.6-.7.9-.9.4-.2.9-.4,1.3-.3.6,0,1.1.2,1.5.5.5.4.8.8,1,1.4.3.7.4,1.4.4,2.1,0,.8-.1,1.6-.5,2.3-.3.6-.7,1.1-1.3,1.4-.6.3-1.2.5-1.9.5-.6,0-1.1-.1-1.6-.4v3.3h-1.8v-9l-.3-2h1.7ZM72.3,35.7c.6,0,1.1-.2,1.5-.7.4-.6.5-1.3.5-2,0-.7-.1-1.4-.4-2-.3-.5-.8-.7-1.3-.7-.5,0-.9.2-1.2.6-.3.4-.5,1-.5,1.5v3c.4.2,1,.4,1.5.4"/>
          <path id="Caminho_3201" class="cls-1" d="M79.3,29l.2,1.1h.2c.2-.4.6-.7.9-.9.4-.2.9-.4,1.3-.3.6,0,1.1.2,1.5.5.5.4.8.8,1,1.4.3.7.4,1.4.4,2.1,0,.8-.1,1.6-.5,2.3-.3.6-.7,1.1-1.3,1.4-.6.3-1.2.5-1.9.5-.6,0-1.1-.1-1.6-.4v3.3h-1.8v-9l-.3-2h1.7ZM81.2,35.7c.6,0,1.1-.2,1.5-.7.4-.6.5-1.3.5-2,0-.7-.1-1.4-.4-2-.3-.5-.8-.7-1.3-.7-.5,0-.9.2-1.2.6-.3.4-.5,1-.5,1.5v3c.4.2,1,.4,1.5.4"/>
        </g>
      </g>
    </g>
  </g>
</svg>