<?xml version="1.0" encoding="UTF-8"?>
<svg xmlns="http://www.w3.org/2000/svg" version="1.1" xmlns:xlink="http://www.w3.org/1999/xlink" viewBox="0 0 312 120">
  <defs>
    <style>
      .cls-1 {
        fill: #fff;
      }

      .cls-2 {
        mask: url(#mask);
      }
    </style>
    <mask id="mask" x="1" y="1.2" width="310" height="117.6" maskUnits="userSpaceOnUse">
      <g id="mask0_5971_4683">
        <path class="cls-1" d="M311,1.2H1v117.6h310V1.2Z"/>
      </g>
    </mask>
  </defs>
  <!-- Generator: Adobe Illustrator 28.6.0, SVG Export Plug-In . SVG Version: 1.2.0 Build 709)  -->
  <g>
    <g id="Camada_1">
      <g class="cls-2">
        <path class="cls-1" d="M65.9,20.1c4.4-5.3,6.5-12,6.1-18.9-6.7.6-12.9,3.9-17.3,9-2.2,2.5-3.8,5.3-4.9,8.4-1.1,3.1-1.5,6.4-1.3,9.7,3.3,0,6.7-.6,9.7-2.1,3-1.4,5.7-3.5,7.7-6.2ZM71.6,29.6c-9.6-.6-17.8,5.5-22.4,5.5s-11.6-5.2-19.2-5.1c-5,.1-9.8,1.6-14,4.2-4.2,2.6-7.7,6.2-10.1,10.6-10.3,17.9-2.8,44.5,7.3,59.1,4.9,6.9,10.7,15.2,18.5,14.9,7.8-.3,10.2-4.8,19.1-4.8s11.5,4.8,19.2,4.6c7.7-.2,13.1-6.9,17.9-14.5,3.5-5.1,6.2-10.7,8.1-16.7-4.6-2-8.6-5.4-11.3-9.6-2.8-4.2-4.3-9.2-4.3-14.2,0-4.5,1.2-8.9,3.4-12.8,2.2-3.9,5.3-7.2,9.2-9.6-2.4-3.5-5.6-6.3-9.3-8.3-3.7-2-7.8-3.2-12-3.4M133,15.7v19.6h15.7v13h-15.7v46.5c0,6.9,3.1,10.5,10,10.5,1.9,0,3.8-.2,5.6-.4v13.1c-3.1.5-6.2.7-9.3.7-16.2,0-22.5-6.3-22.5-22.1v-47.9h-12.3v-13h12V15.7h16.5ZM203.6,117.9h-17.2l-28.9-82.3h17.1l20.3,66.1h.4l20.3-66.1h16.8l-28.8,82.3ZM279.1,117.9h-14.9v-33.7h-31.9v-14.9h31.9v-33.7h14.9v33.7h31.9v14.9h-31.9v33.7Z"/>
      </g>
    </g>
  </g>
</svg>