<svg width="324" height="120" viewBox="0 0 324 120" fill="none" xmlns="http://www.w3.org/2000/svg">
<path d="M152.588 44.2908C135.698 44.2908 125.156 56.7697 125.156 71.938C125.156 87.1064 135.483 99.5853 152.695 99.5853C169.908 99.5853 180.34 87.214 180.34 71.938C180.34 56.6621 169.475 44.2908 152.586 44.2908H152.588ZM152.695 87.5346C143.121 87.5346 138.28 80.0042 138.28 71.936C138.28 63.8677 143.228 56.2297 152.695 56.2297C161.517 56.2297 167.111 63.9753 167.111 71.936C167.111 79.8967 162.27 87.5346 152.695 87.5346Z" fill="white"/>
<path d="M200.151 52.4375L200.075 46.3366H187.095V99.0969H200.151V71.2717C200.151 61.5319 204.024 57.7874 210.874 57.7874C215.154 57.7874 217.616 58.9645 220.291 61.2112L228.618 49.9736C225.728 47.0835 220.485 44.9443 215.026 44.9443C209.566 44.9443 204.216 45.9084 200.149 52.4354L200.151 52.4375Z" fill="white"/>
<path d="M318.912 71.7083L319.644 70.4339L319.721 51.9762L320.668 50.8632C320.356 50.5881 320.043 50.3315 319.729 50.0771L319.768 40.4551H256.488V32.9868L243.515 33.1399V40.4551H0V103.441H62.2105V120H75.219V103.441H300.68L302.573 100.148C316.243 99.3887 323.138 91.6845 323.138 82.8032C323.138 77.7285 321.485 74.1929 318.91 71.7104L318.912 71.7083ZM28.3507 99.6121C20.1976 99.6121 12.0445 98.2529 4.51823 90.4143L10.7908 81.3199C14.4484 85.3954 22.8105 88.4283 28.5596 88.5317C33.3675 88.6372 37.8629 86.1278 37.8629 82.3646C37.8629 78.8105 34.9356 77.3478 27.6204 76.9299C17.8991 76.1976 6.29739 72.6455 6.29739 60.9382C6.29739 49.2309 18.6315 44.841 28.0383 44.841C36.0879 44.841 42.1495 46.4091 48.1076 51.6349L40.9992 59.9969C37.3416 56.5482 33.1606 55.398 28.2472 55.398C22.1836 55.398 18.8404 57.2785 18.8404 60.5203C18.8404 63.7621 21.8712 65.7461 28.4562 66.164C38.1774 66.7908 50.5115 68.9858 50.5115 82.6791C50.5115 91.7735 43.0908 99.6121 28.3527 99.6121H28.3507ZM318.676 70.316L318.229 71.0897C313.618 67.1984 306.538 66.2012 300.452 65.8081C293.677 65.3778 290.559 63.4414 290.559 60.001C290.559 56.5607 294.002 54.7318 300.237 54.7318C305.291 54.7318 309.592 55.9152 313.357 59.4632L318.748 53.1203L318.676 70.314V70.316ZM55.8262 102.411L56.0704 76.2845L56.1945 58.0874L62.2105 50.7474V102.411H55.8262ZM300.138 102.411H75.2211V91.848C78.9532 97.6054 87.1642 99.3121 92.7086 99.3121C109.557 99.3121 119.259 87.1559 119.259 71.8014C119.259 56.4469 108.489 44.2907 92.2824 44.2907C86.3119 44.2907 79.2739 46.8498 75.2211 52.7148L75.1694 45.4637H66.5426L69.8071 41.4813H243.517V46.6408H233.736V57.8061H243.517V80.4552C243.517 93.534 250.96 100.02 262.337 99.5935C266.272 99.488 270.035 98.8487 273.756 97.3613L268.229 86.3036C266.315 87.2615 263.975 87.8986 261.956 87.8986C257.916 87.8986 256.383 85.4533 256.383 80.4552V57.8061H265.262L270.949 46.6408H256.488V41.4813H318.794L318.761 49.324C313.227 45.1782 307.445 43.8728 300.02 43.8728C290.342 43.8728 277.652 48.1738 277.652 60.4334C277.652 72.6931 289.589 76.1335 299.589 76.8865C307.118 77.3168 310.128 78.8229 310.128 82.4784C310.128 86.3491 305.504 88.931 300.558 88.8234C294.643 88.7158 286.041 85.5981 282.276 81.4026L275.823 90.7577C283.567 98.8218 291.953 100.22 300.34 100.22C300.713 100.22 301.058 100.193 301.422 100.183L300.136 102.409L300.138 102.411ZM76.3941 71.8014C76.3941 63.5904 81.9385 56.873 91.3225 56.873C100.707 56.873 106.251 63.5904 106.251 71.8014C106.251 80.0124 100.173 86.7298 91.3225 86.7298C82.4722 86.7298 76.3941 80.0124 76.3941 71.8014Z" fill="white"/>
<path d="M101.797 36.1996C104.134 35.3514 105.982 34.135 107.302 32.5378C108.626 30.9407 109.296 29.0333 109.292 26.8983C109.294 24.8709 108.673 23.0256 107.453 21.4305C106.4 20.0527 104.929 18.9459 103.077 18.0998C104.561 17.3902 105.744 16.4675 106.592 15.3173C107.61 13.9415 108.121 12.3134 108.119 10.4991C108.121 8.43854 107.502 6.6056 106.274 5.07262C105.049 3.54172 103.321 2.37493 101.131 1.55982C98.9356 0.742653 96.3951 0.341309 93.5154 0.341309H74.8301V37.4678H93.6829C96.7489 37.4678 99.4549 37.0499 101.799 36.1996H101.797ZM86.1422 9.05297H94.0719C94.5911 9.05297 95.0359 9.11504 95.4104 9.23089C95.7848 9.34674 96.0869 9.51224 96.3372 9.7274C96.5834 9.94255 96.7634 10.1929 96.8875 10.5053C97.0116 10.8156 97.082 11.188 97.082 11.6348C97.082 12.0817 97.0137 12.4582 96.8875 12.7727C96.7613 13.0892 96.5793 13.3478 96.331 13.5712C96.0807 13.7946 95.7786 13.9643 95.4062 14.0843C95.0339 14.2022 94.5891 14.2663 94.0719 14.2663H86.1422V9.05297ZM86.1422 22.3594H94.3512C95.0008 22.3594 95.5614 22.4339 96.0351 22.5766C96.5089 22.7194 96.8916 22.9242 97.2061 23.1911C97.5185 23.46 97.746 23.7724 97.9033 24.151C98.0605 24.5296 98.1432 24.9785 98.1432 25.5081C98.1432 26.0377 98.0584 26.4515 97.9053 26.8156C97.7502 27.1797 97.5247 27.4817 97.2102 27.7424C96.8978 28.001 96.513 28.2017 96.0393 28.3403C95.5655 28.4789 95.0028 28.5513 94.3512 28.5513H86.1422V22.3594Z" fill="white"/>
<path d="M124.462 28.6465H140.345L144.521 37.4016H155.312L154.983 36.6755L138.52 0.275146H126.844L109.938 37.4016H120.294L124.465 28.6465H124.462ZM131.594 9.33023H133.52L138.379 21.3375L126.777 21.2485L131.592 9.33023H131.594Z" fill="white"/>
<path d="M158.85 37.4118H169.651L169.39 17.9983L184.654 37.4118H195.037L194.751 0.00195312H183.437L183.77 19.6823C183.77 19.6823 181.507 17.0653 179.831 14.8517V14.8476L168.436 0.00195312H158.053L158.339 37.4118H158.852H158.85Z" fill="white"/>
<path d="M230.446 34.8322C233.601 33.2992 236.045 31.1021 237.737 28.2638C239.429 25.4275 240.271 22.1112 240.269 18.3563C240.269 14.6698 239.429 11.4218 237.733 8.65167C236.04 5.88363 233.616 3.74037 230.5 2.24256C227.38 0.742694 223.731 0 219.571 0H202.505V37.4099H219.459C223.621 37.4099 227.289 36.3651 230.446 34.8301V34.8322ZM214.157 9.27851H219.347C220.866 9.27851 222.19 9.4916 223.33 9.90535C224.47 10.3191 225.425 10.9335 226.218 11.7528C227.012 12.5741 227.606 13.5568 228.009 14.7215C228.411 15.8862 228.618 17.2351 228.618 18.7701C228.618 20.2183 228.415 21.4906 228.018 22.5932C227.62 23.6959 227.035 24.6331 226.251 25.4213C225.465 26.2095 224.538 26.7991 223.448 27.1963C222.357 27.5935 221.106 27.7962 219.683 27.7962H214.157V9.27851Z" fill="white"/>
</svg>
