<svg width="480" height="120" viewBox="0 0 480 120" fill="none" xmlns="http://www.w3.org/2000/svg">
<path d="M368.701 0.00366211H454.749C468.345 0.00366211 482.429 6.39307 479.646 28.4947C479.138 32.4599 479 33.6768 479 33.6768H364.625L368.701 0.00366211Z" fill="white"/>
<path d="M331.134 0.0019706C353.075 0.0019706 359.108 13.0354 357.359 27.4111C357.018 30.2017 356.58 33.677 356.58 33.677H123.94C124.352 30.383 124.752 27.0871 125.14 23.7892C126.807 9.51762 138.647 -0.023101 156.527 4.20105e-05C165.952 0.0116135 331.134 0.00389918 331.134 0.00389918V0.0019706Z" fill="white"/>
<path d="M14.5519 0.0055907H120.039L115.971 33.6768H10.47L14.5519 0.00366211V0.0055907Z" fill="white"/>
<path d="M438.013 46.4979L429.089 119.987L468.548 119.975L477.466 46.5114L438.013 46.496V46.4979Z" fill="white"/>
<path d="M354.137 119.987L363.049 46.4979V46.496L402.518 46.5114L393.598 119.975L354.137 119.987Z" fill="white"/>
<path d="M245.206 46.5106L236.294 119.992H275.732L281.286 74.3594H330.823C344.873 74.3594 352.425 66.7126 353.825 56.4428C354.275 53.1372 354.679 49.8278 355.04 46.5106H245.206Z" fill="white"/>
<path d="M233.678 78.1931C233.845 76.7837 233.976 75.6682 234.068 74.9901C237.142 52.009 221.428 46.5318 209.052 46.5318C206.216 46.5318 193.087 46.5282 177.747 46.5239C156.19 46.5179 130.266 46.5106 122.395 46.5106C119.502 65.6885 128.982 74.3575 142.42 74.3575C149.729 74.3575 195.795 74.3382 195.795 74.3382L194.129 88.1045L117.357 88.1103L113.489 119.988C113.489 119.988 197.073 120.017 200.462 119.988C200.577 119.98 200.72 119.971 200.889 119.96C204.839 119.715 223.084 118.581 229.466 103.053C231.256 98.6981 232.873 85.0086 233.678 78.1931Z" fill="white"/>
<path fill-rule="evenodd" clip-rule="evenodd" d="M111.027 74.3594L114.409 46.5106H8.92761L0 119.992H105.495L109.383 88.1141L43.3257 88.1064L44.9942 74.3594H111.027Z" fill="white"/>
</svg>
