<?xml version="1.0" encoding="UTF-8"?>
<svg id="Camada_1" data-name="Camada 1" xmlns="http://www.w3.org/2000/svg" version="1.1" viewBox="0 0 438 120">
  <defs>
    <style>
      .cls-1 {
        fill: #fff;
        stroke-width: 0px;
      }
    </style>
  </defs>
  <path class="cls-1" d="M301.8,117h37.8c8.9-14.4,19-27.5,30.5-39.9,11.4,12.3,20.9,25.4,29.8,39.9h38.1c-13.1-19.9-27.3-38.9-44.4-57.7,16.9-18,31.3-36.6,44.4-56.2h-37.4c-9.3,14.4-19.3,26.6-30.5,38.5-11.4-12-21.4-24.1-30.5-38.5h-37.8c12.9,20.1,27.5,38.2,44.6,56.2-17.1,18.8-31.7,38.4-44.6,57.7"/>
  <path class="cls-1" d="M227.6,120c15.4,0,28.6-5.7,38.9-18v15h29.8V3h-29.8v15C256.3,5.7,243,0,227.6,0c-31.1,0-56.9,26.8-56.9,60s25.8,60,56.9,60ZM198.8,60c0-18.6,15-33.6,33.6-33.6s33.6,15,33.6,33.6-15,33.6-33.6,33.6-33.6-15-33.6-33.6ZM206.6,60c0,14.4,11.6,26,25.8,26s25.8-11.6,25.8-26-11.6-26-25.8-26-25.8,11.6-25.8,26Z"/>
  <path class="cls-1" d="M0,117h31.3V46.1c13.7-10.8,19.9-14.2,25-14.2s10.1,3.8,10.1,13.3v71.8h31.3V46c13.7-10.6,19.7-14,25-14s10.1,3.8,10.1,13.3v71.8h31.3V34.2c0-25.6-14.6-34.2-28.7-34.2s-24.1,4.9-40,17.1C90.3,4.4,79.1,0,69,0s-24.1,5.3-39.6,17.3V3H0v113.9Z"/>
</svg>