<svg xmlns="http://www.w3.org/2000/svg" width="170" height="40" fill="none"><path fill="#EEE" fill-rule="evenodd" d="M124.307 40c-1.112 0-2.065-.182-2.86-.546-.795-.364-1.449-.843-1.966-1.427a5.479 5.479 0 0 1-1.128-1.996 7.402 7.402 0 0 1-.354-2.293V22.896h-2.282v-4.161h2.282v-6.471h5.442v6.47h3.823v4.162h-3.823v10.506c0 1.317.621 1.973 1.868 1.973h1.95V40h-2.952Zm17.152 0h-4.238l-7.974-21.899h5.692l4.401 13.532 4.363-13.532h5.687L141.459 40Zm21.012-2.354v-6.724h6.579v-5.126h-6.667V19.07H157.4v6.725h-6.683v5.126h6.683v6.724h5.071Z" clip-rule="evenodd"/><path fill="#E3262E" fill-rule="evenodd" d="M84.96 0h-4.629v13.581h4.63V0Zm21.27 5.958L93.724 18.625l-3.285-3.33L102.94 2.63l3.29 3.33ZM4.433 16.404c2.587-2.723 5.68-4.035 9.412-3.986v.006c2.985-.05 5.725.91 8.116 2.828 2.337 1.862 3.884 4.288 4.679 7.215h-5.425c-.703-1.417-1.694-2.624-2.942-3.484-1.394-.91-2.838-1.361-4.433-1.361-2.294 0-4.233.86-5.829 2.474-1.64 1.66-2.44 3.633-2.39 5.953-.05 2.326.75 4.289 2.39 5.953 1.596 1.615 3.54 2.475 5.829 2.475 1.595 0 3.039-.452 4.433-1.312a9.454 9.454 0 0 0 2.942-3.483h5.425c-.795 2.927-2.342 5.297-4.68 7.215-2.385 1.868-5.125 2.778-8.115 2.778-3.731 0-6.825-1.318-9.412-3.941C1.79 33.06.5 29.83.5 26.044c0-3.787 1.29-6.967 3.933-9.64ZM82.024 34.67c1.59 0 2.936-.551 4.031-1.714 1.1-1.163 1.645-2.525 1.7-4.09-.055-1.665-.6-3.032-1.65-4.14-1.145-1.157-2.485-1.714-4.08-1.664-1.542-.05-2.888.507-3.982 1.665-1.095 1.107-1.694 2.474-1.694 4.139 0 1.565.599 2.927 1.694 4.09 1.094 1.168 2.39 1.714 3.981 1.714Zm0-16.856c2.936 0 5.529 1.064 7.67 3.23 2.091 2.172 3.137 4.79 3.137 7.822s-1.046 5.65-3.137 7.772c-2.141 2.171-4.728 3.28-7.67 3.28-2.941 0-5.48-1.109-7.57-3.28-2.147-2.122-3.187-4.746-3.187-7.772s1.04-5.65 3.186-7.822c2.092-2.166 4.635-3.23 7.571-3.23ZM48.908 29.621l.991-.551v2.116c0 1.814-.496 3.076-1.443 3.782-.997.705-2.043 1.058-3.241 1.058-.747 0-1.346-.204-1.841-.601-.496-.457-.747-1.113-.747-2.072 0-1.059.404-1.82 1.248-2.376.5-.303 1.345-.557 2.44-.706l2.593-.655v.005Zm-2.19-11.856c-3.486-.055-5.926.91-7.326 2.778-.893 1.157-1.34 2.679-1.492 4.597h5.18c.098-.91.397-1.516.746-1.918.55-.711 1.443-1.064 2.74-1.015 1.094-.055 1.939.15 2.538.502.593.303.844.91.899 1.77 0 .705-.398 1.262-1.193 1.614l-3.988.65c-1.84.254-3.333.706-4.482 1.368-1.94 1.157-2.887 3.026-2.838 5.705-.05 1.863.544 3.378 1.737 4.486 1.046.91 2.49 1.411 4.238 1.46 2.838-.049 5.077-.76 6.673-2.17v2.17h5.185V24.319c0-2.524-.904-4.288-2.593-5.197-1.792-.96-3.785-1.417-6.024-1.362v.006Zm-17.437-5.347h5.18v27.35h-5.18v-27.35Zm38.146 6.108c-1.389.556-2.636 1.515-3.682 2.976v-2.673l-4.93-.044v20.994h5.131V29.737c0-1.72.202-2.927.654-3.688.343-.804.991-1.46 1.792-2.017.893-.606 1.841-.91 2.838-.91l1.59.105-.043-5.352-1.346.1-1.998.556-.006-.005Zm28.59 5.346h13.7v4.69h-13.7v-4.69Z" clip-rule="evenodd"/></svg>