<?xml version="1.0" encoding="UTF-8"?>
<svg id="Layer_1" data-name="Layer 1" xmlns="http://www.w3.org/2000/svg" version="1.1" viewBox="0 0 1000 170">
  <defs>
    <style>
      .cls-1 {
        fill: #fff;
      }

      .cls-1, .cls-2 {
        stroke-width: 0px;
      }

      .cls-2 {
        fill: #ef3829;
      }
    </style>
  </defs>
  <g>
    <path class="cls-1" d="M825.9,170c-18,0-25.7-12.8-25.7-25.3v-43.9h-9.4v-16.8h9.4v-26.2h22.1v26.2h15.6v16.8h-15.6v42.5c0,5.1,2.4,8,7.6,8h8v18.7h-12.1Z"/>
    <path class="cls-1" d="M889.6,170h-17.3l-32.6-88.6h23.3l18,54.8,17.9-54.8h23.3l-32.5,88.6Z"/>
    <path class="cls-1" d="M972.8,133.3v27.2h-20.7v-27.2h-27.4v-20.7h27.4v-27.2h20.7v27.2h27.2v20.7h-27.2Z"/>
  </g>
  <g>
    <g>
      <path class="cls-2" d="M682.6,91.3c-9.1-9-20.1-13.5-32.5-13.5s-23.2,4.4-32.1,13.5c-9.1,9.1-13.5,20-13.5,32.6s4.4,23.6,13.5,32.4c8.9,9.1,19.6,13.7,32.1,13.7s23.4-4.6,32.5-13.7c8.9-8.8,13.3-19.8,13.3-32.4s-4.4-23.5-13.3-32.6M667.2,141c-4.6,4.9-10.3,7.1-17.1,7.1s-12.2-2.3-16.9-7.1c-4.6-4.8-7.2-10.5-7.2-17s2.5-12.6,7.2-17.3c4.7-4.8,10.4-7.2,16.9-6.9,6.8-.2,12.5,2.1,17.3,6.9,4.5,4.6,6.8,10.3,7,17.3-.2,6.5-2.5,12.2-7.2,17"/>
      <path class="cls-2" d="M360.6,55.3c-15.8-.2-28.9,5.3-39.9,16.6-11.2,11.1-16.7,24.4-16.7,40.2s5.5,29.2,16.7,40.4c11,10.9,24.1,16.4,39.9,16.4s24.3-3.8,34.4-11.6c9.9-8,16.5-17.9,19.9-30.1h-23c-3,5.9-7.2,10.7-12.5,14.5-5.9,3.6-12,5.5-18.8,5.5-9.7,0-18-3.6-24.7-10.3-7-6.9-10.4-15.1-10.1-24.8-.2-9.7,3.2-17.9,10.1-24.8,6.8-6.7,15-10.3,24.7-10.3s12.9,1.9,18.8,5.7c5.3,3.6,9.5,8.6,12.5,14.5h23c-3.4-12.2-9.9-22.3-19.9-30.1-10.1-8-21.8-12-34.4-11.8"/>
      <path class="cls-2" d="M500.3,77.6c-14.8-.2-25.2,3.8-31.1,11.6-3.8,4.8-5.7,11.2-6.3,19.2h22c.4-3.8,1.7-6.3,3.2-8,2.3-3,6.1-4.4,11.6-4.2,4.6-.2,8.2.6,10.8,2.1,2.5,1.3,3.6,3.8,3.8,7.4,0,2.9-1.7,5.3-5.1,6.7l-16.9,2.7c-7.8,1.1-14.1,3-19,5.7-8.2,4.8-12.2,12.6-12,23.8-.2,7.8,2.3,14.1,7.4,18.7,4.4,3.8,10.6,5.9,18,6.1,12-.2,21.5-3.2,28.3-9.1v9.1h22v-64.4c0-10.5-3.8-17.9-11-21.7-7.6-4-16.1-5.9-25.5-5.7M509.6,127.1l4.2-2.3v8.8c0,7.5-2.1,12.8-6.1,15.8-4.2,2.9-8.7,4.4-13.7,4.4s-5.7-.9-7.8-2.5c-2.1-1.9-3.2-4.7-3.2-8.6s1.7-7.6,5.3-9.9c2.1-1.3,5.7-2.3,10.3-2.9l11-2.7Z"/>
    </g>
    <rect class="cls-2" x="426.1" y="55.3" width="22" height="114"/>
    <path class="cls-2" d="M588.2,80.8c-5.9,2.3-11.2,6.3-15.6,12.4v-11.1l-20.9-.2v87.5h21.8v-41.9c0-7.2.9-12.2,2.8-15.4,1.5-3.4,4.2-6.1,7.6-8.4,3.8-2.5,7.8-3.8,12-3.8l6.7.4-.2-22.3-5.7.4-8.5,2.3Z"/>
    <polygon class="cls-2" points="685 67.3 738 14.5 751.9 28.4 698.9 81.2 685 67.3"/>
    <rect class="cls-2" x="641.9" y="3.6" width="19.6" height="56.6"/>
    <rect class="cls-2" x="709.7" y="103.1" width="58.1" height="19.6"/>
  </g>
  <path class="cls-1" d="M195.1,77.8l23.5,43.6-24.5,46.4h25.6l16.2-31.1h1.4l15.3,31.1h27.6l-24.7-45.9,23.5-44.2h-25.4l-15.5,29.6h-.7l-14.8-29.6h-27.5ZM128.5,122.9c0-17.7,5.5-26.6,16.5-26.6s16.9,8.9,16.9,26.6-5.6,26.4-16.9,26.4-10-2.3-12.6-6.8c-2.6-4.5-3.9-11.1-3.9-19.6ZM145.2,170c9,0,16.9-1.9,23.5-5.8,6.6-3.9,11.6-9.4,15.1-16.4,3.5-7.1,5.2-15.4,5.2-24.9s-1.7-17.8-5.2-24.9c-3.5-7.1-8.5-12.5-15.1-16.4-6.6-3.9-14.4-5.8-23.5-5.8-13.8,0-24.6,4.3-32.3,12.8-7.8,8.5-11.6,20-11.6,34.3s3.9,25.8,11.6,34.3c7.8,8.5,18.5,12.8,32.3,12.8ZM26.8,97.8v-30.8h16.2c5.1,0,9.1,1.3,11.9,3.9,2.8,2.6,4.3,6.4,4.3,11.4s-1.4,8.8-4.2,11.5c-2.8,2.7-6.7,4-11.8,4h-16.3ZM26.8,148.8v-33h18.1c5.6,0,9.9,1.4,13,4.3,3.1,2.8,4.6,6.9,4.6,12.3s-1.5,9.4-4.6,12.3c-3.1,2.8-7.4,4.3-13,4.3h-18.1ZM0,167.9h51.1c11.4,0,20.5-3,27.3-9,6.8-6,10.3-14.3,10.3-24.9s-1.8-13.8-5.5-19c-3.7-5.1-8.8-8.6-15.6-10.4v-1c4.9-2.1,8.8-5.4,11.9-9.9,3.1-4.5,4.6-10.1,4.6-16.7s-3.1-16.3-9.2-21.4c-6.1-5.1-14.5-7.7-25-7.7H0v120Z"/>
</svg>