<?xml version="1.0" encoding="UTF-8"?>
<svg id="Camada_1" data-name="Camada 1" xmlns="http://www.w3.org/2000/svg" xmlns:xlink="http://www.w3.org/1999/xlink" version="1.1" viewBox="0 0 460 52">
  <defs>
    <style>
      .cls-1 {
        clip-path: url(#clippath);
      }

      .cls-2 {
        fill: none;
      }

      .cls-2, .cls-3, .cls-4 {
        stroke-width: 0px;
      }

      .cls-3 {
        fill: #ef3829;
      }

      .cls-5 {
        clip-path: url(#clippath-1);
      }

      .cls-4 {
        fill: #fff;
      }
    </style>
    <clipPath id="clippath">
      <rect class="cls-2" x="150.6" y=".1" width="309.3" height="51.8"/>
    </clipPath>
    <clipPath id="clippath-1">
      <rect class="cls-2" x="150.6" y=".1" width="309.3" height="51.8"/>
    </clipPath>
  </defs>
  <g class="cls-1">
    <g class="cls-5">
      <g>
        <path class="cls-4" d="M406,50.5c-5.6,0-7.9-3.9-7.9-7.8v-13.6h-2.9v-5.2h2.9v-8.1h6.8v8.1h4.8v5.2h-4.8v13.1c0,1.6.7,2.5,2.4,2.5h2.5v5.8h-3.8Z"/>
        <polygon class="cls-4" points="425.8 50.5 420.4 50.5 410.3 23.1 417.5 23.1 423.1 40 428.6 23.1 435.8 23.1 425.8 50.5"/>
        <polygon class="cls-4" points="451.5 39.1 451.5 47.5 445.1 47.5 445.1 39.1 436.6 39.1 436.6 32.7 445.1 32.7 445.1 24.3 451.5 24.3 451.5 32.7 459.9 32.7 459.9 39.1 451.5 39.1"/>
        <path class="cls-3" d="M361.7,27.2c-2.8-2.8-6.2-4.2-10.1-4.2s-7.2,1.4-9.9,4.2c-2.8,2.8-4.2,6.2-4.2,10.1s1.4,7.3,4.2,10c2.7,2.8,6.1,4.2,9.9,4.2s7.2-1.4,10.1-4.2c2.8-2.7,4.1-6.1,4.1-10s-1.4-7.3-4.1-10.1M357,42.6c-1.4,1.5-3.2,2.2-5.3,2.2s-3.8-.7-5.2-2.2-2.2-3.2-2.2-5.3.8-3.9,2.2-5.3c1.4-1.5,3.2-2.2,5.2-2.1,2.1,0,3.8.7,5.3,2.1,1.4,1.4,2.1,3.2,2.2,5.3,0,2-.8,3.8-2.2,5.3"/>
        <path class="cls-3" d="M262.1,16.1c-4.9,0-8.9,1.6-12.3,5.1-3.5,3.5-5.2,7.5-5.2,12.4s1.7,9,5.2,12.5c3.4,3.4,7.4,5.1,12.3,5.1s7.5-1.2,10.7-3.6c3.1-2.5,5.1-5.5,6.1-9.3h-7.1c-.9,1.8-2.2,3.3-3.8,4.5-1.8,1.1-3.7,1.7-5.8,1.7-3,0-5.6-1.1-7.6-3.2-2.2-2.1-3.2-4.7-3.1-7.7,0-3,1-5.5,3.1-7.7,2.1-2.1,4.6-3.2,7.6-3.2s4,.6,5.8,1.8c1.6,1.1,2.9,2.7,3.8,4.5h7.1c-1.1-3.8-3.1-6.9-6.1-9.3-3.1-2.5-6.7-3.7-10.7-3.6"/>
        <path class="cls-3" d="M305.3,23c-4.6,0-7.8,1.2-9.6,3.6-1.2,1.5-1.8,3.5-2,5.9h6.8c.1-1.2.5-2,1-2.5.7-.9,1.9-1.4,3.6-1.3,1.4,0,2.5.2,3.3.6s1.1,1.2,1.2,2.3c0,.9-.5,1.6-1.6,2.1l-5.2.8c-2.4.3-4.4.9-5.9,1.8-2.6,1.5-3.8,3.9-3.7,7.4,0,2.4.7,4.4,2.3,5.8,1.4,1.2,3.3,1.8,5.6,1.9,3.7,0,6.7-1,8.8-2.8v2.8h6.8v-19.9c0-3.2-1.2-5.5-3.4-6.7-2.3-1.2-5-1.8-7.9-1.8M308.2,38.3l1.3-.7v2.7c0,2.3-.7,4-1.9,4.9-1.3.9-2.7,1.4-4.2,1.4s-1.8-.3-2.4-.8c-.7-.6-1-1.4-1-2.7s.5-2.4,1.6-3.1c.7-.4,1.8-.7,3.2-.9l3.4-.9h0Z"/>
        <rect class="cls-3" x="282.4" y="16.1" width="6.8" height="35.3"/>
        <path class="cls-3" d="M332.5,24c-1.8.7-3.5,2-4.8,3.8v-3.5h-6.5v27h6.7v-13c0-2.2.3-3.8.8-4.8s1.3-1.9,2.3-2.6c1.2-.8,2.4-1.2,3.7-1.2h2.1c0,.1,0-6.8,0-6.8h-1.8c0,.1-2.6.9-2.6.9h0v.2Z"/>
        <polygon class="cls-3" points="362.5 19.8 378.8 3.5 383.2 7.8 366.8 24.1 362.5 19.8"/>
        <rect class="cls-3" x="349.1" y=".1" width="6.1" height="17.5"/>
        <rect class="cls-3" x="370.1" y="30.9" width="18" height="6"/>
        <path class="cls-4" d="M210.9,23.4l7.3,13.5-7.6,14.4h7.9l5-9.6h.4l4.7,9.6h8.6l-7.6-14.2,7.3-13.7h-7.8l-4.8,9.1h-.2l-4.6-9.1h-8.6ZM190.4,37.3c0-5.5,1.7-8.2,5.1-8.2s5.2,2.7,5.2,8.2-1.7,8.2-5.2,8.2-3.1-.7-3.9-2.1-1.2-3.4-1.2-6.1M195.5,51.9c2.8,0,5.2-.6,7.3-1.8,2-1.2,3.6-2.9,4.7-5.1,1.1-2.2,1.6-4.8,1.6-7.7s-.5-5.5-1.6-7.7-2.6-3.9-4.7-5.1-4.5-1.8-7.3-1.8c-4.3,0-7.6,1.3-10,4-2.4,2.6-3.6,6.2-3.6,10.6s1.2,8,3.6,10.6,5.7,4,10,4M158.9,29.6v-9.5h5c1.6,0,2.8.4,3.7,1.2s1.3,2,1.3,3.5-.4,2.7-1.3,3.5c-.9.8-2.1,1.2-3.7,1.2h-5.1.1ZM158.9,45.3v-10.2h5.6c1.7,0,3.1.4,4,1.3s1.4,2.1,1.4,3.8-.5,2.9-1.4,3.8c-.9.9-2.3,1.3-4,1.3,0,0-5.6,0-5.6,0ZM150.6,51.3h15.8c3.5,0,6.3-.9,8.4-2.8,2.1-1.9,3.2-4.4,3.2-7.7s-.6-4.3-1.7-5.9c-1.1-1.6-2.7-2.6-4.8-3.2v-.3c1.5-.6,2.7-1.7,3.7-3.1.9-1.4,1.4-3.1,1.4-5.2s-.9-5-2.8-6.6c-1.9-1.6-4.5-2.4-7.7-2.4h-15.4v37.1h0Z"/>
      </g>
    </g>
  </g>
  <path class="cls-4" d="M4.2,17c2.4-1.9,5.7-2.9,9.7-2.9s3.1.1,4.7.4,3.1.6,4.4,1.1v6.8c-1.7-.5-3.4-.9-5.2-1.2s-3.3-.5-4.5-.5-2.6.3-3.4.9-1.2,1.5-1.2,2.7.3,1.9,1,2.5,1.8,1.2,3.3,1.8l4,1.5c5.3,2,8,5.4,8,10.2s-.6,4.2-1.6,5.9-2.7,2.9-4.7,3.8-4.3,1.3-7,1.3-4.1-.2-6.2-.7c-2.2-.5-4-1-5.4-1.8v-7.2c1.8.9,3.8,1.6,6,2.2,2.2.6,4.1.8,5.8.8s2.7-.3,3.5-.9c.9-.6,1.3-1.5,1.3-2.7s-.4-1.9-1.1-2.6-1.9-1.3-3.6-1.9l-3.5-1.3c-2.6-.9-4.6-2.2-6-3.8-1.4-1.6-2.1-3.7-2.1-6.3s1.2-6.2,3.7-8.1h0Z"/>
  <path class="cls-4" d="M32.3,47.5c-2.3-2.5-3.5-6-3.5-10.3s1.2-7.7,3.5-10.3c2.3-2.5,5.6-3.8,9.7-3.8s5.1.6,7,1.7,3.5,2.8,4.5,4.9,1.6,4.6,1.6,7.5-.5,5.3-1.6,7.5-2.6,3.8-4.5,4.9-4.3,1.8-7,1.8c-4.1,0-7.4-1.3-9.7-3.8h0ZM38.2,43.1c.8,1.4,2,2,3.8,2,3.4,0,5.1-2.6,5.1-7.9s-1.7-8-5.1-8-4.9,2.7-4.9,8,.4,4.5,1.2,5.9h0Z"/>
  <path class="cls-4" d="M76.9,50.7l-.6-3.3h-.5c-1,1.1-2.2,2.1-3.6,2.8s-2.9,1.1-4.4,1.1c-2.3,0-4.1-.8-5.5-2.3s-2.1-3.5-2.1-5.9v-19.4h8.1v16.9c0,1.2.3,2.1.9,2.7s1.4,1,2.4,1,2.6-.5,4-1.5v-19.1h8.1v19.5l.9,7.5s-7.7,0-7.7,0Z"/>
  <path class="cls-4" d="M97.6,23.7l.6,3.3h.5c1-1.1,2.2-2.1,3.7-2.8,1.4-.7,3-1.1,4.6-1.1,2.4,0,4.2.8,5.7,2.3s2.1,3.5,2.1,5.9v19.4h-8.1v-16.9c0-1.1-.3-2-.9-2.7-.6-.6-1.5-1-2.6-1s-2.8.5-4.2,1.6v19h-8.1v-19.6l-.9-7.4h7.7,0Z"/>
  <path class="cls-4" d="M138.6,50.7l-.6-3.5h-.5c-1.9,2.7-4.4,4.1-7.5,4.1s-3.7-.5-5.2-1.6-2.7-2.6-3.6-4.6-1.3-4.5-1.3-7.3.6-5.9,1.7-8.1c1.2-2.2,2.7-3.9,4.6-5,1.9-1.1,4.1-1.6,6.4-1.6s3.3.3,4.7.9v-11.4h8.1v30.6l.9,7.5h-7.7,0ZM129.3,43.2c.8,1.3,2,2,3.5,2s2.5-.5,3.3-1.5,1.2-2.3,1.2-4v-9.5c-1.5-.6-2.8-.8-3.9-.8-3.6,0-5.4,2.7-5.4,8s.4,4.6,1.2,5.9h0Z"/>
</svg>