<svg width="522" height="125" viewBox="0 0 522 125" fill="none" xmlns="http://www.w3.org/2000/svg">
<path fill-rule="evenodd" clip-rule="evenodd" d="M319.575 46.5134L315.399 47.6639C312.491 48.8125 309.887 50.7963 307.692 53.8138V48.2849L297.382 48.1876V91.5989H308.109V70.8326C308.109 67.2797 308.531 64.78 309.471 63.209C310.193 61.5464 311.547 60.1876 313.22 59.0409C315.09 57.7833 317.067 57.1545 319.157 57.1545L322.484 57.3706L322.384 46.3012L319.575 46.5134ZM235.626 91.6213H246.457V35.0633H235.626V91.6213ZM278.743 69.5743L276.663 70.7113L271.246 72.0682C268.952 72.3836 267.186 72.9053 266.141 73.5302C264.378 74.6788 263.538 76.2518 263.538 78.44C263.538 80.4218 264.067 81.7729 265.102 82.719C266.141 83.5445 267.394 83.965 268.952 83.965C271.455 83.965 273.64 83.233 275.725 81.7729C277.7 80.3128 278.743 77.7022 278.743 73.9527V69.5743ZM290.103 59.7659V91.7029H279.262V87.2117C275.927 90.1338 271.246 91.5959 265.313 91.7029C261.659 91.5959 258.643 90.5582 256.455 88.6757C253.96 86.3804 252.713 83.2422 252.814 79.3934C252.713 73.8529 254.686 69.9963 258.745 67.5959C261.148 66.2332 264.267 65.3007 268.117 64.7731L276.452 63.424C278.114 62.6959 278.951 61.5375 278.951 60.0833C278.844 58.3097 278.324 57.0541 277.077 56.4292C275.83 55.6952 274.059 55.2728 271.773 55.3837C269.059 55.2728 267.185 56.0106 266.041 57.4785C265.313 58.3097 264.683 59.5635 264.481 61.4421H253.645C253.96 57.4785 254.9 54.3383 256.77 51.9418C259.684 48.0813 264.788 46.0937 272.08 46.2027C276.766 46.0937 280.928 47.0398 284.677 49.0216C288.216 50.9003 290.103 54.5466 290.103 59.7659ZM203.339 46.0554C206.676 46.0554 209.696 46.9918 212.61 48.8744C215.218 50.6498 217.3 53.1514 218.757 56.0716H230.108C228.443 50.021 225.213 45.008 220.315 41.1553C215.325 37.1859 209.595 35.204 203.339 35.3072C195.535 35.204 189.07 37.9159 183.659 43.548C178.141 49.0807 175.436 55.6511 175.436 63.4791C175.436 71.1981 178.141 77.9905 183.659 83.5155C189.07 88.9372 195.535 91.6569 203.339 91.6569C209.595 91.6569 215.325 89.7744 220.315 85.9119C225.213 81.9463 228.443 77.0463 230.108 70.9937H218.757C217.3 73.9178 215.218 76.3085 212.61 78.191C209.696 79.9723 206.676 80.9087 203.339 80.9087C198.553 80.9087 194.494 79.1332 191.155 75.7867C187.727 72.3467 186.056 68.2877 186.159 63.4791C186.056 58.6842 187.727 54.6096 191.155 51.1716C194.494 47.8309 198.553 46.0554 203.339 46.0554ZM357.897 68.7739C357.788 65.3339 356.644 62.5091 354.451 60.2178C352.06 57.8232 349.251 56.6688 345.918 56.7759C342.692 56.6688 339.878 57.8232 337.588 60.2178C335.294 62.5091 334.043 65.3339 334.043 68.7739C334.043 72.0075 335.294 74.8265 337.588 77.2288C339.878 79.635 342.692 80.77 345.918 80.77C349.251 80.77 352.06 79.635 354.35 77.2288C356.644 74.8265 357.788 72.0075 357.897 68.7739ZM361.955 52.6018C366.329 57.0931 368.518 62.509 368.518 68.7738C368.518 75.0347 366.329 80.4584 361.955 84.8426C357.478 89.3338 352.061 91.6232 345.919 91.6232C339.774 91.6232 334.457 89.3338 330.09 84.8426C325.604 80.4584 323.423 75.0347 323.423 68.7738C323.423 62.509 325.604 57.0931 330.09 52.6018C334.457 48.1184 339.774 45.9185 345.919 45.9185C352.061 45.9185 357.478 48.1184 361.955 52.6018ZM375.627 69.3714H404.919V59.6686H375.627V69.3714ZM396.547 21.3947L370.395 47.5887L363.525 40.699L389.669 14.5128L396.547 21.3947ZM352.043 38.3657V9.07324L342.34 9.07324V38.3657H352.043Z" fill="white"/>
<path d="M438.594 91.3566V81.9832H434.589C431.948 81.9832 430.755 80.5346 430.755 77.9782V56.675H438.594V48.239H430.755V35.1162H419.677V48.239H414.99V56.675H419.677V78.6599C419.677 84.9657 423.512 91.3566 432.544 91.3566H438.594Z" fill="white"/>
<path d="M481.398 46.9608H469.723L460.776 74.3993L451.744 46.9608H440.069L456.43 91.3566H465.122L481.398 46.9608Z" fill="white"/>
<path d="M521.099 72.9507V62.5547H507.465V48.9207H497.069V62.5547H483.35V72.9507H497.069V86.5847H507.465V72.9507H521.099Z" fill="white"/>
<path d="M29.2544 41.2606L13.2637 90H0.382274L22.2282 31.2058H30.4254L29.2544 41.2606ZM42.5396 90L26.5085 41.2606L25.2163 31.2058H33.4944L55.4614 90H42.5396ZM41.8128 68.1137V77.6032H10.7601V68.1137H41.8128ZM70.5234 54.7073V106.798H58.8938V46.3082H69.6754L70.5234 54.7073ZM98.1841 67.6695V68.5175C98.1841 71.6941 97.8072 74.6419 97.0535 77.3609C96.3266 80.0798 95.2498 82.4488 93.823 84.4679C92.3962 86.46 90.6195 88.0214 88.4928 89.152C86.393 90.2557 83.9701 90.8076 81.2243 90.8076C78.5591 90.8076 76.244 90.2692 74.2788 89.1924C72.3136 88.1156 70.658 86.608 69.312 84.6698C67.9929 82.7046 66.9295 80.4298 66.1219 77.8454C65.3143 75.2611 64.6951 72.4883 64.2644 69.527V67.3061C64.6951 64.1295 65.3143 61.2221 66.1219 58.5839C66.9295 55.9188 67.9929 53.6171 69.312 51.6788C70.658 49.7136 72.3001 48.1926 74.2384 47.1158C76.2036 46.039 78.5053 45.5006 81.1435 45.5006C83.9163 45.5006 86.3526 46.0255 88.4524 47.0754C90.5791 48.1253 92.3558 49.6329 93.7826 51.598C95.2363 53.5632 96.3266 55.9053 97.0535 58.6243C97.8072 61.3432 98.1841 64.3583 98.1841 67.6695ZM86.5141 68.5175V67.6695C86.5141 65.812 86.3526 64.1026 86.0295 62.5412C85.7334 60.9529 85.2489 59.5665 84.5758 58.382C83.9298 57.1975 83.0683 56.2822 81.9915 55.6361C80.9416 54.9631 79.6629 54.6266 78.1553 54.6266C76.567 54.6266 75.2075 54.8823 74.0769 55.3938C72.9731 55.9053 72.0713 56.6456 71.3714 57.6148C70.6715 58.5839 70.1465 59.7415 69.7965 61.0875C69.4466 62.4335 69.2312 63.9545 69.1504 65.6505V71.2634C69.2851 73.2555 69.6619 75.0457 70.2811 76.634C70.9003 78.1954 71.856 79.4337 73.1481 80.349C74.4403 81.2643 76.1363 81.722 78.2361 81.722C79.7705 81.722 81.0627 81.3855 82.1126 80.7125C83.1625 80.0125 84.0105 79.0569 84.6566 77.8454C85.3296 76.634 85.8007 75.2342 86.0699 73.6459C86.366 72.0575 86.5141 70.3481 86.5141 68.5175ZM117.042 54.7073V106.798H105.412V46.3082H116.194L117.042 54.7073ZM144.703 67.6695V68.5175C144.703 71.6941 144.326 74.6419 143.572 77.3609C142.845 80.0798 141.768 82.4488 140.341 84.4679C138.915 86.46 137.138 88.0214 135.011 89.152C132.911 90.2557 130.489 90.8076 127.743 90.8076C125.078 90.8076 122.762 90.2692 120.797 89.1924C118.832 88.1156 117.176 86.608 115.83 84.6698C114.511 82.7046 113.448 80.4298 112.64 77.8454C111.833 75.2611 111.214 72.4883 110.783 69.527V67.3061C111.214 64.1295 111.833 61.2221 112.64 58.5839C113.448 55.9188 114.511 53.6171 115.83 51.6788C117.176 49.7136 118.819 48.1926 120.757 47.1158C122.722 46.039 125.024 45.5006 127.662 45.5006C130.435 45.5006 132.871 46.0255 134.971 47.0754C137.098 48.1253 138.874 49.6329 140.301 51.598C141.755 53.5632 142.845 55.9053 143.572 58.6243C144.326 61.3432 144.703 64.3583 144.703 67.6695ZM133.033 68.5175V67.6695C133.033 65.812 132.871 64.1026 132.548 62.5412C132.252 60.9529 131.767 59.5665 131.094 58.382C130.448 57.1975 129.587 56.2822 128.51 55.6361C127.46 54.9631 126.181 54.6266 124.674 54.6266C123.085 54.6266 121.726 54.8823 120.595 55.3938C119.492 55.9053 118.59 56.6456 117.89 57.6148C117.19 58.5839 116.665 59.7415 116.315 61.0875C115.965 62.4335 115.75 63.9545 115.669 65.6505V71.2634C115.804 73.2555 116.18 75.0457 116.8 76.634C117.419 78.1954 118.374 79.4337 119.667 80.349C120.959 81.2643 122.655 81.722 124.755 81.722C126.289 81.722 127.581 81.3855 128.631 80.7125C129.681 80.0125 130.529 79.0569 131.175 77.8454C131.848 76.634 132.319 75.2342 132.588 73.6459C132.885 72.0575 133.033 70.3481 133.033 68.5175Z" fill="white"/>
</svg>
