<svg width="408" height="67" viewBox="0 0 408 67" fill="none" xmlns="http://www.w3.org/2000/svg">
<path d="M37.28 25.81L43.474 43.442H43.626L49.82 25.81H51.302L44.614 45H42.486L35.76 25.81H37.28ZM67.3932 44.088C65.6452 45 63.8339 45.456 61.9592 45.456C59.4006 45.456 57.4499 44.544 56.1072 42.72C54.7646 40.896 54.0932 38.426 54.0932 35.31C54.0932 32.2193 54.7266 29.7873 55.9932 28.014C57.2852 26.2407 59.1092 25.354 61.4652 25.354C63.7199 25.354 65.4679 26.19 66.7092 27.862C67.9506 29.534 68.5712 31.9153 68.5712 35.006C68.5712 35.3607 68.5586 35.652 68.5332 35.88H55.6512C55.7019 38.4133 56.2466 40.4273 57.2852 41.922C58.3492 43.3913 59.9452 44.126 62.0732 44.126C62.9092 44.126 63.7959 44.012 64.7332 43.784C65.6706 43.5307 66.5572 43.1633 67.3932 42.682V44.088ZM67.0512 34.512C67.0512 32.156 66.5826 30.2687 65.6452 28.85C64.7332 27.406 63.3272 26.684 61.4272 26.684C59.2992 26.684 57.8172 27.4947 56.9812 29.116C56.1706 30.712 55.7272 32.5107 55.6512 34.512H67.0512ZM75.6339 25.81L76.1279 28.204H76.5079C77.3185 27.368 78.2432 26.684 79.2819 26.152C80.3459 25.62 81.4732 25.354 82.6639 25.354C83.8292 25.354 84.8299 25.62 85.6659 26.152C86.5019 26.684 87.1352 27.444 87.5659 28.432H87.8699C88.7312 27.52 89.7065 26.7853 90.7959 26.228C91.9105 25.6453 93.0885 25.354 94.3299 25.354C95.9765 25.354 97.2939 25.886 98.2819 26.95C99.2699 27.9887 99.7639 29.458 99.7639 31.358V45H98.2439V31.548C98.2439 30.0027 97.8639 28.812 97.1039 27.976C96.3692 27.1147 95.3179 26.684 93.9499 26.684C92.7845 26.684 91.6825 26.9753 90.6439 27.558C89.6052 28.1407 88.7185 28.9133 87.9839 29.876C88.0599 30.332 88.0979 30.826 88.0979 31.358V45H86.5779V31.548C86.5779 30.0027 86.1979 28.812 85.4379 27.976C84.7032 27.1147 83.6519 26.684 82.2839 26.684C81.1439 26.684 80.0672 26.9627 79.0539 27.52C78.0659 28.0773 77.1919 28.812 76.4319 29.724V45H74.9119V29.61L74.1899 25.81H75.6339ZM125.062 27.52C124.53 27.2667 123.896 27.064 123.162 26.912C122.452 26.76 121.781 26.684 121.148 26.684C119.096 26.684 117.538 27.4693 116.474 29.04C115.435 30.5853 114.916 32.7133 114.916 35.424C114.916 38.1347 115.448 40.2627 116.512 41.808C117.576 43.3533 119.172 44.126 121.3 44.126C122.592 44.126 123.846 43.7967 125.062 43.138V44.544C123.846 45.152 122.541 45.456 121.148 45.456C118.614 45.456 116.676 44.5567 115.334 42.758C113.991 40.934 113.32 38.4767 113.32 35.386C113.32 32.2953 113.991 29.8507 115.334 28.052C116.676 26.2533 118.652 25.354 121.262 25.354C122.528 25.354 123.795 25.5947 125.062 26.076V27.52ZM136.993 45.456C134.46 45.456 132.522 44.5567 131.179 42.758C129.837 40.934 129.165 38.4893 129.165 35.424C129.165 32.3587 129.837 29.914 131.179 28.09C132.522 26.266 134.46 25.354 136.993 25.354C139.527 25.354 141.465 26.266 142.807 28.09C144.15 29.914 144.821 32.3587 144.821 35.424C144.821 38.4893 144.15 40.934 142.807 42.758C141.465 44.5567 139.527 45.456 136.993 45.456ZM130.723 35.424C130.723 38.1093 131.243 40.2373 132.281 41.808C133.32 43.3533 134.891 44.126 136.993 44.126C139.096 44.126 140.667 43.3533 141.705 41.808C142.744 40.2373 143.263 38.1093 143.263 35.424C143.263 32.7133 142.744 30.5853 141.705 29.04C140.667 27.4693 139.096 26.684 136.993 26.684C134.891 26.684 133.32 27.4693 132.281 29.04C131.243 30.5853 130.723 32.7133 130.723 35.424ZM151.931 25.81L152.425 28.204H152.805C153.615 27.368 154.54 26.684 155.579 26.152C156.643 25.62 157.77 25.354 158.961 25.354C160.126 25.354 161.127 25.62 161.963 26.152C162.799 26.684 163.432 27.444 163.863 28.432H164.167C165.028 27.52 166.003 26.7853 167.093 26.228C168.207 25.6453 169.385 25.354 170.627 25.354C172.273 25.354 173.591 25.886 174.579 26.95C175.567 27.9887 176.061 29.458 176.061 31.358V45H174.541V31.548C174.541 30.0027 174.161 28.812 173.401 27.976C172.666 27.1147 171.615 26.684 170.247 26.684C169.081 26.684 167.979 26.9753 166.941 27.558C165.902 28.1407 165.015 28.9133 164.281 29.876C164.357 30.332 164.395 30.826 164.395 31.358V45H162.875V31.548C162.875 30.0027 162.495 28.812 161.735 27.976C161 27.1147 159.949 26.684 158.581 26.684C157.441 26.684 156.364 26.9627 155.351 27.52C154.363 28.0773 153.489 28.812 152.729 29.724V45H151.209V29.61L150.487 25.81H151.931Z" fill="white"/>
<path d="M206.048 53.4362C203.137 53.5121 200.28 52.6355 197.912 50.9397C197.099 50.271 196.943 49.7583 197.388 48.9447C197.7 48.3651 197.979 47.7633 198.269 47.1949C198.782 46.1695 199.272 45.9912 200.286 46.593C202.156 47.7693 204.33 48.37 206.539 48.3205C210.116 48.2091 211.465 45.98 211.398 42.9373C210.746 43.6086 209.956 44.129 209.082 44.4621C208.208 44.7952 207.271 44.9329 206.338 44.8655C204.336 44.8377 202.391 44.1958 200.765 43.0265C199.319 41.9946 198.201 40.5686 197.543 38.9185C196.885 37.2685 196.715 35.464 197.054 33.7202C197.258 31.7881 198.045 29.964 199.312 28.4907C200.578 27.0173 202.263 25.9646 204.142 25.4726C205.478 25.0433 206.908 25.0007 208.267 25.3498C209.626 25.6989 210.858 26.4254 211.822 27.4454C211.822 26.5649 211.888 26.0076 212.256 25.7178C212.818 25.4769 213.432 25.3848 214.039 25.4503C216.893 25.4503 216.826 25.3389 216.804 27.3116C216.804 31.4131 216.804 37.3424 216.804 41.3881C216.804 46.7267 215.121 53.4362 206.048 53.4362ZM211.621 35.1913C211.67 34.5457 211.585 33.8969 211.373 33.2854C211.16 32.6739 210.823 32.1127 210.384 31.6369C209.945 31.1612 209.413 30.7809 208.82 30.52C208.227 30.2591 207.587 30.123 206.94 30.1202C206.278 30.0882 205.617 30.1974 205 30.4407C204.384 30.684 203.826 31.0557 203.364 31.5312C202.902 32.0067 202.547 32.575 202.322 33.1984C202.097 33.8218 202.007 34.486 202.058 35.1468C202.058 38.4123 204.12 40.2513 206.918 40.2736C207.568 40.276 208.211 40.143 208.807 39.8831C209.402 39.6232 209.938 39.242 210.378 38.7639C210.818 38.2858 211.154 37.7212 211.364 37.1061C211.575 36.4911 211.654 35.839 211.599 35.1913H211.621Z" fill="url(#paint0_linear_8321_921)"/>
<path d="M344.663 52.043C343.983 51.6863 344.183 50.9284 344.507 50.36C344.618 50.1371 344.752 49.9142 344.886 49.6913C345.799 47.9192 345.799 47.8969 347.683 48.3427C348.204 48.5222 348.772 48.5083 349.283 48.3037C349.795 48.0991 350.216 47.7174 350.469 47.2282C351.072 46.2781 351.594 45.2789 352.03 44.2413C352.03 44.2413 346.925 32.6056 344.596 27.2558C343.938 25.7512 344.005 25.662 345.621 25.662C346.658 25.662 347.683 25.662 348.72 25.662C349.028 25.6208 349.341 25.6963 349.596 25.8736C349.852 26.0509 350.032 26.3173 350.102 26.6205C351.472 30.1202 354.448 37.7658 354.448 37.7658C355.017 36.1052 355.663 34.4222 356.198 32.9065C356.922 30.8223 357.703 28.7604 358.427 26.654C358.489 26.3112 358.685 26.0073 358.972 25.8088C359.258 25.6103 359.611 25.5334 359.954 25.5952C360.901 25.662 361.86 25.5952 362.829 25.5952C364.145 25.5952 364.368 25.9518 363.877 27.1666C362.763 30.1202 361.525 33.0848 360.333 36.0829C358.862 39.7386 356.989 44.1967 355.54 47.8301C354.627 50.0591 352.442 53.3135 348.853 53.3135C347.351 53.3933 345.868 52.9437 344.663 52.043Z" fill="url(#paint1_linear_8321_921)"/>
<path d="M254.252 27.1889C255.631 25.9038 257.438 25.1769 259.323 25.1493C260.744 25.1519 262.146 25.4832 263.418 26.1174C264.691 26.7516 265.799 27.6714 266.657 28.805C269.409 32.1486 269.432 38.7243 266.389 42.0233C265.651 42.9418 264.732 43.6999 263.69 44.2511C262.649 44.8023 261.505 45.1351 260.33 45.229C259.156 45.3229 257.974 45.176 256.858 44.7972C255.742 44.4185 254.715 43.8159 253.839 43.0264C253.706 42.915 253.839 44.141 253.572 44.4865C253.249 45.1106 249.493 45.066 249.114 44.4865C248.965 44.1978 248.896 43.8746 248.913 43.5503C248.913 35.3696 248.913 26.9437 248.913 18.7631C248.913 17.7711 249.348 17.3699 250.306 17.3922C251.265 17.4145 251.922 17.4591 252.747 17.3922C253.862 17.3922 254.163 17.8603 254.163 18.8522C254.185 21.2485 254.23 27.0998 254.252 27.1889ZM258.821 30.1424C256.158 30.1424 254.118 32.1152 254.051 35.1913C254.002 35.8447 254.088 36.5012 254.303 37.12C254.518 37.7389 254.859 38.3069 255.303 38.7888C255.747 39.2707 256.285 39.6563 256.884 39.9215C257.483 40.1867 258.13 40.3259 258.786 40.3305C259.441 40.3351 260.09 40.2049 260.693 39.9482C261.296 39.6914 261.839 39.3135 262.29 38.8378C262.741 38.3622 263.089 37.799 263.313 37.1832C263.537 36.5674 263.632 35.9122 263.592 35.2581C263.643 34.6025 263.557 33.9435 263.34 33.3228C263.123 32.702 262.779 32.1332 262.33 31.6522C261.882 31.1713 261.339 30.7888 260.734 30.5289C260.13 30.269 259.479 30.1374 258.821 30.1424Z" fill="url(#paint2_linear_8321_921)"/>
<path d="M298.265 43.1936C298.265 45.9465 298.265 48.4765 298.265 50.9953C298.265 52.8566 298.265 52.8566 296.336 52.8566C295.668 52.8566 294.999 52.8566 294.341 52.8566C293.472 52.8566 293.227 52.4554 293.227 51.6529V26.7877C293.227 25.9741 293.539 25.5506 294.408 25.6732C294.954 25.6732 295.957 25.6732 296.515 25.6732C298.042 25.6732 297.952 26.119 297.952 27.579C303.291 22.5079 311.171 26.3196 312.586 32.8173C313.164 35.0438 312.969 37.4002 312.033 39.5015C311.098 41.6029 309.478 43.3249 307.437 44.3862C306.194 45.0566 304.79 45.3707 303.38 45.294C301.97 45.2173 300.609 44.7528 299.446 43.9515C299.078 43.7509 298.8 43.528 298.265 43.1936ZM298.175 35.169C298.135 35.826 298.227 36.4845 298.448 37.1046C298.669 37.7247 299.013 38.2937 299.46 38.777C299.907 39.2604 300.447 39.6481 301.048 39.9168C301.649 40.1855 302.299 40.3296 302.957 40.3404C303.619 40.3501 304.275 40.2217 304.885 39.9633C305.494 39.7049 306.043 39.3223 306.496 38.8398C306.949 38.3573 307.296 37.7856 307.516 37.1612C307.736 36.5368 307.823 35.8735 307.772 35.2136C307.772 32.3381 306.2 30.2539 303.18 30.1424C302.511 30.1051 301.842 30.2096 301.216 30.4493C300.59 30.689 300.023 31.0584 299.55 31.5331C299.077 32.0079 298.71 32.5773 298.474 33.204C298.237 33.8306 298.135 34.5003 298.175 35.169Z" fill="url(#paint3_linear_8321_921)"/>
<path d="M337.485 27.4119C337.73 25.6175 337.485 25.5952 339.458 25.6175C340.06 25.6175 340.572 25.6175 341.23 25.6175C342.222 25.506 342.534 26.0633 342.534 26.9215V43.5503C342.534 44.4865 342.133 44.9992 341.118 44.91C340.606 44.91 340.071 44.91 339.569 44.91C337.797 44.91 337.44 44.91 337.44 42.9596C336.792 43.6786 336.002 44.2558 335.119 44.6547C334.237 45.0536 333.282 45.2658 332.314 45.2778C331.25 45.3428 330.184 45.1938 329.179 44.8397C328.174 44.4855 327.25 43.9334 326.462 43.2159C325.226 42.1837 324.247 40.8781 323.601 39.4023C322.956 37.9265 322.663 36.3209 322.746 34.7124C322.828 33.1038 323.283 31.5365 324.075 30.134C324.867 28.7316 325.974 27.5326 327.309 26.6317C328.679 25.6639 330.323 25.1629 331.999 25.2031C333.676 25.2432 335.294 25.8223 336.616 26.8546L337.485 27.4119ZM327.945 35.2136C327.945 38.234 329.94 40.4742 332.67 40.4073C333.332 40.4061 333.986 40.2685 334.592 40.0032C335.198 39.7379 335.743 39.3505 336.193 38.8653C336.642 38.38 336.987 37.8073 337.206 37.1829C337.424 36.5584 337.512 35.8957 337.463 35.2359C337.493 34.5795 337.39 33.9238 337.161 33.308C336.932 32.6921 336.582 32.1286 336.13 31.6512C335.679 31.1737 335.136 30.7921 334.534 30.5291C333.932 30.2661 333.283 30.127 332.626 30.1202C331.984 30.1372 331.353 30.2822 330.769 30.5466C330.185 30.811 329.659 31.1894 329.223 31.6597C328.787 32.1301 328.449 32.6828 328.23 33.2854C328.01 33.888 327.913 34.5284 327.945 35.169V35.2136Z" fill="url(#paint4_linear_8321_921)"/>
<path d="M246.695 35.169C246.726 36.5042 246.489 37.8319 245.996 39.0734C245.504 40.3149 244.767 41.4447 243.83 42.3958C242.892 43.3469 241.773 44.0998 240.539 44.6097C239.304 45.1197 237.98 45.3763 236.645 45.3644C235.309 45.3524 233.99 45.0721 232.765 44.5401C231.54 44.0082 230.434 43.2353 229.514 42.2676C228.594 41.2999 227.877 40.157 227.407 38.907C226.937 37.6569 226.723 36.3251 226.778 34.9907C226.814 32.3607 227.889 29.8517 229.768 28.0118C231.648 26.1719 234.179 25.1508 236.809 25.1717C238.119 25.1641 239.417 25.4183 240.627 25.9194C241.837 26.4205 242.935 27.1584 243.856 28.0898C244.777 29.0211 245.503 30.1271 245.99 31.3428C246.478 32.5585 246.717 33.8594 246.695 35.169ZM241.49 35.3919C241.533 34.7483 241.446 34.1027 241.235 33.4931C241.024 32.8835 240.693 32.3222 240.262 31.8424C239.831 31.3625 239.308 30.9737 238.725 30.6988C238.141 30.4239 237.509 30.2685 236.864 30.2417C236.22 30.215 235.576 30.3174 234.972 30.543C234.368 30.7685 233.815 31.1127 233.345 31.5552C232.876 31.9977 232.5 32.5296 232.239 33.1196C231.979 33.7096 231.838 34.3457 231.827 34.9907C231.777 35.6638 231.863 36.3401 232.079 36.9796C232.295 37.619 232.637 38.2087 233.085 38.7137C233.533 39.2187 234.077 39.6288 234.686 39.9197C235.295 40.2106 235.957 40.3764 236.631 40.4073C237.281 40.4016 237.923 40.2668 238.52 40.0108C239.117 39.7547 239.657 39.3826 240.11 38.916C240.562 38.4493 240.917 37.8975 241.154 37.2925C241.391 36.6875 241.505 36.0415 241.49 35.3919Z" fill="url(#paint5_linear_8321_921)"/>
<path d="M270.836 35.1467C270.874 32.516 271.956 30.0082 273.844 28.1752C275.731 26.3421 278.269 25.3339 280.9 25.3723C283.531 25.4107 286.039 26.4927 287.872 28.3801C289.705 30.2675 290.713 32.8058 290.675 35.4365C290.656 36.7391 290.38 38.0253 289.864 39.2215C289.348 40.4176 288.601 41.5005 287.667 42.4081C286.732 43.3158 285.628 44.0304 284.417 44.5113C283.207 44.9923 281.913 45.23 280.61 45.211C277.98 45.1725 275.472 44.0906 273.639 42.2032C271.806 40.3158 270.798 37.7775 270.836 35.1467ZM285.559 35.1467C285.595 34.4789 285.492 33.8109 285.254 33.1855C285.017 32.5602 284.651 31.9915 284.181 31.516C283.711 31.0404 283.146 30.6686 282.524 30.4243C281.901 30.1801 281.234 30.0689 280.566 30.0979C279.89 30.1258 279.227 30.2925 278.619 30.5877C278.011 30.8828 277.469 31.3 277.029 31.8134C276.589 32.3267 276.259 32.9252 276.061 33.5716C275.862 34.2179 275.798 34.8983 275.874 35.5703C275.911 36.8702 276.456 38.1037 277.391 39.0075C278.326 39.9113 279.577 40.4137 280.878 40.4073C281.533 40.3822 282.176 40.2253 282.77 39.9461C283.363 39.6668 283.894 39.271 284.331 38.7821C284.767 38.2932 285.101 37.7213 285.312 37.1006C285.523 36.4798 285.607 35.8229 285.559 35.169V35.1467Z" fill="url(#paint6_linear_8321_921)"/>
<path d="M320.388 31.2682C320.388 35.3697 320.388 39.4934 320.388 43.5949C320.388 44.5534 320.031 44.9323 319.106 44.8878C318.293 44.8432 317.479 44.8432 316.666 44.8878C315.551 44.9546 315.206 44.4419 315.206 43.4389V19.2312C315.206 17.8381 315.395 17.6375 316.777 17.6152C317.546 17.6152 318.326 17.6152 319.106 17.6152C320.054 17.6152 320.388 17.9941 320.388 18.9192C320.366 23.0429 320.388 27.1667 320.388 31.2682Z" fill="url(#paint7_linear_8321_921)"/>
<path d="M219.311 31.2459V18.5848C219.311 17.0802 219.913 16.5675 221.774 17.3922C223.925 18.3284 224.483 18.5068 224.483 20.3012C224.483 27.1444 224.483 34.7901 224.416 41.8228C224.416 43.1936 224.483 43.7955 222.789 44.5534C222.443 44.7094 221.752 45.066 221.239 45.2555C220.225 45.679 219.289 45.2555 219.311 43.7732C219.311 40.8085 219.311 37.8327 219.311 34.8569C219.289 33.7201 219.289 32.4718 219.311 31.2459Z" fill="url(#paint8_linear_8321_921)"/>
<rect x="1" y="1" width="406" height="65" rx="32.5" stroke="white" stroke-width="2"/>
<defs>
<linearGradient id="paint0_linear_8321_921" x1="199.339" y1="39.2817" x2="359.151" y2="39.2817" gradientUnits="userSpaceOnUse">
<stop offset="0.12" stop-color="#FE012F"/>
<stop offset="0.95" stop-color="#FE8E04"/>
</linearGradient>
<linearGradient id="paint1_linear_8321_921" x1="199.473" y1="39.4599" x2="359.464" y2="39.4599" gradientUnits="userSpaceOnUse">
<stop offset="0.12" stop-color="#FE012F"/>
<stop offset="0.95" stop-color="#FE8E04"/>
</linearGradient>
<linearGradient id="paint2_linear_8321_921" x1="200.008" y1="31.3016" x2="358.505" y2="31.3016" gradientUnits="userSpaceOnUse">
<stop offset="0.12" stop-color="#FE012F"/>
<stop offset="0.95" stop-color="#FE8E04"/>
</linearGradient>
<linearGradient id="paint3_linear_8321_921" x1="199.907" y1="39.0141" x2="359.129" y2="39.0141" gradientUnits="userSpaceOnUse">
<stop offset="0.12" stop-color="#FE012F"/>
<stop offset="0.95" stop-color="#FE8E04"/>
</linearGradient>
<linearGradient id="paint4_linear_8321_921" x1="199.941" y1="35.2359" x2="359.185" y2="35.2359" gradientUnits="userSpaceOnUse">
<stop offset="0.12" stop-color="#FE012F"/>
<stop offset="0.95" stop-color="#FE8E04"/>
</linearGradient>
<linearGradient id="paint5_linear_8321_921" x1="199.35" y1="35.2247" x2="359.363" y2="35.2247" gradientUnits="userSpaceOnUse">
<stop offset="0.12" stop-color="#FE012F"/>
<stop offset="0.95" stop-color="#FE8E04"/>
</linearGradient>
<linearGradient id="paint6_linear_8321_921" x1="199.35" y1="35.2025" x2="359.363" y2="35.2025" gradientUnits="userSpaceOnUse">
<stop offset="0.12" stop-color="#FE012F"/>
<stop offset="0.95" stop-color="#FE8E04"/>
</linearGradient>
<linearGradient id="paint7_linear_8321_921" x1="205.402" y1="31.2459" x2="357.301" y2="31.2459" gradientUnits="userSpaceOnUse">
<stop offset="0.12" stop-color="#FE012F"/>
<stop offset="0.95" stop-color="#FE8E04"/>
</linearGradient>
<linearGradient id="paint8_linear_8321_921" x1="200.164" y1="31.2013" x2="354.95" y2="31.2013" gradientUnits="userSpaceOnUse">
<stop offset="0.12" stop-color="#FE012F"/>
<stop offset="0.95" stop-color="#FE8E04"/>
</linearGradient>
</defs>
</svg>
