<?xml version="1.0" encoding="UTF-8"?>
<svg id="Camada_1" data-name="Camada 1" xmlns="http://www.w3.org/2000/svg" version="1.1" viewBox="0 0 605 140">
  <defs>
    <style>
      .cls-1 {
        fill: #671e29;
      }

      .cls-1, .cls-2 {
        stroke-width: 0px;
      }

      .cls-3 {
        isolation: isolate;
      }

      .cls-2 {
        fill: #fff;
      }
    </style>
  </defs>
  <circle class="cls-2" cx="302.5" cy="56.5" r="12.5"/>
  <g class="cls-3">
    <path class="cls-1" d="M301,57.7h-5.3v-2.5h5.3v-5.4h2.6v5.4h5.3v2.5h-5.3v5.4h-2.6v-5.4Z"/>
  </g>
  <path class="cls-2" d="M590.5,139.8H14.6c-7.2,0-13-5.2-13-11.7v-58.5c0-6.5,5.8-11.7,13-11.7h233.7v1H14.6c-6.6,0-12,4.8-12,10.7v58.5c0,5.9,5.4,10.7,12,10.7h575.9c6.6,0,11.9-4.8,11.9-10.7v-58.5c0-5.9-5.3-10.7-11.9-10.7h-233.7v-1h233.7c7.1,0,12.9,5.2,12.9,11.7v58.5c0,6.5-5.8,11.7-12.9,11.7Z"/>
  <path class="cls-2" d="M41.1,101.2v16.5c-1.7.2-3.2.4-4.8.7v-30.3h4.5l6.2,17.2v-17.2h4.7v28.3c-1.7.3-3.4.4-5.2.6l-5.4-15.9h0ZM67.3,103.9h-6.3v7c2.8-.2,5.6-.4,8.4-.5v4.5l-13.1,1v-28h13.1v4.7h-8.4v6.4h6.3v4.9ZM82,92.8v21.8h-4.7v-21.8h-4.9v-4.7h14.6v4.7h-5ZM101.1,98.9v4.7h-6.5v10.8h-4.7v-26.3h13.3v4.7h-8.6v6h6.5,0ZM119,115.3c-4.2-.3-8.5-.5-12.8-.6v-26.6h4.7v22.1c2.7,0,5.4.3,8,.4v4.7h.1ZM127.6,88.1h-4.6v27.5c1.5,0,3.1.2,4.6.3v-27.9h0ZM142.4,102.5l6,15.9c-1.8-.3-3.5-.6-5.3-.9l-3.4-8.8-3.5,8c-1.7-.3-3.4-.4-5.1-.6l6.1-13.9-5.5-14.2h5.1l3.1,8,3.3-8h5.2l-6,14.4h0Z"/>
  <g id="max-2">
    <path class="cls-2" d="M424.3,114.2h8c1.9-3.1,4-5.9,6.5-8.5,2.4,2.6,4.4,5.4,6.3,8.5h8.1c-2.8-4.2-5.8-8.3-9.5-12.3,3.6-3.8,6.7-7.8,9.5-12h-8c-2,3.1-4.1,5.7-6.5,8.2-2.4-2.5-4.6-5.1-6.5-8.2h-8c2.7,4.3,5.9,8.1,9.5,12-3.6,4-6.7,8.2-9.5,12.3"/>
    <path class="cls-2" d="M408.5,114.9c3.3,0,6.1-1.2,8.3-3.8v3.2h6.3v-24.3h-6.3v3.2c-2.2-2.6-5-3.8-8.3-3.8-6.6,0-12.1,5.7-12.1,12.8s5.5,12.8,12.1,12.8h0ZM402.4,102.1c0-4,3.2-7.2,7.2-7.2s7.2,3.2,7.2,7.2-3.2,7.2-7.2,7.2-7.2-3.2-7.2-7.2ZM404,102.1c0,3.1,2.5,5.5,5.5,5.5s5.5-2.5,5.5-5.5-2.5-5.5-5.5-5.5-5.5,2.5-5.5,5.5Z"/>
    <path class="cls-2" d="M360,114.2h6.7v-15.1c2.9-2.3,4.2-3,5.3-3s2.1.8,2.1,2.8v15.3h6.7v-15.1c2.9-2.3,4.2-3,5.3-3s2.1.8,2.1,2.8v15.3h6.7v-17.6c0-5.5-3.1-7.3-6.1-7.3s-5.1,1.1-8.5,3.6c-1.1-2.7-3.5-3.6-5.6-3.6s-5.1,1.1-8.4,3.7v-3h-6.3v24.3h0Z"/>
  </g>
  <g>
    <path class="cls-2" d="M195.4,108.1c-.6.6-1.2,1-1.9,1.3-1.5.7-3.1.7-4.6.2-3.2-.9-5.1-3.1-5.6-6.4-.4-2.4,0-4.6,1.5-6.5,1.4-1.9,3.2-3,5.5-3.3,1.9-.3,3.6.3,5.1,1.6h.1q0,0,.2.2v-.6c0-.7.3-1,1-1h2.2c.6,0,.9.3.9.9v13c0,1.7-.3,3.4-1,5-1,2.2-2.7,3.6-5.1,4.2-3.1.7-6,.3-8.8-1.1s-.8-.4-1.1-.6c-.5-.3-.6-.7-.4-1.3.3-.7.7-1.4,1.1-2.2.2-.5.7-.6,1.2-.3.6.4,1.2.7,1.9,1,1.1.5,2.3.7,3.5.6.9,0,1.7-.2,2.5-.7,1-.6,1.5-1.6,1.7-2.7,0-.4.1-.8.1-1.3h0ZM195.5,101.7v-.9c0-.2,0-.4-.1-.6-.7-2.4-3.6-3.6-5.8-2.3-2.2,1.2-2.6,4.1-1.5,6,.8,1.4,2.1,2.1,3.8,2,1.1,0,1.9-.5,2.6-1.3.8-.9,1.1-1.9,1.1-3h-.1Z"/>
    <path class="cls-2" d="M267.8,95.3c.5-.5,1-.9,1.6-1.2,1.2-.6,2.4-.9,3.7-.8,3.4.3,6.2,3,7,6.4.5,2.2.2,4.3-.8,6.2-1.2,2.4-3.2,3.8-5.9,4.2-2,.3-3.7-.3-5.1-1.6h-.1c0,0,0,0,0,.2v7c0,.7-.3,1-1,1h-2.4c-.7,0-1-.3-1-1v-21.2c0-.6.3-.9,1-.9h2.2c.6,0,.9.3.9.9v.8h-.1ZM276,101.8c0-.6,0-1.2-.3-1.8-.6-1.4-1.6-2.3-3.2-2.5-1.4-.2-2.7.3-3.6,1.5-.8,1-1,2.2-.9,3.4.2,2.1,1.9,3.8,4.3,3.6,1,0,1.9-.5,2.5-1.3.8-.8,1.1-1.9,1.1-3h.1Z"/>
    <path class="cls-2" d="M230.9,108.3v.7c0,.6-.3.9-.9.9h-2.2c-.7,0-1-.3-1-1v-16.5c0-5.5,0-3.1,0-4.6s.3-1,1-1h2.4c.7,0,1,.3,1,.9v7.3c.2-.2.3-.3.5-.4,1.3-1,2.7-1.5,4.3-1.4,2.2,0,3.9,1.1,5.3,2.7,1.3,1.5,2,3.3,2.1,5.2.1,2.8-.7,5.1-2.7,7-1.5,1.4-3.2,2.1-5.2,2-1.6,0-3-.7-4.3-1.8,0,0,0,0-.2,0h-.1ZM231.1,101.8c0,.6,0,1.1.3,1.7.6,1.5,1.7,2.4,3.3,2.6s2.9-.4,3.7-1.8c.9-1.5.9-3,.2-4.6-1-2.2-3.9-2.9-5.9-1.4-1.2.9-1.6,2.1-1.6,3.5Z"/>
    <path class="cls-2" d="M301,95.3v-.9c0-.6.3-.9.9-.9h2.3c.6,0,1,.3,1,1v14.5c0,.7-.3,1-1,1h-2.2c-.6,0-.9-.3-.9-.9v-.8c-.1,0-.2,0-.3.2-1,1-2.3,1.6-3.7,1.7-2.7.2-4.9-.8-6.6-2.9-1.1-1.4-1.7-3-1.8-4.8-.2-2.4.4-4.5,2-6.3,1.3-1.6,3.1-2.6,5.2-2.8,2.1-.2,3.8.5,5.2,2h-.1ZM292.8,101.7c0,.6,0,1.1.3,1.7.6,1.5,1.6,2.4,3.2,2.6,1.5.2,2.8-.4,3.7-1.6.8-1.1.9-2.3.7-3.6-.2-.9-.6-1.7-1.2-2.3-.9-.8-1.9-1.1-3-1-1,0-1.8.5-2.5,1.2-.8.9-1.1,1.9-1.1,3h-.1Z"/>
    <path class="cls-2" d="M315.2,103.8c.2-.6.4-1.2.6-1.8.9-2.6,1.8-5.1,2.6-7.7.2-.5.5-.7,1-.7h3.1c.6,0,.9.4.7,1-.4,1-.7,1.9-1.1,2.9-1.8,4.5-3.5,9-5.3,13.5-.5,1.4-1.2,2.7-2.1,3.9-.8,1.1-1.9,1.9-3.2,2.1-1.6.3-3,0-4.3-1-.5-.4-.6-.8-.3-1.4.3-.5.6-1.1.8-1.6.3-.5.6-.7,1.2-.4.4.2.8.3,1.2.4.6,0,1,0,1.4-.5s.6-.8.9-1.2c.3-.5.5-1.1.8-1.6v-.4c-2.1-4.8-4.3-9.6-6.4-14.4,0-.2-.1-.3-.2-.5,0-.3,0-.6.4-.7h3.5c.5,0,.8.2,1,.7,1.2,3.1,2.4,6.1,3.6,9.2,0,0,0,.2.1.3h0Z"/>
    <path class="cls-2" d="M216.6,110.2c-4.3,0-7.7-3-8.3-7.1-.4-2.7.3-5.1,2.1-7.1,1.5-1.6,3.3-2.5,5.4-2.6,2.7-.2,5,.7,6.9,2.6,1.2,1.3,1.8,2.8,2.1,4.5.3,1.8,0,3.6-.8,5.3-1.3,2.5-3.4,3.9-6.2,4.4h-.3c-.3,0-.6,0-.9,0ZM220.6,101.8c0-1.3-.4-2.4-1.4-3.3-1.5-1.4-4.2-1.4-5.5.2-1.3,1.5-1.5,3.2-.8,4.9.9,2.3,3.7,3.1,5.7,1.8,1.4-.8,1.9-2.1,2-3.6Z"/>
    <path class="cls-2" d="M253.5,110.2c-4.2,0-7.6-2.9-8.3-7.1-.4-2.5.2-4.9,1.8-6.9,1.4-1.7,3.2-2.7,5.3-2.9,2.4-.3,4.7.3,6.6,1.8,1.5,1.2,2.4,2.9,2.8,4.8.4,2,.2,4-.8,5.8-1.3,2.5-3.4,3.9-6.2,4.3-.4,0-.8,0-1.2,0v.2ZM257.5,101.9c0-1.5-.5-2.7-1.6-3.6-1.5-1.2-3.7-1.1-5.1,0-1.3,1.2-1.6,2.6-1.3,4.3.5,2.7,3.4,4.1,5.8,2.8,1.5-.8,2.2-2.1,2.2-3.7h0Z"/>
    <path class="cls-2" d="M286.6,98.4v10.5c0,.7-.3,1-1,1h-2.4c-.7,0-1-.3-1-1v-21.2c0-.7.3-1,1-1h2.5c.6,0,.9.3.9.9v10.8Z"/>
    <path class="cls-2" d="M201.9,98.4v-10.5c0-.3,0-.6.2-.9.2-.4.6-.6,1-.5.2,0,.3,0,.5,0,.5.2,1,.4,1.5.7.8.4,1.2,1,1.2,1.9v18.4c0,.9-.4,1.5-1.1,1.9-.5.2-1,.5-1.6.7-.2,0-.5.2-.7,0-.5,0-.9-.5-.9-1.1v-10.8h0Z"/>
  </g>
  <rect class="cls-2" x="167.8" y="86.3" width="1" height="32.4"/>
  <rect class="cls-2" x="335.2" y="85.2" width="1" height="32.4"/>
  <rect class="cls-2" x="472.1" y="86.3" width="1" height="32.4"/>
  <path class="cls-2" d="M508.7,89.3c1.1-1.3,1.6-3,1.5-4.6-1.7.2-3.2,1-4.3,2.2-.5.6-.9,1.3-1.2,2.1-.3.8-.4,1.6-.3,2.4.8,0,1.6-.2,2.4-.5s1.4-.9,1.9-1.5h0ZM510,91.7c-2.4,0-4.4,1.4-5.5,1.4s-2.9-1.3-4.7-1.2c-1.2,0-2.4.4-3.4,1s-1.9,1.5-2.5,2.6c-2.5,4.4-.7,11,1.8,14.5,1.2,1.7,2.6,3.7,4.6,3.7s2.5-1.2,4.7-1.2,2.8,1.2,4.7,1.1c1.9,0,3.2-1.7,4.4-3.6.9-1.3,1.5-2.6,2-4.1-1.1-.5-2.1-1.3-2.8-2.4-.7-1-1-2.3-1.1-3.5,0-1.1.3-2.2.8-3.2s1.3-1.8,2.3-2.4c-.6-.9-1.4-1.6-2.3-2.1-.9-.5-1.9-.8-3-.8M525.2,88.2v4.8h3.9v3.2h-3.9v11.4c0,1.7.8,2.6,2.5,2.6s.9,0,1.4,0v3.2c-.8,0-1.5.2-2.3.2-4,0-5.5-1.6-5.5-5.4v-11.8h-3v-3.2h2.9v-4.9h4.1-.1ZM542.5,113.4h-4.2l-7.1-20.2h4.2l5,16.3h0l5-16.3h4.1s-7.1,20.2-7.1,20.2ZM561.1,113.4h-3.7v-8.3h-7.9v-3.7h7.8v-8.3h3.7v8.3h7.9v3.7h-7.8v8.3Z"/>
  <g>
    <path class="cls-2" d="M103.2,9.4h-5v16.5h-3.3V9.4h-5v-2.7h13.3v2.7Z"/>
    <path class="cls-2" d="M107.1,23.6c-1.4-1.8-2.1-4.2-2.1-7.3s.7-5.6,2.1-7.3c1.4-1.8,3.5-2.7,6.1-2.7s4.7.9,6.1,2.7c1.4,1.8,2.1,4.2,2.1,7.3s-.7,5.6-2.1,7.3c-1.4,1.8-3.5,2.7-6.1,2.7s-4.7-.9-6.1-2.7ZM109.5,21.6c.8,1.3,2,1.9,3.7,1.9s3-.6,3.8-1.9c.8-1.3,1.2-3.1,1.2-5.4s-.4-4.1-1.2-5.4c-.8-1.3-2-1.9-3.8-1.9s-2.9.6-3.7,1.9c-.8,1.3-1.2,3.1-1.2,5.4s.4,4.1,1.2,5.4Z"/>
    <path class="cls-2" d="M132.3,6.6c2.7,0,4.7.9,6.2,2.6,1.4,1.7,2.2,4.1,2.2,7.1s-.7,5.4-2.2,7.1c-1.5,1.7-3.5,2.6-6.2,2.6h-6.9V6.6h6.9ZM132.3,23.2c1.7,0,3-.6,3.8-1.8s1.2-2.9,1.2-5.1-.4-3.9-1.2-5.1c-.8-1.2-2.1-1.8-3.8-1.8h-3.7v13.9h3.7Z"/>
    <path class="cls-2" d="M145.5,23.6c-1.4-1.8-2.1-4.2-2.1-7.3s.7-5.6,2.1-7.3c1.4-1.8,3.5-2.7,6.1-2.7s4.7.9,6.1,2.7c1.4,1.8,2.1,4.2,2.1,7.3s-.7,5.6-2.1,7.3c-1.4,1.8-3.5,2.7-6.1,2.7s-4.7-.9-6.1-2.7ZM147.9,21.6c.8,1.3,2,1.9,3.7,1.9s3-.6,3.8-1.9c.8-1.3,1.2-3.1,1.2-5.4s-.4-4.1-1.2-5.4c-.8-1.3-2-1.9-3.8-1.9s-2.9.6-3.7,1.9c-.8,1.3-1.2,3.1-1.2,5.4s.4,4.1,1.2,5.4Z"/>
    <path class="cls-2" d="M164.7,7.7c1.2-1,2.9-1.5,4.9-1.5s1.6,0,2.4.2c.8.1,1.5.3,2.2.6v2.8c-.8-.3-1.7-.5-2.5-.6-.9-.2-1.6-.3-2.3-.3-1,0-1.7.2-2.3.7-.6.4-.9,1.1-.9,1.9s.2,1.3.7,1.7c.4.4,1.1.8,2.1,1.2l1.9.7c1.4.5,2.4,1.2,3.2,2.1.7.9,1.1,2,1.1,3.3s-.6,3.1-1.8,4.1c-1.2,1-2.8,1.5-4.8,1.5s-2.1-.1-3.1-.4-2-.6-2.8-1v-2.9c.9.5,1.9.9,3,1.2s2.1.5,3,.5,1.8-.2,2.4-.7c.6-.5.9-1.1.9-2s-.2-1.4-.7-1.8c-.5-.4-1.2-.9-2.3-1.3l-1.7-.6c-1.4-.5-2.5-1.2-3.2-2.1-.7-.8-1.1-1.9-1.1-3.3s.6-3.1,1.8-4.1Z"/>
    <path class="cls-2" d="M185.8,23.6c-1.4-1.8-2.1-4.2-2.1-7.3s.7-5.6,2.1-7.3c1.4-1.8,3.5-2.7,6.1-2.7s4.7.9,6.1,2.7c1.4,1.8,2.1,4.2,2.1,7.3s-.7,5.6-2.1,7.3c-1.4,1.8-3.5,2.7-6.1,2.7s-4.7-.9-6.1-2.7ZM188.2,21.6c.8,1.3,2,1.9,3.7,1.9s3-.6,3.8-1.9c.8-1.3,1.2-3.1,1.2-5.4s-.4-4.1-1.2-5.4c-.8-1.3-2-1.9-3.8-1.9s-2.9.6-3.7,1.9c-.8,1.3-1.2,3.1-1.2,5.4s.4,4.1,1.2,5.4Z"/>
    <path class="cls-2" d="M205,7.7c1.2-1,2.9-1.5,4.9-1.5s1.6,0,2.4.2c.8.1,1.5.3,2.2.6v2.8c-.8-.3-1.7-.5-2.5-.6-.9-.2-1.6-.3-2.3-.3-1,0-1.7.2-2.3.7-.6.4-.9,1.1-.9,1.9s.2,1.3.7,1.7c.4.4,1.1.8,2.1,1.2l1.9.7c1.4.5,2.4,1.2,3.2,2.1.7.9,1.1,2,1.1,3.3s-.6,3.1-1.8,4.1c-1.2,1-2.8,1.5-4.8,1.5s-2.1-.1-3.1-.4-2-.6-2.8-1v-2.9c.9.5,1.9.9,3,1.2s2.1.5,3,.5,1.8-.2,2.4-.7c.6-.5.9-1.1.9-2s-.2-1.4-.7-1.8c-.5-.4-1.2-.9-2.3-1.3l-1.7-.6c-1.4-.5-2.5-1.2-3.2-2.1-.7-.8-1.1-1.9-1.1-3.3s.6-3.1,1.8-4.1Z"/>
    <path class="cls-2" d="M234.8,9.2c-.7-.1-1.4-.2-2.1-.2-1.8,0-3.2.6-4.1,1.9s-1.4,3.1-1.4,5.3.5,4,1.4,5.3c.9,1.3,2.3,1.9,4.1,1.9s1.3,0,2.1-.2c.8-.1,1.4-.3,1.9-.5v2.9c-.6.2-1.2.3-1.9.4-.7.1-1.4.2-2,.2-1.9,0-3.5-.4-4.8-1.2-1.3-.8-2.3-2-3-3.5-.7-1.5-1-3.3-1-5.3s.3-3.8,1-5.3c.7-1.5,1.7-2.7,3-3.5s2.9-1.2,4.7-1.2,1.4,0,2.1.2c.7.1,1.4.3,1.9.5v2.9c-.5-.2-1.2-.4-1.9-.5Z"/>
    <path class="cls-2" d="M251.9,25.9l-1.5-5.1h-6.7l-1.5,5.1h-3.1l5.8-19.2h4.6l5.8,19.2h-3.3ZM249.7,18.3l-2.6-8.4h-.3l-2.6,8.4h5.5Z"/>
    <path class="cls-2" d="M258.4,6.7h3.1l8.4,14.8h.2c-.3-2.2-.4-4.5-.4-6.9v-7.8h3v19.2h-3.1l-8.4-14.8h-.2c.3,2.2.4,4.5.4,6.9v7.8h-3V6.7Z"/>
    <path class="cls-2" d="M288.7,25.9l-1.5-5.1h-6.7l-1.5,5.1h-3.1l5.8-19.2h4.6l5.8,19.2h-3.3ZM286.6,18.3l-2.6-8.4h-.3l-2.6,8.4h5.5Z"/>
    <path class="cls-2" d="M298.5,6.7v19.2h-3.3V6.7h3.3Z"/>
    <path class="cls-2" d="M304.5,7.7c1.2-1,2.9-1.5,4.9-1.5s1.6,0,2.4.2c.8.1,1.5.3,2.2.6v2.8c-.8-.3-1.7-.5-2.5-.6-.9-.2-1.6-.3-2.3-.3-1,0-1.7.2-2.3.7-.6.4-.9,1.1-.9,1.9s.2,1.3.7,1.7c.4.4,1.1.8,2.1,1.2l1.9.7c1.4.5,2.4,1.2,3.2,2.1.7.9,1.1,2,1.1,3.3s-.6,3.1-1.8,4.1c-1.2,1-2.8,1.5-4.8,1.5s-2.1-.1-3.1-.4-2-.6-2.8-1v-2.9c.9.5,1.9.9,3,1.2s2.1.5,3,.5,1.8-.2,2.4-.7c.6-.5.9-1.1.9-2s-.2-1.4-.7-1.8c-.5-.4-1.2-.9-2.3-1.3l-1.7-.6c-1.4-.5-2.5-1.2-3.2-2.1-.7-.8-1.1-1.9-1.1-3.3s.6-3.1,1.8-4.1Z"/>
    <path class="cls-2" d="M325.6,8.9c1.4-1.8,3.5-2.7,6.1-2.7s4.7.9,6.1,2.7c1.4,1.8,2.1,4.2,2.1,7.3s-.6,5.3-1.9,7.1c-1.3,1.8-3.1,2.7-5.5,2.9.3,1,.7,1.7,1.5,2.3.7.5,1.6.8,2.6.8s2.3-.2,3.3-.5v2.6c-.5.1-1,.2-1.6.3-.6,0-1.2.1-1.8.1-1.2,0-2.3-.3-3.2-.8-1-.5-1.7-1.2-2.3-2.1s-.9-1.8-1-2.9c-2.2-.4-3.8-1.4-4.9-3.1-1.1-1.7-1.7-4-1.7-6.7s.7-5.6,2.1-7.3ZM335.4,21.6c.8-1.3,1.2-3.1,1.2-5.4s-.4-4.1-1.2-5.4c-.8-1.3-2-1.9-3.8-1.9s-2.9.6-3.7,1.9c-.8,1.3-1.2,3.1-1.2,5.4s.4,4.1,1.2,5.4c.8,1.3,2,1.9,3.7,1.9s3-.6,3.8-1.9Z"/>
    <path class="cls-2" d="M355.7,24.4c-1.2,1.2-2.9,1.8-5.1,1.8s-3.9-.6-5.1-1.8c-1.2-1.2-1.8-2.9-1.8-5V6.7h3.3v12.7c0,1.3.3,2.3.9,3.1s1.5,1.1,2.7,1.1,2.1-.4,2.7-1.1c.6-.7.9-1.8.9-3.1V6.7h3.3v12.8c0,2.1-.6,3.8-1.8,5Z"/>
    <path class="cls-2" d="M374,6.6v2.6h-8.2v5.6h6v2.6h-6v5.9h8.2v2.6h-11.4V6.6h11.4Z"/>
    <path class="cls-2" d="M385.1,6.7l4.4,15.9h.3l4.4-15.9h3.1l-5.5,19.2h-4.7l-5.5-19.2h3.3Z"/>
    <path class="cls-2" d="M401.2,23.6c-1.4-1.8-2.1-4.2-2.1-7.3s.7-5.6,2.1-7.3c1.4-1.8,3.5-2.7,6.1-2.7s4.7.9,6.1,2.7c1.4,1.8,2.1,4.2,2.1,7.3s-.7,5.6-2.1,7.3c-1.4,1.8-3.5,2.7-6.1,2.7s-4.7-.9-6.1-2.7ZM403.6,21.6c.8,1.3,2,1.9,3.7,1.9s3-.6,3.8-1.9c.8-1.3,1.2-3.1,1.2-5.4s-.4-4.1-1.2-5.4c-.8-1.3-2-1.9-3.8-1.9s-2.9.6-3.7,1.9c-.8,1.3-1.2,3.1-1.2,5.4s.4,4.1,1.2,5.4Z"/>
    <path class="cls-2" d="M429.2,9.2c-.7-.1-1.4-.2-2.1-.2-1.8,0-3.2.6-4.1,1.9-.9,1.3-1.4,3.1-1.4,5.3s.5,4,1.4,5.3c.9,1.3,2.3,1.9,4.1,1.9s1.3,0,2.1-.2c.8-.1,1.4-.3,1.9-.5v2.9c-.6.2-1.2.3-1.9.4-.7.1-1.4.2-2,.2-1.9,0-3.5-.4-4.8-1.2-1.3-.8-2.3-2-3-3.5s-1-3.3-1-5.3.3-3.8,1-5.3c.7-1.5,1.7-2.7,3-3.5,1.3-.8,2.9-1.2,4.7-1.2s1.4,0,2.1.2c.7.1,1.4.3,1.9.5v2.9c-.5-.2-1.2-.4-1.9-.5Z"/>
    <path class="cls-2" d="M446.7,6.6v2.6h-8.2v5.6h6v2.6h-6v5.9h8.2v2.6h-11.4V6.6h11.4ZM443.2,4.9l-2.2-2.6-2.2,2.6h-1.7v-.3l2.5-4.5h2.6l2.5,4.5v.3h-1.6Z"/>
    <path class="cls-2" d="M467.1,25.9l-1.5-5.1h-6.7l-1.5,5.1h-3.1l5.8-19.2h4.6l5.8,19.2h-3.3ZM465,18.3l-2.6-8.4h-.3l-2.6,8.4h5.5Z"/>
    <path class="cls-2" d="M484.6,22.6h.4l4.9-15.9h4.5l2.2,19.2h-3.3l-1-10.3c-.2-1.8-.3-3.5-.4-5.3h-.3l-5,15.7h-3.9l-5-15.7h-.3c-.1,1.8-.3,3.5-.4,5.2l-1,10.4h-2.9l2.2-19.2h4.5l4.9,15.9Z"/>
    <path class="cls-2" d="M512.1,25.9l-1.5-5.1h-6.7l-1.5,5.1h-3.1l5.8-19.2h4.6l5.8,19.2h-3.3ZM510,18.3l-2.6-8.4h-.3l-2.6,8.4h5.5Z"/>
  </g>
</svg>