<?xml version="1.0" encoding="UTF-8"?>
<svg id="Camada_1" xmlns="http://www.w3.org/2000/svg" viewBox="0 0 58.56 21.13">
  <defs>
    <style>
      .cls-1 {
        fill: #e0e0e0;
      }
    </style>
  </defs>
  <path class="cls-1" d="M6.87,3.74c.06,1.15.03,2.3.03,3.44,0,.69-.01,1.38-.05,2.07-.05.98-.36,1.87-1.08,2.57-.47.46-1.06.69-1.7.79-1.33.22-2.56-.04-3.71-.71-.35-.21-.4-.37-.22-.74.12-.24.24-.48.36-.71.12-.23.27-.28.5-.16.31.16.6.36.93.47.52.18,1.04.28,1.59.19,1.15-.2,1.46-.84,1.59-1.76,0-.05.02-.11-.03-.14-.07-.04-.12.03-.16.07-.5.43-1.09.62-1.74.6C1.34,9.68.05,8.28,0,6.53c-.03-.94.21-1.77.81-2.49.62-.75,1.41-1.16,2.39-1.2.71-.03,1.32.18,1.84.67.03.03.06.07.11.06.05-.02.04-.07.04-.12,0-.06,0-.13,0-.19.03-.21.13-.3.34-.3.33,0,.66,0,.99,0,.27,0,.33.07.33.35,0,.15,0,.29,0,.44ZM3.28,8.14c.5,0,.83-.08,1.12-.29.87-.63.98-1.81.4-2.64-.37-.53-.93-.77-1.58-.67-1.07.17-1.68,1.16-1.42,2.27.19.8.84,1.33,1.49,1.33Z"/>
  <path class="cls-1" d="M33.7,7.78c0-1.45,0-2.91,0-4.36,0-.39.07-.46.45-.46.29,0,.58,0,.88,0,.25,0,.34.09.35.35,0,.1-.05.24.04.28.11.05.16-.11.24-.17.39-.32.83-.52,1.33-.57.82-.08,1.58.09,2.24.61.73.59,1.2,1.34,1.33,2.28.11.75.05,1.48-.27,2.16-.55,1.15-1.42,1.85-2.73,1.95-.69.05-1.3-.13-1.84-.57-.05-.04-.1-.1-.17-.06-.07.04-.05.11-.05.17,0,.86,0,1.73,0,2.59,0,.08,0,.17,0,.25-.03.25-.13.35-.39.35-.33,0-.66,0-.99,0-.28,0-.4-.13-.4-.41,0-1.47,0-2.93,0-4.4ZM38.81,6.45c0-.5-.09-.89-.34-1.24-.57-.78-1.76-.88-2.45-.21-.46.44-.58.98-.54,1.59.07,1,1.02,1.78,2.07,1.52.75-.19,1.26-.88,1.26-1.67Z"/>
  <path class="cls-1" d="M18.27,4.94c0-1.46,0-2.92,0-4.38,0-.34.08-.42.43-.42.32,0,.64,0,.95,0,.3,0,.37.07.37.37,0,.9,0,1.79,0,2.69,0,.06,0,.13,0,.19.01.12.07.14.17.08.13-.1.26-.2.4-.28.82-.45,1.67-.47,2.51-.1,1.15.51,1.8,1.43,2,2.66.24,1.48-.36,2.96-1.68,3.74-1.02.61-2.33.54-3.29-.26-.04-.04-.08-.12-.15-.08-.06.03-.03.1-.03.16-.01.38-.07.44-.45.44-.29,0-.57,0-.86,0-.3,0-.37-.07-.37-.38,0-1.47,0-2.95,0-4.42ZM20.02,6.37c0,.13,0,.29.04.44.18.65.55,1.12,1.23,1.29.62.15,1.18,0,1.61-.48.44-.48.55-1.07.43-1.71-.19-1.01-1.19-1.61-2.16-1.3-.7.23-1.16.9-1.16,1.75Z"/>
  <path class="cls-1" d="M50.97,6.37c0,.98,0,1.95,0,2.93,0,.36-.07.44-.43.44-.29,0-.58,0-.88,0-.26,0-.35-.1-.36-.36,0-.1.05-.24-.05-.28-.1-.04-.16.1-.23.17-.37.34-.81.52-1.3.57-.79.08-1.54-.05-2.18-.54-.82-.62-1.32-1.43-1.43-2.48-.08-.79.02-1.54.4-2.25.5-.93,1.26-1.54,2.3-1.7.84-.13,1.65.02,2.29.67.04.04.09.12.15.09.08-.03.04-.12.05-.19,0-.08,0-.15,0-.23.03-.15.11-.26.28-.26.36,0,.72,0,1.09,0,.19,0,.29.11.29.32,0,.35,0,.7,0,1.05,0,.68,0,1.36,0,2.04ZM45.85,6.44c0,.25.09.58.26.89.54,1,2.01,1.11,2.7.21.41-.53.51-1.13.33-1.76-.31-1.06-1.34-1.48-2.27-1.1-.61.24-1.03.96-1.01,1.76Z"/>
  <path class="cls-1" d="M55.23,7.15c.11-.32.23-.64.34-.96.33-.96.67-1.92,1-2.88.1-.3.17-.35.49-.35.39,0,.79,0,1.18,0,.3,0,.39.11.29.41-.09.27-.21.53-.31.8-.81,2.05-1.61,4.11-2.44,6.16-.27.67-.61,1.3-1.14,1.81-.76.72-2.07.77-2.86.08-.15-.13-.17-.28-.1-.45.13-.27.27-.55.42-.81.08-.14.21-.17.36-.12.14.05.27.1.41.14.35.1.64-.02.86-.29.27-.32.41-.71.6-1.08.04-.07.02-.13-.01-.2-.48-1.09-.96-2.17-1.44-3.26-.42-.94-.84-1.88-1.25-2.82-.1-.23,0-.38.24-.38.43,0,.85,0,1.28,0,.32,0,.38.04.5.33.46,1.15.91,2.3,1.37,3.45.05.13.11.27.16.4.02,0,.04,0,.05,0Z"/>
  <path class="cls-1" d="M29.37,9.85c-1.92.07-3.49-1.5-3.48-3.52,0-1.99,1.58-3.51,3.52-3.5,1.83,0,3.48,1.46,3.46,3.57-.01,1.9-1.59,3.53-3.5,3.45ZM29.39,8.14c.93.05,1.72-.74,1.71-1.8-.01-1.05-.72-1.8-1.72-1.8-.96,0-1.68.78-1.7,1.8-.02.98.83,1.88,1.71,1.8Z"/>
  <path class="cls-1" d="M10.45,6.34c-.06-1.91,1.52-3.57,3.6-3.5,1.83.06,3.37,1.46,3.37,3.53,0,1.99-1.51,3.51-3.48,3.51-2.04,0-3.52-1.56-3.49-3.54ZM13.98,4.55c-.53,0-.96.16-1.28.53-.49.57-.62,1.23-.37,1.96.36,1.03,1.67,1.46,2.56.82.56-.41.78-.98.74-1.66-.05-.89-.81-1.7-1.66-1.64Z"/>
  <path class="cls-1" d="M43.23,4.96c0,1.43,0,2.87,0,4.3,0,.08,0,.15,0,.23-.02.15-.1.25-.26.25-.41,0-.83,0-1.24,0-.15,0-.24-.07-.26-.22-.01-.08-.02-.16-.02-.25,0-2.89,0-5.79,0-8.68,0-.36.08-.44.43-.44.32,0,.64,0,.95,0,.31,0,.4.09.4.4,0,1.47,0,2.95,0,4.42Z"/>
  <path class="cls-1" d="M7.82,4.95c0-1.4,0-2.81,0-4.21,0-.04,0-.09,0-.13,0-.56.25-.73.77-.51.18.07.35.16.52.24.36.15.5.44.5.82,0,.76,0,1.52,0,2.29,0,1.76,0,3.53,0,5.29,0,.46-.16.71-.58.88-.22.09-.43.22-.67.27-.29.05-.47-.07-.52-.35-.01-.09-.01-.19-.01-.28,0-1.43,0-2.86,0-4.29Z"/>
  <path class="cls-1" d="M38.05,16.87c0-.18,0-.36,0-.55.01-.23.05-.26.28-.26q.55,0,.55.55c0,1.38,0,2.75,0,4.13,0,.26,0,.27-.27.27-.62,0-.52.08-.53-.54,0-.11,0-.21,0-.36-.18.17-.26.35-.41.47-.7.58-1.48.68-2.32.37-.94-.35-1.56-1.29-1.58-2.29,0-.52.06-1.03.33-1.48.56-.95,1.54-1.38,2.63-1.18.55.1.98.39,1.32.87ZM34.61,18.57c-.02.21.03.44.11.67.42,1.17,1.94,1.59,2.85.63.55-.59.64-1.3.37-2.04-.32-.9-1.25-1.33-2.16-1.03-.72.24-1.17.9-1.17,1.77Z"/>
  <path class="cls-1" d="M25.83,16.85c.03-.21.03-.42.06-.63.02-.11.06-.16.17-.16.15,0,.3,0,.46,0,.13,0,.18.06.18.19,0,1.52,0,3.05,0,4.57,0,.14-.05.2-.19.2-.73-.01-.6.1-.61-.57,0-.09.02-.19-.03-.31-.08.1-.14.18-.21.27-.47.57-1.1.78-1.8.71-1.23-.13-2.06-.93-2.24-2.16-.21-1.46.56-2.62,1.85-2.93.62-.15,1.22-.08,1.78.26.24.14.4.36.59.57ZM24.24,16.71c-.54-.01-.95.15-1.28.47-.51.5-.62,1.12-.5,1.81.19,1.08,1.42,1.72,2.41,1.25.63-.3.94-.83,1.01-1.5.11-1.03-.57-2.03-1.64-2.02Z"/>
  <path class="cls-1" d="M10.53,16.27c0-.29,0-.58,0-.88,0-.15.06-.21.21-.2.18,0,.37,0,.55,0,.18,0,.23.07.23.24,0,.56,0,1.12,0,1.68,0,.25.01.26.26.26.55,0,1.09,0,1.64,0,.17,0,.25.06.24.23,0,.19,0,.38,0,.57,0,.23-.03.26-.27.26-.53,0-1.07,0-1.6,0-.25,0-.26.01-.26.26,0,.55,0,1.1,0,1.66,0,.24-.02.26-.26.26-.16,0-.32,0-.48,0-.18,0-.25-.08-.25-.25,0-.55,0-1.1,0-1.66,0-.25-.01-.26-.26-.26-.53,0-1.07,0-1.6,0-.24,0-.28-.04-.28-.28,0-.18,0-.36,0-.53,0-.18.07-.25.25-.25.53,0,1.05,0,1.58,0q.3,0,.3-.31c0-.26,0-.52,0-.78h0Z"/>
  <path class="cls-1" d="M28.26,18.52c0-.74,0-1.47,0-2.21,0-.23.02-.25.25-.25.13,0,.25,0,.38,0,.11,0,.16.05.16.16,0,.11,0,.23,0,.34,0,.04-.02.1.03.12.05.02.08-.03.1-.07.56-.76,1.69-.8,2.36-.51.62.27.92.76.97,1.41.09,1.1.02,2.2.04,3.29,0,.13-.06.2-.19.2-.11,0-.23,0-.34,0-.25,0-.26-.01-.26-.26,0-.88,0-1.75,0-2.63,0-.21-.02-.42-.06-.62-.14-.7-.78-.93-1.37-.86-.78.09-1.23.62-1.23,1.41,0,.9,0,1.8,0,2.7,0,.24-.01.25-.25.25-.12,0-.24,0-.36,0-.16,0-.23-.06-.22-.23,0-.48,0-.97,0-1.45,0-.27,0-.55,0-.82Z"/>
  <path class="cls-1" d="M42.78,20.4c0-.33-.08-.44.37-.23.55.26,1.15.34,1.74.18.42-.11.61-.36.6-.73,0-.21-.1-.38-.27-.49-.28-.18-.59-.25-.9-.35-.28-.09-.55-.18-.82-.31-.53-.26-.77-.68-.71-1.26.05-.52.35-.85.8-1.05.79-.33,1.58-.23,2.36.06.07.03.11.08.11.16,0,.15,0,.3,0,.46,0,.13-.06.15-.17.1-.34-.15-.7-.24-1.06-.28-.32-.04-.62,0-.91.13-.22.1-.35.28-.35.52,0,.24.14.4.35.51.24.13.49.2.75.28.32.1.63.19.92.35.72.39.91,1.39.4,2.03-.39.49-.92.63-1.5.66-.45.02-.89-.04-1.31-.19-.38-.13-.39-.14-.39-.54Z"/>
  <path class="cls-1" d="M16.78,18.52c0-1.39.95-2.41,2.35-2.54.47-.04.92,0,1.37.12.19.05.29.14.28.36-.01.5.04.46-.44.34-.72-.18-1.42-.15-2.05.32-.67.51-.88,1.57-.46,2.3.36.63.94.9,1.64.95.39.03.77-.04,1.14-.15.19-.06.23-.02.24.17.03.5.02.52-.48.64-.66.15-1.32.17-1.97-.08-1.06-.41-1.64-1.28-1.63-2.42Z"/>
  <path class="cls-1" d="M40.53,18.53c0-.74,0-1.49,0-2.23,0-.18.05-.26.24-.24.11,0,.22,0,.32,0,.19-.01.24.07.24.25,0,1.49,0,2.98,0,4.47,0,.17-.06.24-.23.23-.67-.02-.56.09-.57-.56,0-.64,0-1.28,0-1.92Z"/>
  <path class="cls-1" d="M40.92,13.47c.38,0,.56.18.56.53,0,.37-.19.57-.56.57-.34,0-.58-.23-.58-.56,0-.36.2-.55.58-.55Z"/>
</svg>