<?xml version="1.0" encoding="UTF-8"?>
<svg id="Camada_1" data-name="Camada 1" xmlns="http://www.w3.org/2000/svg" version="1.1" viewBox="0 0 445 120">
  <defs>
    <style>
      .cls-1 {
        fill: #d81f26;
        stroke-width: 0px;
      }
    </style>
  </defs>
  <path class="cls-1" d="M61.1,112.3c-6.7,1.2-13.5,1.5-20.5,2.5l-21.4-62.8v65.5c-6.7.7-12.8,1.6-19.1,2.6V0h17.8l24.4,68.1V0h18.9v112.3ZM98,43.9c7.3,0,18.4-.4,25.1-.4v18.7c-8.3,0-18,0-25.1.4v27.9c11-.7,22-1.6,33.2-2v18l-51.9,4.1V0h51.9v18.8h-33.2v25.2ZM200.9,18.8h-19.5v86.2c-6.3,0-12.7,0-18.7.2V18.8h-19.5V0h57.7v18.8ZM231.3,42.7h25.7v18.7h-25.7v42.5h-18.4V0h52.4v18.8h-34v23.9ZM295.8,87.5c10.7.2,21.4,1.1,31.9,1.6v18.5c-16.8-1.1-33.5-2.1-50.6-2.5V0h18.8v87.5ZM343.5,109c6,.4,12.3.7,18.4,1.4V0h-18.4v109ZM444,0l-23.8,57.1,23.8,62.9c-7-.9-14.1-2.2-21.1-3.4l-13.5-34.7-13.7,31.9c-6.8-1.2-13.4-1.5-20.2-2.5l24.1-55L377.9,0h20.2l12.3,31.5,13.1-31.5h20.5Z"/>
</svg>