<?xml version="1.0" encoding="UTF-8"?>
<svg id="_Imagem" data-name=" Imagem" xmlns="http://www.w3.org/2000/svg" xmlns:xlink="http://www.w3.org/1999/xlink" version="1.1" viewBox="0 0 245 95">
  <defs>
    <style>
      .cls-1 {
        fill: none;
        stroke: #da291c;
        stroke-miterlimit: 10;
      }

      .cls-2 {
        fill: url(#Gradiente_sem_nome_9);
      }

      .cls-2, .cls-3, .cls-4, .cls-5, .cls-6, .cls-7, .cls-8, .cls-9, .cls-10, .cls-11, .cls-12 {
        stroke-width: 0px;
      }

      .cls-3 {
        fill: url(#Gradiente_sem_nome_9-9);
      }

      .cls-4 {
        fill: url(#Gradiente_sem_nome_9-8);
      }

      .cls-5 {
        fill: url(#Gradiente_sem_nome_9-2);
      }

      .cls-6 {
        fill: url(#Gradiente_sem_nome_9-3);
      }

      .cls-7 {
        fill: url(#Gradiente_sem_nome_9-5);
      }

      .cls-8 {
        fill: url(#Gradiente_sem_nome_9-4);
      }

      .cls-9 {
        fill: url(#Gradiente_sem_nome_9-6);
      }

      .cls-10 {
        fill: url(#Gradiente_sem_nome_9-7);
      }

      .cls-11 {
        fill: #da291c;
      }

      .cls-12 {
        fill: #fff;
      }
    </style>
    <linearGradient id="Gradiente_sem_nome_9" data-name="Gradiente sem nome 9" x1="251.85" y1="-140.38" x2="437.24" y2="-140.38" gradientTransform="translate(-223.5 -76.41) scale(1 -1)" gradientUnits="userSpaceOnUse">
      <stop offset=".12" stop-color="#fe012f"/>
      <stop offset=".95" stop-color="#fe8e04"/>
    </linearGradient>
    <linearGradient id="Gradiente_sem_nome_9-2" data-name="Gradiente sem nome 9" x1="252.01" y1="-140.57" x2="437.6" y2="-140.57" xlink:href="#Gradiente_sem_nome_9"/>
    <linearGradient id="Gradiente_sem_nome_9-3" data-name="Gradiente sem nome 9" x1="252.63" y1="-131.15" x2="436.49" y2="-131.15" xlink:href="#Gradiente_sem_nome_9"/>
    <linearGradient id="Gradiente_sem_nome_9-4" data-name="Gradiente sem nome 9" x1="252.51" y1="-140.11" x2="437.21" y2="-140.11" xlink:href="#Gradiente_sem_nome_9"/>
    <linearGradient id="Gradiente_sem_nome_9-5" data-name="Gradiente sem nome 9" x1="252.55" y1="-135.7" x2="437.27" y2="-135.7" xlink:href="#Gradiente_sem_nome_9"/>
    <linearGradient id="Gradiente_sem_nome_9-6" data-name="Gradiente sem nome 9" x1="251.87" y1="-135.73" x2="437.48" y2="-135.73" xlink:href="#Gradiente_sem_nome_9"/>
    <linearGradient id="Gradiente_sem_nome_9-7" data-name="Gradiente sem nome 9" x1="251.87" y1="-135.75" x2="437.48" y2="-135.75" xlink:href="#Gradiente_sem_nome_9"/>
    <linearGradient id="Gradiente_sem_nome_9-8" data-name="Gradiente sem nome 9" x1="258.89" y1="-131.07" x2="435.09" y2="-131.07" xlink:href="#Gradiente_sem_nome_9"/>
    <linearGradient id="Gradiente_sem_nome_9-9" data-name="Gradiente sem nome 9" x1="252.81" y1="-131.01" x2="432.36" y2="-131.01" xlink:href="#Gradiente_sem_nome_9"/>
  </defs>
  <path class="cls-1" d="M142.8,19.07h91.46c5.33,0,9.65,5.35,9.65,11.95v50.47c0,6.6-4.32,11.95-9.65,11.95H10.74c-5.33,0-9.65-5.35-9.65-11.95V31.02c0-6.6,4.32-11.95,9.65-11.95h92.56"/>
  <g>
    <path class="cls-12" d="M138.67,17.42c.02,8.91-7.02,16.03-15.88,16.04-8.85.01-16.06-7.1-16.1-15.87-.04-8.79,7.14-16.01,15.94-16.04,8.91-.03,16.02,7.01,16.05,15.87h0ZM121.06,16.33h-5.05c.04.92.07,1.59.11,2.43h5.04v5.01c.99-.04,1.73-.08,2.65-.12v-4.98h4.87v-2.38h-4.96v-4.92h-2.66v4.96Z"/>
    <path class="cls-11" d="M121.06,16.33v-4.96h2.66v4.92h4.96v2.38h-4.87v4.98c-.92.04-1.66.07-2.65.12v-5.01h-5.04c-.04-.84-.07-1.51-.11-2.43h5.05Z"/>
  </g>
  <g>
    <path class="cls-2" d="M36.14,80.39c-3.38.09-6.69-.93-9.44-2.9-.94-.78-1.12-1.37-.61-2.31.36-.67.69-1.37,1.02-2.03.59-1.19,1.16-1.4,2.34-.7,2.17,1.36,4.69,2.06,7.25,2,4.15-.13,5.71-2.71,5.64-6.24-.76.78-1.67,1.38-2.69,1.77-1.01.39-2.1.55-3.18.47-2.32-.03-4.58-.78-6.46-2.13-1.68-1.2-2.98-2.85-3.74-4.77-.76-1.91-.96-4.01-.57-6.03.24-2.24,1.15-4.36,2.62-6.07,1.47-1.71,3.42-2.93,5.6-3.5,1.55-.5,3.21-.55,4.78-.14,1.58.4,3.01,1.25,4.12,2.43,0-1.02.08-1.67.5-2,.65-.28,1.36-.39,2.07-.31,3.31,0,3.23-.13,3.21,2.16v16.33c0,6.19-1.95,13.98-12.48,13.98ZM42.6,59.23c.06-.75-.04-1.5-.29-2.21-.25-.71-.64-1.36-1.15-1.91-.51-.55-1.13-.99-1.81-1.3-.69-.3-1.43-.46-2.18-.46-.77-.04-1.54.09-2.25.37-.72.28-1.36.71-1.9,1.26-.54.55-.95,1.21-1.21,1.93-.26.72-.37,1.49-.31,2.26,0,3.79,2.39,5.92,5.64,5.95.75,0,1.5-.15,2.19-.45.69-.3,1.31-.74,1.82-1.3s.9-1.21,1.14-1.92c.24-.71.34-1.47.27-2.22h.03Z"/>
    <path class="cls-5" d="M196.93,78.77c-.79-.41-.56-1.29-.18-1.95.13-.26.28-.52.44-.78,1.06-2.06,1.06-2.08,3.25-1.56.6.21,1.26.19,1.86-.05.59-.24,1.08-.68,1.38-1.25.7-1.1,1.31-2.26,1.81-3.46,0,0-5.92-13.5-8.62-19.7-.76-1.75-.69-1.85,1.19-1.85h3.59c.36-.05.72.04,1.02.25.3.21.51.51.59.87,1.59,4.06,5.04,12.93,5.04,12.93.66-1.93,1.41-3.88,2.03-5.64.84-2.42,1.75-4.81,2.59-7.25.07-.4.3-.75.63-.98.33-.23.74-.32,1.14-.25,1.1.08,2.21,0,3.34,0,1.53,0,1.78.41,1.22,1.82-1.29,3.43-2.73,6.87-4.11,10.34-1.71,4.24-3.88,9.41-5.56,13.63-1.06,2.59-3.59,6.36-7.76,6.36-1.74.09-3.46-.43-4.86-1.47Z"/>
    <path class="cls-6" d="M92.05,49.94c1.6-1.49,3.7-2.33,5.88-2.37,1.65,0,3.27.39,4.75,1.12,1.48.74,2.76,1.8,3.76,3.12,3.19,3.88,3.22,11.51-.31,15.33-.86,1.07-1.92,1.94-3.13,2.58-1.21.64-2.53,1.03-3.9,1.13-1.36.11-2.73-.06-4.03-.5-1.29-.44-2.49-1.14-3.5-2.05-.16-.13,0,1.29-.31,1.69-.37.72-4.73.67-5.17,0-.17-.33-.25-.71-.23-1.09v-28.75c0-1.15.5-1.62,1.62-1.59,1.11.03,1.87.08,2.83,0,1.29,0,1.64.54,1.64,1.69.03,2.78.08,9.57.1,9.67ZM97.35,53.37c-3.09,0-5.46,2.29-5.53,5.86-.06.76.04,1.52.29,2.24.25.72.64,1.38,1.16,1.94.52.56,1.14,1.01,1.83,1.31.7.31,1.45.47,2.21.47.76,0,1.51-.15,2.21-.44.7-.3,1.33-.74,1.85-1.29.52-.55.93-1.21,1.19-1.92.26-.71.37-1.47.32-2.23.06-.76-.04-1.52-.29-2.25-.25-.72-.65-1.38-1.17-1.94-.52-.56-1.15-1-1.85-1.3-.7-.3-1.46-.45-2.22-.45Z"/>
    <path class="cls-8" d="M143.11,68.51v9.05q0,2.16-2.24,2.16h-2.31c-1.01,0-1.29-.47-1.29-1.4v-28.84c0-.94.36-1.44,1.37-1.29h2.44c1.77,0,1.67.52,1.67,2.21,6.19-5.88,15.33-1.46,16.97,6.08.67,2.58.44,5.32-.64,7.75-1.08,2.44-2.96,4.44-5.33,5.67-1.44.78-3.07,1.14-4.71,1.05-1.64-.09-3.22-.63-4.56-1.56-.43-.23-.75-.49-1.37-.88ZM143,59.2c-.05.76.06,1.53.32,2.25.26.72.66,1.38,1.17,1.94.52.56,1.15,1.01,1.84,1.32.7.31,1.45.48,2.21.49.77.01,1.53-.14,2.24-.44.71-.3,1.34-.74,1.87-1.3.53-.56.93-1.22,1.18-1.95.25-.72.36-1.49.3-2.26,0-3.34-1.82-5.75-5.33-5.88-.78-.04-1.55.08-2.28.36-.73.28-1.38.71-1.93,1.26-.55.55-.97,1.21-1.25,1.94-.27.73-.39,1.5-.35,2.28Z"/>
    <path class="cls-7" d="M188.6,50.2c.28-2.08,0-2.11,2.29-2.08h2.06c1.15-.13,1.51.52,1.51,1.51v19.29c0,1.09-.47,1.68-1.64,1.58h-1.8c-2.06,0-2.47,0-2.47-2.26-.75.83-1.67,1.5-2.69,1.97-1.02.46-2.13.71-3.25.72-1.23.08-2.47-.1-3.64-.51-1.17-.41-2.24-1.05-3.15-1.88-1.43-1.2-2.57-2.71-3.32-4.42-.75-1.71-1.09-3.57-.99-5.44.1-1.87.62-3.68,1.54-5.31.92-1.63,2.2-3.02,3.75-4.06,1.59-1.12,3.5-1.7,5.44-1.66,1.94.05,3.82.72,5.36,1.92l1.01.65ZM177.54,59.25c0,3.5,2.31,6.1,5.48,6.02.77,0,1.53-.16,2.23-.47.7-.31,1.34-.76,1.86-1.32.52-.56.92-1.23,1.18-1.95.25-.72.35-1.49.3-2.26.03-.76-.08-1.52-.35-2.24-.27-.71-.67-1.37-1.2-1.92-.52-.55-1.15-1-1.85-1.3-.7-.31-1.45-.47-2.21-.47-.74.02-1.48.19-2.15.49-.68.31-1.29.75-1.79,1.29s-.9,1.19-1.15,1.89c-.25.7-.37,1.44-.33,2.18v.05Z"/>
    <path class="cls-9" d="M83.29,59.2c.04,1.55-.24,3.09-.81,4.53-.57,1.44-1.43,2.75-2.51,3.85-1.09,1.1-2.39,1.98-3.82,2.57-1.43.59-2.97.89-4.52.88-1.55-.01-3.08-.34-4.5-.96-1.42-.62-2.7-1.51-3.77-2.64s-1.9-2.45-2.44-3.9c-.55-1.45-.79-3-.73-4.54.04-3.05,1.29-5.96,3.47-8.1,2.18-2.13,5.12-3.32,8.17-3.29,1.52,0,3.03.29,4.43.87s2.68,1.44,3.75,2.52c1.07,1.08,1.91,2.36,2.48,3.77.57,1.41.84,2.92.82,4.44ZM77.25,59.46c.05-.75-.05-1.5-.3-2.2-.24-.71-.63-1.36-1.13-1.91-.5-.56-1.11-1.01-1.78-1.33-.68-.32-1.41-.5-2.16-.53-.75-.03-1.49.09-2.19.35-.7.26-1.34.66-1.89,1.17-.54.51-.98,1.13-1.28,1.81-.3.68-.46,1.42-.48,2.17-.06.78.04,1.57.29,2.31.25.74.65,1.43,1.17,2.01.52.59,1.15,1.06,1.86,1.4.71.34,1.47.53,2.26.57.75,0,1.5-.16,2.19-.46.69-.3,1.32-.73,1.84-1.27.52-.54.94-1.18,1.21-1.88.28-.7.41-1.45.39-2.2Z"/>
    <path class="cls-10" d="M111.29,59.17c.04-3.05,1.3-5.96,3.49-8.09,2.19-2.13,5.13-3.3,8.19-3.25,3.05.04,5.96,1.3,8.09,3.49,2.13,2.19,3.3,5.13,3.25,8.19-.02,1.51-.34,3-.94,4.39-.6,1.39-1.46,2.64-2.55,3.7-1.08,1.05-2.37,1.88-3.77,2.44-1.4.56-2.91.83-4.42.81-3.05-.04-5.96-1.3-8.09-3.49-2.13-2.19-3.3-5.13-3.25-8.19ZM128.37,59.17c.04-.77-.08-1.55-.35-2.27-.28-.73-.7-1.39-1.24-1.94-.55-.55-1.2-.98-1.92-1.27-.72-.28-1.5-.41-2.27-.38-.78.03-1.55.23-2.26.57-.71.34-1.33.83-1.84,1.42-.51.6-.89,1.29-1.12,2.04s-.3,1.54-.22,2.32c.04,1.51.68,2.94,1.76,3.99,1.08,1.05,2.54,1.63,4.04,1.62.76-.03,1.51-.21,2.19-.54.69-.32,1.3-.78,1.81-1.35.51-.57.89-1.23,1.14-1.95.24-.72.34-1.48.29-2.24v-.03Z"/>
    <path class="cls-4" d="M168.77,54.68v14.3c0,1.11-.41,1.55-1.49,1.5-.94-.05-1.89-.05-2.83,0-1.29.08-1.69-.52-1.69-1.68v-28.08c0-1.62.22-1.85,1.82-1.87h2.7c1.1,0,1.49.44,1.49,1.51-.03,4.78,0,9.57,0,14.32Z"/>
    <path class="cls-3" d="M51.52,54.65v-14.69c0-1.75.7-2.34,2.86-1.38,2.5,1.09,3.14,1.29,3.14,3.37,0,7.94,0,16.81-.08,24.96,0,1.59.08,2.29-1.89,3.17-.4.18-1.2.59-1.8.81-1.18.49-2.26,0-2.24-1.72v-10.34c-.03-1.32-.03-2.77,0-4.19Z"/>
  </g>
</svg>