<svg width="552" height="120" viewBox="0 0 552 120" fill="none" xmlns="http://www.w3.org/2000/svg">
<path d="M30.7291 119.985C21.1415 120.235 11.7342 117.348 3.93687 111.764C1.25764 109.562 0.743815 107.873 2.21188 105.194C3.23953 103.286 4.15708 101.304 5.11132 99.4321C6.7996 96.0555 8.41448 95.4683 11.7543 97.4502C17.9116 101.324 25.0715 103.302 32.344 103.139C44.1253 102.772 48.5662 95.4316 48.346 85.412C46.2003 87.6223 43.5968 89.3361 40.7182 90.433C37.8397 91.5299 34.7558 91.9833 31.6834 91.7614C25.0905 91.67 18.6848 89.5561 13.3325 85.7056C8.57089 82.3075 4.88698 77.6116 2.72002 72.1779C0.553056 66.7442 -0.00553989 60.802 1.11083 55.0597C1.78218 48.6975 4.37542 42.6906 8.54536 37.8388C12.7153 32.987 18.2641 29.5204 24.4531 27.9004C28.8516 26.4866 33.5604 26.3464 38.0352 27.4959C42.51 28.6455 46.5682 31.0379 49.7406 34.3966C49.7406 31.4972 49.9608 29.6621 51.172 28.7078C53.0212 27.9145 55.0437 27.6111 57.0443 27.827C66.4399 27.827 66.2197 27.46 66.1463 33.9562C66.1463 47.4624 66.1463 66.9877 66.1463 80.3105C66.1463 97.8906 60.6043 119.985 30.7291 119.985ZM49.08 59.9043C49.2413 57.7782 48.963 55.6417 48.2623 53.6279C47.5616 51.6141 46.4536 49.7663 45.0074 48.1995C43.5611 46.6328 41.8077 45.3807 39.8563 44.5214C37.9049 43.6622 35.7974 43.214 33.6653 43.205C31.4852 43.0995 29.3076 43.4592 27.2773 44.2603C25.247 45.0614 23.4105 46.2856 21.8899 47.8513C20.3693 49.4171 19.1994 51.2886 18.458 53.3414C17.7166 55.3943 17.4207 57.5814 17.5899 59.7575C17.5899 70.5111 24.3797 76.5669 33.5919 76.6403C35.7323 76.6482 37.8509 76.2102 39.8128 75.3543C41.7746 74.4983 43.5367 73.2432 44.9868 71.6688C46.4369 70.0944 47.5433 68.2352 48.2353 66.2098C48.9274 64.1843 49.1901 62.0369 49.0066 59.9043H49.08Z" fill="url(#paint0_linear_3156_11648)"/>
<path d="M487.189 115.397C484.95 114.223 485.611 111.727 486.675 109.855C487.042 109.121 487.482 108.387 487.923 107.653C490.932 101.818 490.932 101.744 497.135 103.212C498.85 103.803 500.721 103.758 502.405 103.084C504.09 102.41 505.476 101.153 506.31 99.5422C508.296 96.4134 510.015 93.1231 511.449 89.7061C511.449 89.7061 494.639 51.3895 486.969 33.7727C484.803 28.818 485.023 28.5243 490.345 28.5243C493.758 28.5243 497.135 28.5243 500.548 28.5243C501.564 28.3887 502.593 28.6372 503.435 29.221C504.277 29.8049 504.87 30.6821 505.099 31.6807C509.614 43.205 519.413 68.3824 519.413 68.3824C521.285 62.9139 523.413 57.3719 525.175 52.3805C527.561 45.5173 530.13 38.7274 532.515 31.7908C532.721 30.6622 533.366 29.6612 534.308 29.0075C535.251 28.3539 536.415 28.1009 537.544 28.3041C540.663 28.5243 543.82 28.3041 547.013 28.3041C551.343 28.3041 552.077 29.4786 550.463 33.4791C546.792 43.205 542.719 52.9677 538.791 62.8405C533.947 74.8786 527.781 89.5593 523.01 101.524C520 108.864 512.807 119.581 500.989 119.581C496.041 119.844 491.158 118.363 487.189 115.397Z" fill="url(#paint1_linear_3156_11648)"/>
<path d="M189.464 33.5525C194.005 29.3205 199.956 26.9268 206.163 26.8361C210.844 26.8446 215.46 27.9356 219.649 30.024C223.839 32.1123 227.488 35.1413 230.313 38.8743C239.378 49.8848 239.452 71.5388 229.432 82.4025C227 85.4272 223.976 87.9235 220.545 89.7386C217.115 91.5537 213.35 92.6495 209.481 92.9587C205.612 93.268 201.721 92.7842 198.045 91.537C194.37 90.2899 190.988 88.3056 188.106 85.7057C187.665 85.3387 188.106 89.3759 187.225 90.5136C186.161 92.5689 173.792 92.4221 172.544 90.5136C172.054 89.5629 171.826 88.4988 171.884 87.4307C171.884 60.4916 171.884 32.7451 171.884 5.80602C171.884 2.53957 173.315 1.2183 176.471 1.29171C179.628 1.36511 181.793 1.51192 184.509 1.29171C188.179 1.29171 189.17 2.83318 189.17 6.09963C189.244 13.9905 189.39 33.2589 189.464 33.5525ZM204.512 43.2785C195.74 43.2785 189.023 49.7747 188.803 59.9044C188.642 62.056 188.924 64.2179 189.633 66.2559C190.342 68.2938 191.462 70.1643 192.924 71.7512C194.386 73.3382 196.158 74.6077 198.131 75.481C200.105 76.3543 202.236 76.8128 204.394 76.8279C206.551 76.843 208.689 76.4145 210.674 75.5689C212.659 74.7234 214.45 73.4788 215.934 71.9125C217.418 70.3462 218.564 68.4916 219.301 66.4638C220.039 64.436 220.351 62.2783 220.22 60.1246C220.388 57.9656 220.105 55.7954 219.39 53.7513C218.675 51.7073 217.544 49.834 216.067 48.2503C214.59 46.6665 212.801 45.4068 210.811 44.551C208.822 43.6951 206.677 43.2618 204.512 43.2785Z" fill="url(#paint2_linear_3156_11648)"/>
<path d="M334.399 86.2561C334.399 95.3214 334.399 103.653 334.399 111.947C334.399 118.076 334.399 118.076 328.05 118.076C325.848 118.076 323.646 118.076 321.48 118.076C318.617 118.076 317.81 116.755 317.81 114.113V32.2311C317.81 29.5519 318.838 28.1572 321.7 28.561C323.499 28.561 326.802 28.561 328.637 28.561C333.665 28.561 333.372 30.029 333.372 34.8369C350.952 18.1377 376.9 30.6897 381.561 52.0868C383.462 59.4185 382.82 67.1783 379.74 74.098C376.66 81.0177 371.324 86.6883 364.605 90.1832C360.512 92.3908 355.889 93.4254 351.246 93.1729C346.602 92.9203 342.119 91.3904 338.29 88.7518C337.078 88.0912 336.161 87.3571 334.399 86.2561ZM334.106 59.8308C333.971 61.9944 334.277 64.1628 335.004 66.2049C335.732 68.247 336.865 70.1204 338.337 71.7121C339.809 73.3038 341.588 74.5806 343.567 75.4655C345.545 76.3504 347.683 76.8249 349.851 76.8604C352.03 76.8925 354.192 76.4696 356.199 75.6187C358.206 74.7678 360.013 73.5077 361.505 71.9189C362.997 70.33 364.141 68.4474 364.865 66.3913C365.588 64.3352 365.875 62.1507 365.706 59.9776C365.706 50.5086 360.531 43.6454 350.585 43.2783C348.382 43.1552 346.178 43.4996 344.118 44.2889C342.058 45.0782 340.189 46.2945 338.632 47.8579C337.076 49.4213 335.868 51.2964 335.087 53.36C334.307 55.4235 333.973 57.6288 334.106 59.8308Z" fill="url(#paint3_linear_3156_11648)"/>
<path d="M463.552 34.2864C464.36 28.3774 463.552 28.304 470.049 28.3774C472.031 28.3774 473.719 28.3774 475.884 28.3774C479.151 28.0104 480.178 29.8455 480.178 32.6715V87.4305C480.178 90.5135 478.857 92.2017 475.517 91.9081C473.829 91.9081 472.067 91.9081 470.416 91.9081C464.58 91.9081 463.406 91.9081 463.406 85.4853C461.27 87.8531 458.668 89.7536 455.762 91.0673C452.857 92.3811 449.711 93.0797 446.523 93.1193C443.02 93.3333 439.51 92.8427 436.201 91.6765C432.891 90.5102 429.849 88.692 427.254 86.3295C423.183 82.9303 419.958 78.6309 417.834 73.7711C415.71 68.9112 414.745 63.6239 415.015 58.327C415.286 53.0301 416.784 47.8687 419.393 43.2505C422.001 38.6323 425.647 34.6839 430.044 31.7173C434.553 28.5302 439.968 26.8805 445.488 27.0127C451.008 27.145 456.339 29.052 460.69 32.4513L463.552 34.2864ZM432.136 59.9776C432.136 69.9238 438.705 77.3008 447.697 77.0806C449.876 77.0765 452.03 76.6235 454.026 75.7498C456.022 74.8761 457.816 73.6005 459.297 72.0026C460.777 70.4047 461.913 68.5188 462.633 66.4625C463.352 64.4062 463.64 62.2236 463.479 60.051C463.578 57.8896 463.24 55.7304 462.486 53.7023C461.732 51.6741 460.578 49.8187 459.091 48.2465C457.604 46.6743 455.816 45.4176 453.834 44.5514C451.851 43.6853 449.714 43.2273 447.55 43.2049C445.439 43.2611 443.36 43.7384 441.436 44.609C439.512 45.4796 437.781 46.7259 436.345 48.2747C434.909 49.8235 433.797 51.6435 433.074 53.628C432.351 55.6124 432.032 57.7213 432.136 59.8308V59.9776Z" fill="url(#paint4_linear_3156_11648)"/>
<path d="M164.581 59.8309C164.683 64.2276 163.9 68.5999 162.279 72.6881C160.658 76.7764 158.232 80.497 155.145 83.6289C152.057 86.7608 148.372 89.2401 144.307 90.9195C140.243 92.5988 135.882 93.4439 131.484 93.4045C127.087 93.3651 122.742 92.4421 118.708 90.6903C114.674 88.9384 111.034 86.3935 108.003 83.2068C104.972 80.0201 102.613 76.2566 101.065 72.1401C99.5177 68.0235 98.8136 63.6378 98.9946 59.2437C99.1107 50.5832 102.65 42.3208 108.84 36.262C115.029 30.2033 123.365 26.8408 132.026 26.9095C136.339 26.8844 140.614 27.7215 144.599 29.3717C148.584 31.0219 152.199 33.4519 155.232 36.5188C158.265 39.5858 160.654 43.2279 162.259 47.2312C163.865 51.2345 164.654 55.5183 164.581 59.8309ZM147.441 60.565C147.58 58.4454 147.294 56.3194 146.6 54.312C145.905 52.3047 144.816 50.4565 143.397 48.8762C141.977 47.296 140.256 46.0156 138.335 45.1104C136.413 44.2052 134.33 43.6935 132.207 43.6053C130.085 43.5172 127.967 43.8545 125.977 44.5972C123.987 45.34 122.165 46.4733 120.62 47.9305C119.074 49.3876 117.836 51.1391 116.977 53.082C116.119 55.0249 115.657 57.1199 115.621 59.2437C115.456 61.4603 115.738 63.6874 116.449 65.7931C117.161 67.8989 118.287 69.8407 119.762 71.5037C121.237 73.1666 123.03 74.517 125.036 75.4749C127.041 76.4328 129.219 76.9789 131.439 77.0807C133.578 77.0619 135.693 76.618 137.659 75.7749C139.626 74.9318 141.405 73.7063 142.894 72.1697C144.383 70.633 145.552 68.8158 146.332 66.8236C147.113 64.8315 147.49 62.704 147.441 60.565Z" fill="url(#paint5_linear_3156_11648)"/>
<path d="M244.076 59.7576C244.203 51.0944 247.766 42.8363 253.981 36.8C260.196 30.7637 268.555 27.4436 277.218 27.5701C285.881 27.6967 294.139 31.2595 300.175 37.4747C306.212 43.69 309.532 52.0486 309.405 60.7118C309.343 65.0014 308.436 69.2366 306.736 73.1757C305.037 77.1147 302.578 80.6805 299.501 83.6694C296.423 86.6583 292.787 89.0117 288.8 90.5954C284.813 92.179 280.553 92.9619 276.264 92.8992C267.6 92.7727 259.342 89.2099 253.306 82.9946C247.27 76.7794 243.95 68.4207 244.076 59.7576ZM292.559 59.7576C292.679 57.5584 292.337 55.3584 291.556 53.2993C290.774 51.2401 289.571 49.3673 288.022 47.8013C286.473 46.2353 284.614 45.0108 282.564 44.2066C280.513 43.4024 278.317 43.0362 276.117 43.1317C273.892 43.2235 271.71 43.7725 269.706 44.7444C267.703 45.7162 265.921 47.0902 264.471 48.7807C263.022 50.4712 261.936 52.4421 261.281 54.5705C260.626 56.6989 260.417 58.9393 260.665 61.1522C260.79 65.4328 262.583 69.495 265.662 72.4712C268.741 75.4475 272.862 77.1018 277.144 77.0808C279.302 76.9979 281.421 76.4813 283.374 75.5618C285.328 74.6423 287.076 73.3387 288.514 71.7288C289.953 70.1189 291.053 68.2356 291.748 66.1915C292.443 64.1473 292.719 61.9841 292.559 59.831V59.7576Z" fill="url(#paint6_linear_3156_11648)"/>
<path d="M407.252 46.9853C407.252 60.4915 407.252 74.0711 407.252 87.5774C407.252 90.7337 406.078 91.9816 403.032 91.8348C400.354 91.688 397.671 91.688 394.994 91.8348C391.324 92.055 390.186 90.3667 390.186 87.0635V7.34739C390.186 2.75967 390.81 2.09904 395.361 2.02563C397.893 2.02563 400.463 2.02563 403.032 2.02563C406.151 2.02563 407.252 3.27349 407.252 6.31974C407.179 19.8994 407.252 33.479 407.252 46.9853Z" fill="url(#paint7_linear_3156_11648)"/>
<path d="M74.4047 46.9119V5.21872C74.4047 0.263987 76.3866 -1.42429 82.5157 1.29164C89.5992 4.37458 91.4343 4.96181 91.4343 10.8708C91.4343 33.4057 91.4343 58.583 91.2141 81.7418C91.2141 86.2562 91.4343 88.238 85.8556 90.7338C84.7178 91.2476 82.4423 92.422 80.7541 93.046C77.4142 94.4406 74.3313 93.046 74.4047 88.1646C74.4047 78.402 74.4047 68.6026 74.4047 58.8033C74.3313 55.0597 74.3313 50.9491 74.4047 46.9119Z" fill="url(#paint8_linear_3156_11648)"/>
<defs>
<linearGradient id="paint0_linear_3156_11648" x1="8.63469" y1="73.3739" x2="534.901" y2="73.3739" gradientUnits="userSpaceOnUse">
<stop offset="0.12" stop-color="#FE012F"/>
<stop offset="0.95" stop-color="#FE8E04"/>
</linearGradient>
<linearGradient id="paint1_linear_3156_11648" x1="9.07519" y1="73.9611" x2="535.929" y2="73.9611" gradientUnits="userSpaceOnUse">
<stop offset="0.12" stop-color="#FE012F"/>
<stop offset="0.95" stop-color="#FE8E04"/>
</linearGradient>
<linearGradient id="paint2_linear_3156_11648" x1="10.8365" y1="47.0955" x2="532.772" y2="47.0955" gradientUnits="userSpaceOnUse">
<stop offset="0.12" stop-color="#FE012F"/>
<stop offset="0.95" stop-color="#FE8E04"/>
</linearGradient>
<linearGradient id="paint3_linear_3156_11648" x1="10.5064" y1="72.4929" x2="534.827" y2="72.4929" gradientUnits="userSpaceOnUse">
<stop offset="0.12" stop-color="#FE012F"/>
<stop offset="0.95" stop-color="#FE8E04"/>
</linearGradient>
<linearGradient id="paint4_linear_3156_11648" x1="10.6162" y1="60.051" x2="535.011" y2="60.051" gradientUnits="userSpaceOnUse">
<stop offset="0.12" stop-color="#FE012F"/>
<stop offset="0.95" stop-color="#FE8E04"/>
</linearGradient>
<linearGradient id="paint5_linear_3156_11648" x1="8.67166" y1="60.0145" x2="535.598" y2="60.0145" gradientUnits="userSpaceOnUse">
<stop offset="0.12" stop-color="#FE012F"/>
<stop offset="0.95" stop-color="#FE8E04"/>
</linearGradient>
<linearGradient id="paint6_linear_3156_11648" x1="8.67137" y1="59.9411" x2="535.598" y2="59.9411" gradientUnits="userSpaceOnUse">
<stop offset="0.12" stop-color="#FE012F"/>
<stop offset="0.95" stop-color="#FE8E04"/>
</linearGradient>
<linearGradient id="paint7_linear_3156_11648" x1="28.6004" y1="46.9119" x2="528.809" y2="46.9119" gradientUnits="userSpaceOnUse">
<stop offset="0.12" stop-color="#FE012F"/>
<stop offset="0.95" stop-color="#FE8E04"/>
</linearGradient>
<linearGradient id="paint8_linear_3156_11648" x1="11.3511" y1="46.7651" x2="521.065" y2="46.7651" gradientUnits="userSpaceOnUse">
<stop offset="0.12" stop-color="#FE012F"/>
<stop offset="0.95" stop-color="#FE8E04"/>
</linearGradient>
</defs>
</svg>
