<?xml version="1.0" encoding="UTF-8"?>
<svg id="svg4" xmlns="http://www.w3.org/2000/svg" xmlns:svg="http://www.w3.org/2000/svg" xmlns:sodipodi="http://sodipodi.sourceforge.net/DTD/sodipodi-0.dtd" xmlns:inkscape="http://www.inkscape.org/namespaces/inkscape" version="1.1" viewBox="0 0 256 256">
  <defs>
    <style>
      .cls-1 {
        fill: #fff;
        stroke-width: 0px;
      }
    </style>
  </defs>
  <sodipodi:namedview id="namedview6" bordercolor="#111111" borderopacity="1" inkscape:current-layer="svg4" inkscape:cx="556.49304" inkscape:cy="164.04877" inkscape:deskcolor="#d1d1d1" inkscape:pagecheckerboard="1" inkscape:pageopacity="0" inkscape:showpageshadow="0" inkscape:window-height="705" inkscape:window-maximized="1" inkscape:window-width="1366" inkscape:window-x="-8" inkscape:window-y="-8" inkscape:zoom="0.70710678" pagecolor="#ffffff" showgrid="false"/>
  <path id="path321" class="cls-1" d="M40.4,93c-7,0-14.1,3.1-23.2,10.1v-8.3H0v66.5h18.3v-41.4c8-6.3,11.6-8.3,14.6-8.3s5.9,2.2,5.9,7.8v41.9h18.3v-41.5c8-6.2,11.5-8.2,14.6-8.2s5.9,2.2,5.9,7.8v41.9h18.3v-48.3c0-15-8.5-20-16.7-20s-14.1,2.9-23.4,10c-3-7.4-9.5-10-15.4-10ZM133,93c-18.2,0-33.3,15.6-33.3,35s15.1,35,33.3,35,16.7-3.3,22.7-10.5v8.8h17.4v-66.5h-17.4v8.8c-6-7.2-13.8-10.5-22.7-10.5ZM176.4,94.7c7.5,11.7,16.1,22.3,26.1,32.8-10,11-18.5,22.4-26.1,33.7h22.1c5.2-8.4,11.1-16.1,17.9-23.3,6.7,7.2,12.2,14.9,17.4,23.3h22.3c-7.6-11.6-16-22.7-25.9-33.7,9.9-10.5,18.3-21.4,25.9-32.8h-21.8c-5.4,8.4-11.3,15.5-17.9,22.5-6.7-7-12.5-14.1-17.9-22.5h-22.1ZM135.8,108.4c10.9,0,19.6,8.8,19.6,19.6s-8.8,19.6-19.6,19.6-19.6-8.8-19.6-19.6,8.8-19.6,19.6-19.6ZM135.8,112.8c-8.3,0-15.1,6.8-15.1,15.2s6.8,15.2,15.1,15.2,15.1-6.8,15.1-15.2-6.8-15.2-15.1-15.2Z"/>
</svg>