<?xml version="1.0" encoding="UTF-8"?>
<svg id="Camada_1" data-name="Camada 1" xmlns="http://www.w3.org/2000/svg" version="1.1" viewBox="0 0 256 256">
  <defs>
    <style>
      .cls-1 {
        fill: #fff;
        stroke-width: 0px;
      }
    </style>
  </defs>
  <path class="cls-1" d="M156.9,3.7c1.3,1.3,2.6,2.6,4,4,.2.2.5.2.7,0l3.8-4c.2-.2.4-.2.6,0l4,4c.2.2.4.2.7,0l4.5-4.6c.2-.2.3-.2.3.1v48.1c0,0,0,.2-.1.3,0,0-.2.1-.3.1h-18.7c-.2,0-.4-.1-.4-.4V3.5c0-.3.1-.3.4-.2.2,0,.3.2.4.3,0,0,0,.1.1.1Z"/>
  <path class="cls-1" d="M75.2,28.6c0,1.7-.7,3.4-1.9,4.6-1.2,1.2-2.9,1.9-4.6,1.9h-.9c-1.7,0-3.4-.7-4.6-1.9s-1.9-2.9-1.9-4.6V11.4c0-1.7.7-3.4,1.9-4.6,1.2-1.2,2.9-1.9,4.6-1.9h.9c1.7,0,3.4.7,4.6,1.9,1.2,1.2,1.9,2.9,1.9,4.6v17.2ZM70.6,11.4c0-.6-.2-1.1-.6-1.5-.4-.4-1-.6-1.5-.6h-.3c-.6,0-1.1.2-1.5.6-.4.4-.6,1-.6,1.5v17.3c0,.6.2,1.1.6,1.5.4.4,1,.6,1.5.6h.3c.6,0,1.1-.2,1.5-.6.4-.4.6-1,.6-1.5V11.4Z"/>
  <path class="cls-1" d="M151.1,29.1c0,.8-.2,1.7-.5,2.4-.3.8-.8,1.5-1.4,2.1-.6.6-1.3,1.1-2.1,1.4-.8.3-1.6.5-2.4.5h-1.1c-.8,0-1.7-.2-2.4-.5-.8-.3-1.5-.8-2.1-1.4-.6-.6-1.1-1.3-1.4-2.1-.3-.8-.5-1.6-.5-2.4V11.8c0-.8.1-1.7.5-2.4.3-.8.8-1.5,1.4-2.1.6-.6,1.3-1.1,2.1-1.4.8-.3,1.6-.5,2.4-.5h1.1c.8,0,1.7.2,2.4.5.8.3,1.5.8,2.1,1.4.6.6,1.1,1.3,1.4,2.1s.5,1.6.5,2.4v17.3ZM146.7,11.9c0-.3,0-.6-.2-.9-.1-.3-.3-.5-.5-.8-.2-.2-.5-.4-.8-.5-.3-.1-.6-.2-.9-.2h-.1c-.6,0-1.2.2-1.6.7-.4.4-.7,1-.7,1.6v17c0,.6.2,1.2.7,1.6.4.4,1,.7,1.6.7h.1c.3,0,.6,0,.9-.2.3-.1.5-.3.8-.5.2-.2.4-.5.5-.8.1-.3.2-.6.2-.9V11.9Z"/>
  <path class="cls-1" d="M89.9,6.3c5.6-3.1,11.1,1,10.2,7.2,0,.2-.1.3-.3.3h-3.5c-.3,0-.4-.1-.4-.4.1-2.2-.3-4.8-3.4-3.7-.2,0-.4.2-.5.4-1.2,1.9-1.1,3.7.5,5.5,2,2.3,5.9,5.2,7.2,8.4,1.9,4.4.4,10.9-5,11.4-5.5.5-8.7-3.2-7.8-8.7,0-.2.2-.3.4-.3h2.8c.6,0,.9.3.9.9.4,6.9,6.6,4.2,4.5-1.2-.8-2.1-4.1-4.8-5.8-6.7-3.2-3.4-4.6-10.4.2-13Z"/>
  <path class="cls-1" d="M115.4,20.2c-4.8-4.6-5-15.5,4-14.8,4.5.3,6.6,3.8,6,8.1,0,.2-.2.4-.4.4h-3.4c-.3,0-.4-.1-.4-.4.3-4.3-4.2-5.4-4.7-1.8-.6,4.8,6.8,8.3,8.5,12.9,4.9,13.2-15.2,15.1-12.9,2.3,0-.2.2-.4.4-.3h3.4c0,0,.1,0,.2,0,0,0,0,0,.1.1,0,0,0,0,0,.2,0,0,0,.1,0,.2-1.6,6,6.8,5.9,4.4-.7-.8-2.1-3.6-4.3-5.4-6Z"/>
  <path class="cls-1" d="M46.6,22.4l.2-16.3c0,0,0-.1,0-.2,0,0,0-.1,0-.1,0,0,0,0,.1,0,0,0,.1,0,.2,0h3c.3,0,.4.2.4.5v28.6c0,.2-.1.4-.4.4h-3.6c-.3,0-.5-.2-.6-.5l-5.4-20.2s0,0,0,0c0,0,0,0,0,0,0,0,0,0,0,0,0,0,0,0,0,0v20.3c0,.2-.1.4-.4.4h-3.1c-.2,0-.4-.1-.4-.4V6.2c0-.3.2-.5.5-.5h4.7c.1,0,.2,0,.3.1,0,0,.1.2.2.3l4.3,16.3s0,0,0,0,0,0,0,0c0,0,0,0,0,0,0,0,0,0,0,0Z"/>
  <path class="cls-1" d="M50.2,75.3h15.7c.2,0,.4,0,.5.2.1.1.2.3.2.5v10.6c0,.2,0,.4-.2.5-.1.1-.3.2-.5.2h-15.8c-.2,0-.4,0-.5.2-.1.1-.2.3-.2.5v34.3c0,.2,0,.4-.2.5-.1.1-.3.2-.5.2h-11.8c0,0-.2,0-.3,0s-.2,0-.2-.2c0,0-.1-.1-.2-.2,0,0,0-.2,0-.3V40.5c0-.2.1-.4.3-.5.1-.1.3-.2.5-.2h36c.2,0,.4,0,.5.2s.2.3.2.5v10.4c0,.2,0,.4-.2.5-.1.1-.3.2-.5.2h-22.8c-.2,0-.4,0-.5.2-.1.1-.2.3-.2.5v22.3c0,.2.1.4.3.5.1.1.3.2.5.2Z"/>
  <path class="cls-1" d="M119.1,122.3V52.3c0,0,0-.2,0-.3,0,0,0-.2-.2-.2,0,0-.1-.1-.2-.2,0,0-.2,0-.3,0h-16.6c-.2,0-.4,0-.5-.2-.1-.1-.2-.3-.2-.5v-10.4c0,0,0-.2,0-.3,0,0,0-.2.2-.2,0,0,.1-.1.2-.2,0,0,.2,0,.3,0h47.7c0,0,.2,0,.3,0,0,0,.2,0,.2.2,0,0,.1.1.2.2,0,0,0,.2,0,.3v10.4c0,0,0,.2,0,.3,0,0,0,.2-.2.2,0,0-.1.1-.2.2,0,0-.2,0-.3,0h-16.3c-.2,0-.4,0-.5.2-.1.1-.2.3-.2.5l-.3,70c0,.2,0,.4-.2.5-.1.1-.3.2-.5.2h-11.6c-.2,0-.4,0-.5-.2-.1-.1-.2-.3-.2-.5Z"/>
  <path class="cls-1" d="M144.3,165.1v-30.2c0-.2,0-.5.3-.7.2-.2.4-.3.7-.3h11.3c.2,0,.4,0,.5.1.2,0,.3.2.4.3.1.1.2.3.3.5,0,.2,0,.4,0,.5-.4,8.3-.1,17.9,0,24.6,0,11.6,0,23,0,34.3,0,.8.4,1.1,1.1,1.1h15.4c.3,0,.6.2.8.4.2.2.3.5.3.8v11.5c0,.7-.4,1.1-1.1,1.1h-29.1c-.2,0-.5,0-.7-.3-.2-.2-.3-.4-.3-.7v-31.3s0,0,0,0c0,0,0,0,0,0s0,0,0,0,0,0,0,0,0,0,0,0c0,0,0,0,0,0,0,0,0,0,0,0,0,0,0,0,0,0-8.1,36.6-56.9,39-68.2,2.9,0,0,0,0,0,0,0,0,0,0,0,0s0,0,0,0c0,0,0,0,0,0,0,13.5,1,26.5-16,28.5-4.4.5-12,.5-22.8,0-.2,0-.4-.1-.4-.4v-80.3c0-.1,0-.3.2-.4.1-.1.2-.2.4-.2,5.9,0,11.8,0,17.8,0,13.7,0,19.8,5.8,19.7,19.5,0,7.9-.3,13.9-7.7,18.3-.3.2-.3.3,0,.4,4,1.6,6.6,4.5,7.8,8.6.2.6.3.6.2,0-.7-13.8,4.6-24.6,15.7-32.4.3-.2.2-.3,0-.3-11.2-1.6-17.3-7.3-17.5-18.9-.3-21.3-.3-42.6,0-63.7,0-.2.1-.5.3-.6.2-.2.4-.3.6-.3h10.6c.3,0,.5.2.7.4.2.2.3.5.3.7.2,21,.3,42.2.3,63.5,0,5.6,2.7,7.9,8.1,7,4.2-.7,4.8-4.3,4.8-8.3,0-20.9.1-41.8.3-62.6,0-.2,0-.4.2-.5.1-.1.3-.2.6-.2h10.9c.3,0,.4.2.4.4.3,18.2.3,36.3.2,54.4,0,10.6.5,15.8-4.6,23.1-.2.2-.1.3.2.3,18.5-1,33.8,10.9,37.1,29.1,0,0,0,0,0,0,0,0,0,0,0,0,0,0,0,0,0,0,0,0,0,0,0,0ZM49,139.8v19.4c0,.1,0,.3,0,.4,0,.1.1.2.2.3,0,0,.2.2.3.2.1,0,.3,0,.4,0h5.1c1.7,0,3.3-.7,4.5-1.9,1.2-1.2,1.9-2.9,1.9-4.7v-8.3c0-.9-.1-1.7-.4-2.5-.3-.8-.8-1.5-1.4-2.1-.6-.6-1.3-1.1-2.1-1.4-.8-.3-1.6-.5-2.4-.5h-5.1c-.3,0-.6,0-.8.3-.2.2-.3.5-.3.7ZM131.5,170.8c0-5.8-2.3-11.4-6.4-15.5-4.1-4.1-9.7-6.4-15.5-6.4s-11.4,2.3-15.5,6.4-6.4,9.7-6.4,15.5,2.3,11.4,6.4,15.5c4.1,4.1,9.7,6.4,15.5,6.4s11.4-2.3,15.5-6.4c4.1-4.1,6.4-9.7,6.4-15.5ZM49,172.7v23.5c0,0,0,.2,0,.3,0,0,0,.2.1.2,0,0,.1.1.2.1,0,0,.2,0,.3,0h7.2c1.6,0,3.2-.8,4.4-2.1,1.2-1.4,1.8-3.2,1.8-5.1v-10.3c0-1-.1-1.9-.5-2.8-.3-.9-.8-1.7-1.3-2.4-.6-.7-1.3-1.2-2-1.6-.8-.4-1.6-.6-2.4-.6h-7.2c-.2,0-.3,0-.5.2-.1.1-.2.3-.2.5Z"/>
  <path class="cls-1" d="M151.5,87.9l18.7.2c.1,0,.3,0,.4.2,0,0,.2.2.2.4v10.2c0,.2,0,.3-.2.5-.1.1-.3.2-.5.2h-18.4c-.1,0-.3,0-.4.2-.1.1-.2.2-.2.4l-.3,15.8c0,.2,0,.4,0,.5,0,.2.2.3.3.4.1.1.3.2.4.3.2,0,.3.1.5.1h22.3c.1,0,.2,0,.3,0,.1,0,.2.1.3.2s.1.2.2.3,0,.2,0,.3v9.5c0,.3,0,.5-.3.7-.2.2-.4.3-.7.3h-35.5c-.1,0-.3,0-.4-.2-.1-.1-.2-.2-.2-.4V58.8c0-.3.1-.6.3-.8.2-.2.5-.3.8-.3h34.6c.2,0,.3,0,.5,0,.2,0,.3.2.4.3.1.1.2.3.3.4,0,.2,0,.3,0,.5v9.1c0,.3-.1.7-.4.9s-.6.4-.9.4h-22.4c-.1,0-.2,0-.3.1,0,0-.1.2-.2.3-.5,2.2-.1,4.9-.2,6.5-.1,3.8,0,7.5.2,11.3,0,.2.1.3.4.3Z"/>
  <path class="cls-1" d="M199.7,213.1h20c0,0,0,0,.1,0,0,0,0,0,0,0,0,0,0,0,0,0,0,0,0,0,0,.1v18.8c0,0,0,.2,0,.2,0,0-.1,0-.2,0h-19.9c0,0-.2,0-.2,0,0,0,0,.1,0,.2v20c0,0,0,.2,0,.2,0,0-.1,0-.2,0h-18.8c0,0-.2,0-.2,0,0,0,0-.1,0-.2v-20c0,0,0-.2,0-.2,0,0-.1,0-.2,0h-19.8c0,0-.2,0-.2,0,0,0,0-.1,0-.2v-18.8c0,0,0-.2,0-.2,0,0,.1,0,.2,0h19.8c0,0,.2,0,.2,0,0,0,0-.1,0-.2v-19.6c0,0,0-.2,0-.2,0,0,.1,0,.2,0h18.7c0,0,.2,0,.2.1,0,0,0,.1,0,.2v19.7s0,0,0,.1c0,0,0,0,0,0s0,0,0,0c0,0,0,0,.1,0Z"/>
  <path class="cls-1" d="M40.7,227.2l-4.2-4.2s0,0,0,0c0,0,0,0,0,0s0,0,0,0c0,0,0,0,0,0l4.3-4.3s0,0,0,0c0,0,0,0,0,0s0,0,0,0c0,0,0,0,0,0l-4.6-4.6s0,0,0-.1c0,0,0,0,0-.1,0,0,0,0,0-.1,0,0,0,0,.1,0h118.2c0,0,.1,0,.2,0,0,0,0,.1,0,.2v19c0,0,0,.1,0,.2,0,0-.1,0-.2,0H36.3s0,0-.1,0c0,0,0,0,0-.1,0,0,0,0,0-.1,0,0,0,0,0-.1l4.6-4.6s0,0,0,0c0,0,0,0,0,0s0,0,0,0c0,0,0,0,0,0Z"/>
</svg>