<?xml version="1.0" encoding="UTF-8"?>
<svg id="Camada_1" data-name="Camada 1" xmlns="http://www.w3.org/2000/svg" version="1.1" viewBox="0 0 256 256">
  <defs>
    <style>
      .cls-1 {
        fill: #fff;
        fill-rule: evenodd;
        stroke-width: 0px;
      }
    </style>
  </defs>
  <path class="cls-1" d="M39,169.7c-6-12.8-9.3-27.1-9.3-42.2,0-54.6,44-98.9,98.3-98.9,54.3,0,98.3,44.3,98.3,98.9s-6.1,39.2-16.5,54.9l-7.2-13.4-5.6-4.8-3.9-12.1-15.2-31-16.3-7.3s-6.7-11.5-7.6-13.1c-2.9-8.6-7.3-21.6-7.3-21.6l-5.2-10-10.6-7.6-6.2,4.6-9.7,13.8-4.5,3.7-9.6,15-6.9,6.3-14.1,19.9-3.7,1.7-37.1,43.1ZM202.7,183.6l-4.7-9.9-6.9-6.7-17.6-39.6-8.3-2.7-2.1,2.7-1.5.2-2.9-8.5-10.5-17.6-7.7-23.5-8.1-8.2s.3,23.2.3,23.8c0,.5-6.2,18.6-6.2,18.6l8.4,5.5-14.6,39.5,2.9,1.8-7.6,17.4,9.8,10.6h13.8l-2-6.4,22.1,8.2h23.8l-5.9-10.9-3.1-11.2,12.9,16.6h15.8ZM56,164.8l15.4-25.2,7.5-8.7h.9s-7.8,14.7-7.8,14.7l-3.2,2-11.7,16.9-1.2.3ZM62.9,209.1c7.3-2.1,15.6-7,15.6-15.8s-10.6-15-23.3-15-25.9,6-30.5,15.4c-1.2,2.5-1.9,5.2-1.9,8.1s.6,4.9,1.9,6.8c2,2.9,5.4,4.7,10.6,4.7s11.3-3.5,11.3-9.5c0,0,0-1.7-1.9-1.7s-2,1.1-2,1.7c.2,4.7-2.5,8.5-7.5,8.5s-7.9-4.8-7.9-9.9c0-10.4,7.8-17.4,15.9-20.3,4.2-1.5,7.5-2.1,11.9-2.1,9.2,0,16.7,3.6,16.7,13.1s-6.6,14.8-14.6,15.3l.3-1.1c1.7-5.8,3.6-12.2,6.9-17,.2-.3.5-.8.9-1.2l-.4-.6c-.6.3-1.6,1.1-2,1.4-6.3,4.9-10.1,13.6-13.8,22-5.3,12-10.3,23.6-22.3,23.6s-1.4,0-2.1-.2c-4.2-.7-6.5-3.6-6.4-7.5,0-.4,0-.9.1-1.4,0-.4.1-.8.1-1.1,0-1-.7-2.1-2.2-2.1s-2.6,1.4-2.6,3.5c-.1,6,4.3,9.5,11,10.1.7,0,1.5.1,2.3.1,15.8,0,25.6-12.1,29.7-26.7,1.9-.2,5-.9,6.2-1.3ZM233.2,196.6h1.7v4.8h1.3v-4.8h1.7v-1.2h-4.7v1.2ZM242.1,199.3l-1.4-3.9h-2v6h1.3v-4.6l1.5,4.6h1l1.6-4.6h0v4.6h1.3v-6h-2l-1.4,3.9ZM198.4,239h3.6l-4.7,5.7,5.3,8.2h-3.3l-3.8-5.9-1.7,2.1v3.8h-2.9v-13.8h2.9v5.7l4.7-5.7ZM177.5,247.4l2.9,5.4h-3.2l-2.7-5h-2.3v5h-2.9v-13.8h5.9c1.3,0,2.4.4,3.2,1.2.8.8,1.2,1.9,1.2,3.3s-.8,3.3-2.2,4ZM174.9,241.5c1.1,0,1.9.7,1.9,1.9s-.8,1.9-1.9,1.9h-2.7v-3.8h2.7ZM157,240.7c1.3,1.3,2,3,2,5.1s-.7,3.9-2,5.2c-1.3,1.3-3,1.9-5.1,1.9s-3.8-.7-5.1-1.9c-1.4-1.3-2-3-2-5.2s.7-3.8,2-5.1c1.3-1.3,3-2,5.1-2s3.8.6,5.1,2ZM155,242.5c.8.8,1.2,1.9,1.2,3.3s-.4,2.5-1.2,3.4c-.8.8-1.8,1.2-3.1,1.2s-2.3-.4-3.1-1.2c-.8-.8-1.2-1.9-1.2-3.4s.4-2.5,1.2-3.3c.8-.8,1.8-1.2,3.1-1.2s2.3.4,3.1,1.2ZM130.7,248l-2.9-9h-2.3l-2.9,9-3-9h-3.1l4.8,13.8h2.4l2.9-8.8,2.9,8.8h2.4l4.8-13.8h-3.1l-2.9,9ZM100.1,241.5h-4.6v-2.5h12v2.5h-4.6v11.3h-2.8v-11.3ZM79.2,246.9h5.2v-2.5h-5.2v-3h6v-2.5h-8.8v13.8h8.8v-2.5h-6v-3.3ZM55.9,239l6,8.6v-8.6h2.8v13.8h-2.4l-6-8.6v8.6h-2.8v-13.8h2.4ZM226.1,204.8h3.6l-.7,1.7h-3.7c0,.1-.1.3-.2.5h0c0,0,0,0,0,0h0s0,0,0,0c-.5,1.1-1.4,3.2-2.4,5.4-1.4,3.3-3,6.7-3,6.9-1.1,2.7-1.8,4.7-1.8,6.2s.8,2.1,1.9,2.1,1.9-.4,2.9-1.1c1.5-1.1,3-3,4.3-4.9l1,.9c-1.5,2.1-3.2,4.3-5.3,5.8-1.5,1-3.1,1.7-5.1,1.7-2.7,0-4.7-1.6-4.7-4.9s.2-2.4.7-3.6c-1.7,2.4-5.1,5.6-8.3,5.6s-3.1-1.4-3.1-3.2.4-2.6,1-3.9c.6-1.4,1.5-3.3,2.6-5.7h0s0,0,0,0h0c.2-.4.3-.8.5-1.2h0c1.1-2.3,2.1-4.4,2.1-5.3s-.3-.9-.8-.9c-2.4,0-4.9,3.5-7.5,9.3l-4.5,10.3h-5.7l1.7-4c-2.1,2.5-4.1,4.4-6.8,4.4s-2.8-1.6-2.8-3.3.1-1.3.2-1.9h0c-2.2,3-5.3,5.2-7.6,5.2s-3.4-1.4-3.4-3.4.4-2.3,1-3.8c.8-2,2-4.4,3-6.6l.9-1.9c-.9.4-1.7.6-2.4.6s-1.4-.1-1.8-.4c-.1,1.6-.7,3.8-1.8,6.3-2.5,5.6-6.7,9.2-11.8,9.2s-6-2.5-6.2-5.5v-.8c-2.8,3.7-5.3,6.2-8.5,6.2s-3.4-1.5-3.4-3.1.4-2.3.8-3.3l5-10.8c.4-.9.5-1.5.5-1.9,0-.6-.2-.9-.8-.9-1.8,0-4.3,2.5-6.6,7.6l-5.2,11.9h-5.7s7.5-17,7.5-17c.3-.8.5-1.3.5-1.7,0-.5-.3-.8-.7-.8-1.5,0-4.5,2.7-6.7,7.7l-5.1,11.7h-5.6l1.7-3.9c-2.3,2.9-4.2,4.3-6.5,4.3s-3.1-1.5-3.1-3.4,0-1,.1-1.3c-1.5,1.9-4.2,4.7-7.1,4.7s-4.2-1.7-4.2-4.4c0-3.2,1.9-7.2,4.6-10.9-1.2.7-2.5,1.3-3.6,1.3s-2-.7-2-1.8.3-1.3.5-1.8c.2-.3.3-.6.3-.8s0-.2-.3-.2c-.6,0-2.6,2.1-4.3,6l-5.3,12.2h-5.5l1.7-4c-2.1,2.7-4.8,4.4-6.8,4.4s-3-1.4-3-3.2,0-.7.1-.9h0s0,0,0,0c0,0,0-.1,0-.2-1.5,1.9-4,4.4-7.1,4.4s-4.2-1.7-4.2-4.4c0-3.4,2-7.5,5-11.4,2.7-3.6,7.7-7.1,12.9-7.1s6.2.6,5.8,1.6l-5.7,13.1c-.5,1.1-1.4,3.3-1.4,4.2s.3.8.7.8c1.9,0,5.2-4.8,7.3-9.4l4.3-9.8h5l-1.5,3.6c1.8-2,4.2-4,6.3-4s1.5.5,1.5,1.3-.7,2.2-1.2,3.2c-.4.7-.7,1.2-.7,1.6s.2.4.5.4c.7,0,2.1-.8,4-2.4,2.7-2.2,6.4-4,10-4s6.2.6,5.8,1.6l-5.7,13.1v.3c-.5,1-1.4,2.9-1.4,3.7s.3.8.7.8c1.9,0,5.2-4.6,7.2-9.2l4.3-9.8h5.2l-1.5,3.7c2.3-2.7,4.8-4.1,7.2-4.1s2.9,1,2.9,2.8,0,.9,0,1.2c2.3-2.6,5.2-4.1,7.8-4.1s3.1,1.2,3.1,2.9-.6,2.9-1.5,5.1l-.2.5-3.7,7.9h0c-.2.6-.7,1.7-.7,2.3s.3.8.7.8c1.6,0,3.7-2.6,5.7-5.9.9-2.8,1.9-5.2,3.3-7.5,2.2-3.4,5.5-6.1,10.1-6.1s5.6,1.9,6,5.5c.3.4.7.8,1.8.8,2.2,0,3.6-1.9,4.4-3.6l1.1-2.4h5.7l-4.9,10.7-2.4,5.2c-.3.8-.8,1.8-.8,2.4s.3.8.8.8c2.2,0,5.8-5.4,7.2-8.7l4.5-10.4h5.7l-4.7,10.7s-2.6,6-2.7,6.4c-.2.4-.3,1-.3,1.2,0,.5.2.7.6.7,2.2,0,5.7-5.7,7.4-9.2l4.3-9.8h5.3l-1.4,3.4c2.1-2.3,4.4-3.8,7-3.8s3.4,1.4,3.4,3.3-1.8,5.4-2.9,7.8h0c-.8,1.8-1.9,4-2.5,5.5-.6,1.3-.7,1.7-.7,2.2s.3.7.7.7c2.1,0,5.8-5,8.1-10.1l3.2-7.2h-2.7l.8-1.7h2.6l2.2-5,1.3-2.9h5.6l-3.4,7.9ZM166,206.3c1.1,0,1.4.9,1.4,2.1,0,3-2.7,10.4-5.9,14.8-1.2,1.8-2.3,2.3-3.3,2.3s-1.7-1.1-1.5-2.7c.3-2.8,2.5-9.2,5.7-13.6,1.4-2,2.4-2.9,3.5-2.9ZM113.3,214.1h0l3.6-8c-2.8,0-5.4,2-7.4,4.7-2.9,3.9-5.1,8.8-5.2,11.6,0,1.1.6,1.3,1.4,1.3,2.2,0,5-3.6,7.7-9.7ZM82.1,206.2l-3.5,8c-2.6,6-5.5,9.7-7.7,9.7s-1.3-.3-1.4-1.3c0-2.8,2.3-7.7,5.2-11.6,2-2.7,4.6-4.7,7.4-4.7ZM90.3,177l1.4-5.3.8-3.4,9.6-17.5,1.1,1.1-2.9,7.8-2.3,10.5-6.4,7.4-1.4-.6ZM104.2,114.7l-4.8,6.5-2.6,1.9-9.9,15.6,1,1.8-11.1,24.8h.8s6.7-8.1,6.7-8.1l6.1-10.2,3.1-1.6,6.9-13.3.8-8.2,3.9-9.3h-.9ZM73.5,26.5l.9,6.6,3-6,6.5,1.1-4.7-4.7,3.1-6-5.9,3.1-4.7-4.8,1.1,6.7-6,2.9,6.6,1.1ZM92.9,24.8l4.1-5.3,6.2,2.3-3.8-5.5,4.2-5.3-6.4,1.9-3.7-5.6-.2,6.7-6.4,1.7,6.3,2.3-.3,6.7ZM112.6,20l5-4.4,5.7,3.4-2.7-6.1,5-4.4-6.6.7-2.6-6.2-1.4,6.6-6.6.5,5.8,3.4-1.5,6.5ZM237,175.2l6.7.6-5.2-4.3,2.6-6.2-5.7,3.6-5-4.4,1.6,6.5-5.7,3.5,6.6.4,1.6,6.5,2.4-6.3ZM246,143.5l-4.9,4.6-5.8-3.3,2.8,6.1-4.9,4.5,6.6-.8,2.8,6.1,1.2-6.6,6.7-.7-5.9-3.3,1.4-6.5ZM242.7,133.2l3.8,5.5v-6.7l6.4-1.9-6.4-2.1.2-6.7-4,5.4-6.3-2.2,3.9,5.5-4,5.3,6.3-2ZM243.4,99.2l-2.9,6.1-6.6-1,4.8,4.6-3,6,5.8-3.2,4.8,4.7-1.2-6.6,6-3.1-6.6-.9-1-6.6ZM227.7,84.9l5.6,3.7-1.8,6.4,5.2-4.2,5.6,3.7-2.4-6.3,5.3-4.1-6.7.4-2.2-6.3-1.8,6.5-6.6.2ZM224.1,69.6l-.6,6.6,4.3-5.1,6.2,2.6-3.6-5.7,4.4-5.1-6.5,1.6-3.4-5.8-.6,6.7-6.5,1.5,6.1,2.6ZM205.2,51.3l6.5,1.4.7,6.7,3.3-5.8,6.5,1.4-4.5-4.9,3.4-5.8-6.1,2.8-4.4-5.1.7,6.7-6.1,2.7ZM196.3,38.4l1.9,6.4,2.2-6.3,6.7.2-5.4-4,2.3-6.3-5.5,3.9-5.2-4.1,1.9,6.4-5.5,3.7h6.6ZM178.6,27.2l3,6,.9-6.6,6.6-1-6-2.9,1.1-6.7-4.7,4.8-5.9-3.1,3.1,6-4.7,4.7,6.6-1.1ZM152.8,21.8l6.2-2.3,4.1,5.3-.3-6.7,6.3-2.3-6.5-1.8-.2-6.7-3.7,5.6-6.4-1.9,4.2,5.3-3.8,5.5ZM132.8,19l5.7-3.4,5,4.4-1.5-6.5,5.8-3.4-6.6-.5-1.4-6.6-2.6,6.2-6.7-.7,5.1,4.4-2.7,6.1ZM21.4,181.4l1.6-6.5,6.6-.4-5.7-3.5,1.6-6.5-5,4.4-5.7-3.6,2.6,6.2-5.2,4.3,6.7-.6,2.4,6.3ZM16.2,154.5l6.6.8-4.9-4.5,2.8-6.1-5.7,3.3-4.9-4.6,1.4,6.5-5.9,3.3,6.7.7,1.2,6.6,2.8-6.1ZM9.4,138.7l3.8-5.5,6.3,2-4-5.4,3.8-5.5-6.2,2.2-4-5.4.2,6.7-6.4,2.1,6.4,1.9v6.7ZM9.7,116.4l4.8-4.7,5.8,3.2-3-6,4.8-4.6-6.6,1-2.9-6.1-1.1,6.6-6.6.9,6,3.1-1.3,6.6ZM13.9,94.5l5.6-3.7,5.2,4.2-1.8-6.4,5.5-3.7-6.6-.2-1.8-6.5-2.2,6.3-6.7-.3,5.3,4.1-2.4,6.3ZM22,73.8l6.2-2.6,4.3,5.1-.6-6.7,6.1-2.6-6.5-1.5-.5-6.7-3.4,5.8-6.5-1.6,4.4,5.1-3.5,5.7ZM40.4,53.5l3.3,5.8.7-6.6,6.5-1.4-6.1-2.6.7-6.7-4.4,5.1-6.1-2.8,3.4,5.8-4.5,4.9,6.5-1.4ZM49,38.7l5.4-4-2.3-6.4,5.5,3.9,5.2-4.1-2,6.4,5.5,3.7h-6.6c0,.1-1.9,6.6-1.9,6.6l-2.1-6.3-6.7.2Z"/>
</svg>