<?xml version="1.0" encoding="UTF-8"?>
<svg id="_Слой_1" data-name="Слой 1" xmlns="http://www.w3.org/2000/svg" version="1.1" viewBox="0 0 256 256">
  <defs>
    <style>
      .cls-1 {
        fill: #fff;
        stroke-width: 0px;
      }
    </style>
  </defs>
  <path class="cls-1" d="M205.1,126.2v-3.5c0-.5-.4-.9-.9-.9h-15.6c-.5,0-.9.4-.9.9v4.5c.2,0,.6-.1.9-.1h15.6c.5,0,.9-.4.9-.9Z"/>
  <path class="cls-1" d="M70.6,126.2v-3.5c0-.5-.4-.9-.9-.9h-15.6c-.5,0-.9.4-.9.9v4.5c.2,0,.6-.1.9-.1h15.6c.5,0,.9-.4.9-.9Z"/>
  <path class="cls-1" d="M38,121.9h-15.8c-.5,0-.9.4-.9.9v4.6c.2,0,.7-.1.9-.1h15.8c.5,0,.9-.4.9-.9h0v-3.6c0-.5-.4-.9-.9-.9Z"/>
  <path class="cls-1" d="M249.2,108.1H6.8c-2,0-3.8,1.6-3.8,3.8v32.2c0,2,1.6,3.8,3.8,3.8h242.4c2,0,3.8-1.6,3.8-3.8v-32.2c0-2.1-1.6-3.8-3.8-3.8ZM43.3,126.2c0,3.1-2.5,5.6-5.5,5.6h-15.5c-.5,0-.9.4-.9.9v6.1h-4.6v-16.1c0-3,2.5-5.5,5.6-5.5h15.5c3,0,5.6,2.5,5.6,5.5v3.5ZM69.4,138.6l-6.8-6.8h-8.5c-.5,0-.9.4-.9.9v6.1h-4.8v-16.1c0-3,2.5-5.5,5.5-5.5h15.6c3.1,0,5.6,2.5,5.6,5.5v3.6c0,3-2.5,5.5-5.6,5.5h-.5l7,6.8h-6.7ZM104.8,138.6h-18.5c-3.8,0-5.9-2.8-5.9-5.4v-10.5c0-2.2,1.9-5.6,5.5-5.6h18.8v4.5h-18.5c-.6,0-.9.4-.9.7v2.9h19.3v4.6h-19.3v3.4c0,.5.5.7.9.7h18.5v4.7ZM138,138.6h-4.9v-15.3l-6.9,12.8h-4.2l-7.3-12.8v15.5h-4.9v-21.6h5.9l8.1,14.1,8.3-14.1h5.9v21.4ZM148.4,138.8h-5v-21.7h5v21.7ZM177.9,138.6h-18.4c-3.8,0-6-2.8-6-5.4v-10.5c0-2.2,1.9-5.6,5.6-5.6h18.8v4.5h-18.4c-.6,0-.9.4-.9.7v2.9h19.3v4.6h-19.3v3.4c0,.5.5.7.9.7h18.4v4.7ZM204,138.6l-6.8-6.8h-8.5c-.5,0-.9.4-.9.9v6.1h-4.7v-16.1c0-3,2.5-5.5,5.5-5.5h15.6c3.1,0,5.6,2.5,5.6,5.5v3.6c0,3-2.5,5.5-5.6,5.5h-.6l7,6.8h-6.7ZM239.4,138.6h-18.4c-3.8,0-6-2.8-6-5.4v-10.5c0-2.2,1.9-5.6,5.6-5.6h18.8v4.5h-18.4c-.6,0-.9.4-.9.7v2.9h19.3v4.6h-19.3v3.4c0,.5.5.7.9.7h18.4v4.7Z"/>
</svg>