<?xml version="1.0" encoding="UTF-8"?>
<svg id="Camada_1" data-name="Camada 1" xmlns="http://www.w3.org/2000/svg" xmlns:xlink="http://www.w3.org/1999/xlink" version="1.1" viewBox="0 0 445 150">
  <defs>
    <style>
      .cls-1 {
        fill: #ef3829;
      }

      .cls-1, .cls-2, .cls-3, .cls-4 {
        stroke-width: 0px;
      }

      .cls-2 {
        fill: url(#Gradiente_sem_nome_2);
      }

      .cls-3 {
        fill: #000;
      }

      .cls-5 {
        fill: none;
        stroke: #ef3829;
        stroke-miterlimit: 10;
      }

      .cls-6 {
        isolation: isolate;
      }

      .cls-4 {
        fill: #fff;
      }
    </style>
    <linearGradient id="Gradiente_sem_nome_2" data-name="Gradiente sem nome 2" x1="413.2" y1="-156" x2="478.9" y2="-221.7" gradientTransform="translate(-223.5 -92.4) scale(1 -1)" gradientUnits="userSpaceOnUse">
      <stop offset="0" stop-color="#fe012f"/>
      <stop offset="1" stop-color="#fe8e04"/>
    </linearGradient>
  </defs>
  <g id="Camada_1-2" data-name="Camada 1-2">
    <g>
      <line class="cls-5" x1="219.2" y1="46" x2="225.8" y2="46"/>
      <path class="cls-5" d="M222.5,46"/>
      <path class="cls-5" d="M222.5,46"/>
      <path class="cls-5" d="M222.5,46"/>
      <line class="cls-5" x1="218.7" y1="46" x2="226.3" y2="46"/>
      <path class="cls-5" d="M252.1,46h175.1c8.9,0,16,7.3,16,16.3v68.8c0,9-7.2,16.3-16,16.3H17.7c-8.9,0-16-7.3-16-16.3V62.3c0-9,7.2-16.3,16-16.3h172.8"/>
      <path class="cls-4" d="M234.8,46c0,6.8-5.5,12.3-12.3,12.3s-12.3-5.5-12.3-12.3,5.5-12.3,12.3-12.3,12.3,5.5,12.3,12.3"/>
      <g class="cls-6">
        <path class="cls-1" d="M221.1,47.1h-5.2v-2.5h5.2v-5.3h2.6v5.3h5.2v2.5h-5.2v5.3h-2.6v-5.3Z"/>
      </g>
    </g>
    <g id="globoplay">
      <rect class="cls-2" x="187.9" y="61.8" width="69.3" height="69.3" rx="4.8" ry="4.8"/>
      <path class="cls-4" d="M240.1,114.7c-.4-.2-.3-.6,0-.9,0,0,0-.2.2-.4.3-.7.9-.9,1.6-.8h.9c.3,0,.5-.3.7-.6.3-.5.6-1.1.9-1.7,0,0-2.9-6.5-4.2-9.5-.4-.8-.3-.9.6-.9h2.2s.2.2.3.4c.8,2,2.4,6.2,2.4,6.2.3-.9.7-1.9,1-2.7.4-1.2.8-2.3,1.2-3.5,0-.2,0-.4.3-.5.2,0,.4-.2.5,0h1.6c.5,0,.9.2.6.9-.6,1.7-1.3,3.3-2,5-.8,2-1.9,4.5-2.7,6.6-.5,1.2-1.7,3.1-3.7,3.1s-1.7-.2-2.3-.7h-.1Z"/>
      <path class="cls-4" d="M214.2,109.8v4.4c0,.7-.4,1-1.1,1h-1.1c-.5,0-.6-.2-.6-.7v-13.9c0-.5.2-.7.7-.6h1.2c.9,0,.8.2.8,1.1,3-2.8,7.4-.7,8.2,2.9.3,1.2.2,2.6-.3,3.7-.5,1.2-1.4,2.1-2.6,2.7-.7.4-1.5.6-2.3.5-.8,0-1.5-.3-2.2-.8-.2,0-.4-.2-.7-.4h0ZM214.1,105.3c0,.4,0,.7.2,1.1,0,.3.3.7.6.9.2.3.6.5.9.6.3.2.7.2,1.1.2s.7,0,1.1-.2c.3,0,.6-.4.9-.6.3-.3.4-.6.6-.9,0-.3.2-.7,0-1.1,0-1.6-.9-2.8-2.6-2.8s-.7,0-1.1.2c-.3,0-.7.3-.9.6-.3.3-.5.6-.6.9,0,.4-.2.7-.2,1.1h0Z"/>
      <path class="cls-4" d="M236.1,101q0-1,1.1-1h1c.6,0,.7.2.7.7v9.3c0,.5-.2.8-.8.8h-.9c-1,0-1.2,0-1.2-1.1-.4.4-.8.7-1.3.9-.5.2-1,.3-1.6.3s-1.2,0-1.8-.2c-.6-.2-1.1-.5-1.5-.9-.7-.6-1.2-1.3-1.6-2.1-.4-.8-.5-1.7-.5-2.6s.3-1.8.7-2.6c.4-.8,1.1-1.5,1.8-2,.8-.5,1.7-.8,2.6-.8s1.8.3,2.6.9l.5.3h.2,0ZM230.7,105.3c0,1.7,1.1,2.9,2.6,2.9s.7,0,1.1-.2c.3,0,.6-.4.9-.6.3-.3.4-.6.6-.9,0-.3.2-.7,0-1.1,0-.4,0-.7-.2-1.1,0-.3-.3-.7-.6-.9-.3-.3-.6-.5-.9-.6s-.7-.2-1.1-.2-.7,0-1,.2c-.3,0-.6.4-.9.6-.2.3-.4.6-.6.9s-.2.7-.2,1.1h.3Z"/>
      <path class="cls-4" d="M226.5,103.1v6.9c0,.5-.2.7-.7.7h-1.4c-.6,0-.8-.2-.8-.8v-13.5c0-.8,0-.9.9-.9h1.3c.5,0,.7.2.7.7v6.9Z"/>
      <path class="cls-4" d="M199.6,98.4c-1.6,0-3.2-.4-4.5-1.4-.5-.4-.5-.7-.3-1.1.2-.3.3-.7.5-1,.3-.6.6-.7,1.1-.3,1,.7,2.3,1,3.5,1,2,0,2.8-1.3,2.7-3-.4.4-.8.7-1.3.9-.5.2-1,.3-1.5.2-1.1,0-2.2-.4-3.1-1-.8-.6-1.4-1.4-1.8-2.3s-.5-1.9-.3-2.9c0-1.1.6-2.1,1.3-2.9s1.6-1.4,2.7-1.7c.7-.2,1.5-.3,2.3,0,.8.2,1.4.6,2,1.2,0-.5,0-.8.2-1,.3,0,.7-.2,1,0,1.1,0,1.6.3,1.5,1v7.9c0,3-.9,6.7-6,6.7v-.2h0ZM202.8,88.2v-1.1c0-.3-.3-.7-.6-.9-.2-.3-.5-.5-.9-.6-.3,0-.7-.2-1.1-.2s-.7,0-1.1.2c-.3,0-.7.3-.9.6-.3.3-.5.6-.6.9s-.2.7,0,1.1c0,1.8,1.2,2.9,2.7,2.9s.7,0,1.1-.2c.3,0,.6-.4.9-.6.2-.3.4-.6.6-.9,0-.3.2-.7,0-1.1h-.1Z"/>
      <path class="cls-4" d="M226.6,83.7c.8-.7,1.8-1.1,2.8-1.1s1.6.2,2.3.5c.7.4,1.3.9,1.8,1.5,1.5,1.9,1.6,5.5,0,7.4-.4.5-.9.9-1.5,1.2-.6.3-1.2.5-1.9.5s-1.3,0-1.9-.2-1.2-.5-1.7-1v.8c-.2.3-2.3.3-2.5,0v-14.3c0-.6.2-.8.8-.8h1.4c.6,0,.8.3.8.8v4.7h-.4ZM229.1,85.4c-1.5,0-2.6,1.1-2.7,2.8v1.1c0,.3.3.7.6.9.2.3.5.5.9.6.3,0,.7.2,1.1.2s.7,0,1.1-.2c.3,0,.6-.4.9-.6.3-.3.4-.6.6-.9,0-.3.2-.7.2-1.1v-1.1c0-.3-.3-.7-.6-.9-.3-.3-.6-.5-.9-.6s-.7-.2-1.1-.2h-.1Z"/>
      <path class="cls-4" d="M222.4,88.2c0,.7,0,1.5-.4,2.2-.3.7-.7,1.3-1.2,1.9-.5.5-1.1,1-1.8,1.2-.7.3-1.4.4-2.2.4s-1.5-.2-2.2-.5-1.3-.7-1.8-1.3c-.5-.5-.9-1.2-1.2-1.9s-.4-1.4-.4-2.2c0-1.5.6-2.9,1.7-3.9s2.5-1.6,3.9-1.6,1.5,0,2.1.4c.7.3,1.3.7,1.8,1.2s.9,1.1,1.2,1.8c.3.7.4,1.4.4,2.1v.2h.1ZM219.4,88.3v-1.1c0-.3-.3-.7-.5-.9-.2-.3-.5-.5-.9-.6-.3-.2-.7-.2-1-.3s-.7,0-1.1.2c-.3,0-.6.3-.9.6-.3.2-.5.5-.6.9,0,.3-.2.7-.2,1v1.1c0,.4.3.7.6,1s.6.5.9.7.7.3,1.1.3.7,0,1.1-.2c.3,0,.6-.4.9-.6.3-.3.5-.6.6-.9s.2-.7.2-1.1h-.2Z"/>
      <path class="cls-4" d="M235.8,88.2c0-1.5.6-2.9,1.7-3.9s2.5-1.6,3.9-1.6,2.9.6,3.9,1.7,1.6,2.5,1.6,3.9-.2,1.4-.5,2.1-.7,1.3-1.2,1.8-1.1.9-1.8,1.2c-.7.3-1.4.4-2.1.4-1.5,0-2.9-.6-3.9-1.7s-1.6-2.5-1.6-3.9ZM244.1,88.2c0-.4,0-.7-.2-1.1,0-.3-.3-.7-.6-.9-.3-.3-.6-.5-.9-.6s-.7-.2-1.1-.2-.7,0-1.1.3c-.3.2-.6.4-.9.7-.2.3-.4.6-.5,1s0,.7,0,1.1c0,.7.3,1.4.8,1.9s1.2.8,1.9.8.7,0,1.1-.3.6-.4.9-.7c.2-.3.4-.6.5-.9s.2-.7,0-1.1h.1Z"/>
      <path class="cls-4" d="M207.1,86v-7.1c0-.8.3-1.1,1.4-.7,1.2.5,1.5.6,1.5,1.6v12c0,.8,0,1.1-.9,1.5-.2,0-.6.3-.9.4-.6.2-1.1,0-1.1-.8v-7h0Z"/>
    </g>
    <g>
      <path class="cls-3" d="M45.9,11.8h-4.8v16.2h-2V11.8h-4.8v-1.7h11.6v1.7Z"/>
      <path class="cls-3" d="M49.4,25.8c-1.2-1.6-1.9-3.9-1.9-6.8s.6-5.2,1.9-6.8c1.2-1.6,3.1-2.5,5.5-2.5s4.2.8,5.5,2.5c1.2,1.6,1.9,3.9,1.9,6.8s-.6,5.2-1.9,6.8-3.1,2.5-5.5,2.5-4.2-.8-5.5-2.5ZM50.9,24.6c.9,1.3,2.2,2,4,2s3.1-.7,4-2,1.3-3.2,1.3-5.6-.4-4.3-1.3-5.6c-.9-1.3-2.2-2-4-2s-3.2.7-4,2c-.9,1.3-1.3,3.2-1.3,5.6s.4,4.3,1.3,5.6Z"/>
      <path class="cls-3" d="M72,10c2.4,0,4.3.8,5.6,2.4s1.9,3.8,1.9,6.6-.7,5-2,6.6-3.1,2.4-5.5,2.4h-6V10h6ZM72,26.3c1.9,0,3.2-.6,4.1-1.9s1.4-3.1,1.4-5.4-.5-4.1-1.4-5.4c-.9-1.3-2.3-1.9-4.1-1.9h-4v14.6s4,0,4,0Z"/>
      <path class="cls-3" d="M84,25.8c-1.2-1.6-1.9-3.9-1.9-6.8s.6-5.2,1.9-6.8c1.2-1.6,3.1-2.5,5.5-2.5s4.2.8,5.5,2.5c1.2,1.6,1.9,3.9,1.9,6.8s-.6,5.2-1.9,6.8-3.1,2.5-5.5,2.5-4.2-.8-5.5-2.5ZM85.4,24.6c.9,1.3,2.2,2,4,2s3.1-.7,4-2,1.3-3.2,1.3-5.6-.4-4.3-1.3-5.6-2.2-2-4-2-3.2.7-4,2c-.9,1.3-1.3,3.2-1.3,5.6s.4,4.3,1.3,5.6Z"/>
      <path class="cls-3" d="M101.3,11c1.1-.8,2.5-1.3,4.2-1.3s1.4,0,2.1.2c.7.1,1.3.3,1.9.5v1.8c-.6-.2-1.3-.4-2-.6-.7-.1-1.4-.2-2.1-.2-1.1,0-2,.3-2.6.8s-1,1.3-1,2.3.2,1.5.7,2,1.2.9,2.2,1.3l1.6.6c1.3.5,2.2,1.1,2.9,1.9s1,1.8,1,3-.5,2.8-1.6,3.7c-1,.9-2.4,1.4-4.1,1.4s-1.8-.1-2.8-.4c-.9-.2-1.8-.6-2.4-1v-1.8c.7.5,1.6.8,2.5,1.1.9.3,1.8.4,2.7.4s2-.3,2.7-.8,1-1.3,1-2.3-.3-1.6-.8-2.1-1.3-1-2.5-1.4l-1.4-.5c-1.3-.5-2.3-1.1-3-1.9s-1-1.7-1-2.9.5-2.8,1.6-3.6l.2-.2Z"/>
      <path class="cls-3" d="M119.8,25.8c-1.2-1.6-1.9-3.9-1.9-6.8s.6-5.2,1.9-6.8c1.2-1.6,3.1-2.5,5.5-2.5s4.2.8,5.5,2.5c1.2,1.6,1.9,3.9,1.9,6.8s-.6,5.2-1.9,6.8-3.1,2.5-5.5,2.5-4.2-.8-5.5-2.5ZM121.3,24.6c.9,1.3,2.2,2,4,2s3.1-.7,4-2,1.3-3.2,1.3-5.6-.4-4.3-1.3-5.6c-.9-1.3-2.2-2-4-2s-3.2.7-4,2c-.9,1.3-1.3,3.2-1.3,5.6s.4,4.3,1.3,5.6Z"/>
      <path class="cls-3" d="M137.2,11c1.1-.8,2.5-1.3,4.2-1.3s1.4,0,2.1.2c.7.1,1.3.3,1.9.5v1.8c-.6-.2-1.3-.4-2-.6-.7-.1-1.4-.2-2.1-.2-1.1,0-2,.3-2.6.8-.7.5-1,1.3-1,2.3s.2,1.5.7,2,1.2.9,2.2,1.3l1.6.6c1.3.5,2.2,1.1,2.9,1.9s1,1.8,1,3-.5,2.8-1.6,3.7c-1,.9-2.4,1.4-4.1,1.4s-1.8-.1-2.8-.4c-.9-.2-1.8-.6-2.4-1v-1.8c.7.5,1.6.8,2.5,1.1s1.9.4,2.7.4,2-.3,2.7-.8,1-1.3,1-2.3-.3-1.6-.8-2.1-1.3-1-2.5-1.4l-1.4-.5c-1.3-.5-2.3-1.1-3-1.9s-1-1.7-1-2.9.5-2.8,1.6-3.6l.2-.2Z"/>
      <path class="cls-3" d="M163.5,11.6c-.7-.1-1.4-.2-2-.2-1.9,0-3.3.7-4.2,2-1,1.3-1.4,3.2-1.4,5.5s.5,4.2,1.4,5.5,2.4,2,4.2,2,1.2,0,2-.2c.7-.1,1.3-.3,1.8-.5v1.8c-.5.2-1.1.3-1.8.4-.7,0-1.3.1-1.9.1-2.5,0-4.4-.8-5.7-2.5s-2-3.9-2-6.8.7-5.1,2-6.8,3.2-2.5,5.7-2.5,1.2,0,1.9.1,1.3.2,1.8.4v1.8c-.5-.2-1.1-.4-1.8-.5v.4Z"/>
      <path class="cls-3" d="M179.2,28l-1.7-5.4h-6.7l-1.7,5.4h-1.9l5.6-17.8h2.7l5.6,17.8h-2,0ZM177.1,21l-2.9-8.7h-.2l-2.8,8.7h5.9Z"/>
      <path class="cls-3" d="M184.2,10.1h1.8l8.8,14.9h.2c-.2-2-.3-4.2-.3-6.6v-8.3h1.8v17.8h-1.8l-8.8-14.9h-.2c.2,2,.3,4.2.3,6.5v8.3h-1.8V10.1Z"/>
      <path class="cls-3" d="M211.7,28l-1.7-5.4h-6.7l-1.7,5.4h-1.9l5.6-17.8h2.7l5.6,17.8h-2,0ZM209.6,21l-2.9-8.7h-.2l-2.8,8.7h5.9Z"/>
      <path class="cls-3" d="M218.7,10.1v17.8h-2V10.1h2Z"/>
      <path class="cls-3" d="M224.4,11c1.1-.8,2.5-1.3,4.2-1.3s1.4,0,2.1.2c.7.1,1.3.3,1.9.5v1.8c-.6-.2-1.3-.4-2-.6-.7-.1-1.4-.2-2.1-.2-1.1,0-2,.3-2.6.8-.7.5-1,1.3-1,2.3s.2,1.5.7,2,1.2.9,2.2,1.3l1.6.6c1.3.5,2.2,1.1,2.9,1.9s1,1.8,1,3-.5,2.8-1.6,3.7c-1,.9-2.4,1.4-4.1,1.4s-1.8-.1-2.8-.4c-.9-.2-1.8-.6-2.4-1v-1.8c.7.5,1.6.8,2.5,1.1s1.9.4,2.7.4,2-.3,2.7-.8,1-1.3,1-2.3-.3-1.6-.8-2.1-1.3-1-2.5-1.4l-1.4-.5c-1.3-.5-2.3-1.1-3-1.9s-1-1.7-1-2.9.5-2.8,1.6-3.6l.2-.2Z"/>
      <path class="cls-3" d="M242.9,12.2c1.2-1.6,3.1-2.5,5.5-2.5s4.2.8,5.5,2.5c1.2,1.6,1.9,3.9,1.9,6.8s-.6,5.1-1.8,6.7-2.9,2.5-5.2,2.6c.1,1.1.6,2,1.3,2.7.7.6,1.7,1,2.8,1s1.9-.1,2.8-.4v1.6c-.8.3-1.8.4-2.9.4s-2.1-.2-2.9-.7c-.8-.5-1.5-1.1-1.9-1.9-.5-.8-.7-1.7-.8-2.7-2-.3-3.5-1.2-4.6-2.8-1-1.6-1.6-3.7-1.6-6.4s.6-5.2,1.9-6.8h0ZM252.4,24.6c.9-1.3,1.3-3.2,1.3-5.6s-.4-4.3-1.3-5.6c-.9-1.3-2.2-2-4-2s-3.2.7-4,2c-.9,1.3-1.3,3.2-1.3,5.6s.4,4.3,1.3,5.6c.9,1.3,2.2,2,4,2s3.1-.7,4-2Z"/>
      <path class="cls-3" d="M269.7,26.6c-1,1.1-2.5,1.6-4.4,1.6s-3.4-.5-4.4-1.6-1.6-2.6-1.6-4.5v-12h2v11.9c0,1.4.3,2.5,1,3.3s1.7,1.2,3,1.2,2.3-.4,3-1.2c.7-.8,1-1.9,1-3.3v-11.9h2v12c0,1.9-.5,3.4-1.6,4.5Z"/>
      <path class="cls-3" d="M286.2,10v1.6h-8.3v6.3h6.2v1.6h-6.2v6.7h8.3v1.6h-10.2V10h10.2Z"/>
      <path class="cls-3" d="M295.1,10.1l4.7,15.7h.2l4.7-15.7h1.9l-5.4,17.8h-2.7l-5.4-17.8h2,0Z"/>
      <path class="cls-3" d="M310,25.8c-1.2-1.6-1.9-3.9-1.9-6.8s.6-5.2,1.9-6.8c1.2-1.6,3.1-2.5,5.5-2.5s4.2.8,5.5,2.5c1.2,1.6,1.9,3.9,1.9,6.8s-.6,5.2-1.9,6.8-3.1,2.5-5.5,2.5-4.2-.8-5.5-2.5ZM311.5,24.6c.9,1.3,2.2,2,4,2s3.1-.7,4-2,1.3-3.2,1.3-5.6-.4-4.3-1.3-5.6-2.2-2-4-2-3.2.7-4,2c-.9,1.3-1.3,3.2-1.3,5.6s.4,4.3,1.3,5.6Z"/>
      <path class="cls-3" d="M335.1,11.6c-.7-.1-1.4-.2-2-.2-1.9,0-3.3.7-4.2,2-1,1.3-1.4,3.2-1.4,5.5s.5,4.2,1.4,5.5,2.4,2,4.2,2,1.2,0,2-.2c.7-.1,1.3-.3,1.8-.5v1.8c-.5.2-1.1.3-1.8.4-.7,0-1.3.1-1.9.1-2.5,0-4.4-.8-5.7-2.5-1.3-1.7-2-3.9-2-6.8s.7-5.1,2-6.8,3.2-2.5,5.7-2.5,1.2,0,1.9.1,1.3.2,1.8.4v1.8c-.5-.2-1.1-.4-1.8-.5v.4Z"/>
      <path class="cls-3" d="M350.9,10v1.6h-8.3v6.3h6.2v1.6h-6.2v6.7h8.3v1.6h-10.2V10h10.2ZM348,8.3l-2.2-2.8-2.2,2.8h-1v-.2l2.3-4.2h1.8l2.3,4.2v.2h-1,0Z"/>
      <path class="cls-3" d="M369.5,28l-1.7-5.4h-6.7l-1.7,5.4h-1.9l5.6-17.8h2.7l5.6,17.8h-2,.1ZM367.4,21l-2.9-8.7h-.2l-2.8,8.7h5.9Z"/>
      <path class="cls-3" d="M384.1,25.8h.3l5.3-15.6h2.8l2.1,17.8h-2l-1.1-10.3c-.3-2.5-.4-4.3-.5-5.5h-.2l-5.4,15.8h-2.3l-5.4-15.8h-.2c-.2,2.4-.3,4.2-.5,5.4l-1.1,10.4h-1.8l2.1-17.8h2.8l5.3,15.6h-.2Z"/>
      <path class="cls-3" d="M409.1,28l-1.7-5.4h-6.7l-1.7,5.4h-1.9l5.6-17.8h2.7l5.6,17.8h-2,.1ZM407,21l-2.9-8.7h-.2l-2.8,8.7h5.9Z"/>
    </g>
  </g>
</svg>