<svg width="182" height="120" viewBox="0 0 182 120" fill="none" xmlns="http://www.w3.org/2000/svg">
<path d="M54.1371 104.508C54.1371 109.628 50.2038 113.587 44.5137 113.587H39.0071C40.1248 112.848 41.0524 111.855 41.7145 110.69H44.5137C48.3158 110.69 50.8004 108.133 50.8004 104.561C50.8004 100.988 48.3158 98.3788 44.5137 98.3788H40.9475V101.04C40.4256 100.387 39.8117 99.8129 39.1251 99.3358C38.6972 99.0428 38.2429 98.7904 37.7681 98.582V95.4812H44.5137C50.2104 95.4747 54.1371 99.3817 54.1371 104.508ZM55.9464 113.686H59.0799V100.024H55.9464V113.686ZM70.6962 106.914C70.2772 106.603 69.8214 106.346 69.3392 106.147C68.8489 105.941 68.3478 105.761 67.8381 105.609L66.6908 105.216C66.3521 105.112 66.0231 104.978 65.7075 104.816C65.4496 104.696 65.2162 104.53 65.0192 104.325C64.934 104.239 64.8674 104.136 64.8234 104.023C64.7794 103.911 64.7591 103.79 64.7635 103.669V103.617C64.762 103.424 64.8063 103.234 64.893 103.061C64.9796 102.889 65.106 102.74 65.2617 102.627C65.6817 102.348 66.1813 102.214 66.6843 102.246C67.317 102.259 67.9436 102.374 68.5395 102.587C69.2261 102.835 69.8852 103.154 70.5061 103.538L71.7517 101.309C71.0087 100.817 70.1983 100.435 69.3458 100.175C68.4983 99.902 67.614 99.7605 66.7236 99.7554C66.0788 99.7526 65.4375 99.85 64.8225 100.044C64.2585 100.217 63.7332 100.498 63.2754 100.87C62.8363 101.224 62.4823 101.672 62.2397 102.181C61.9804 102.727 61.8525 103.327 61.866 103.931V103.977C61.8458 104.556 61.9769 105.13 62.2462 105.642C62.5008 106.078 62.8395 106.459 63.2427 106.763C63.6629 107.074 64.1268 107.322 64.6193 107.497C65.1131 107.689 65.6163 107.855 66.1271 107.996C66.5204 108.114 66.9137 108.225 67.2808 108.343C67.6183 108.446 67.9471 108.575 68.2642 108.73C68.5124 108.855 68.7348 109.027 68.9197 109.235C69.0786 109.416 69.165 109.649 69.1623 109.89V109.936C69.1685 110.148 69.1206 110.358 69.0231 110.546C68.9256 110.734 68.7817 110.894 68.605 111.011C68.1387 111.308 67.5903 111.451 67.0383 111.418C66.2818 111.408 65.5333 111.261 64.8291 110.985C64.019 110.678 63.2573 110.257 62.5674 109.733L61.1711 111.857C62.0136 112.52 62.9622 113.037 63.9769 113.384C64.9385 113.717 65.9484 113.89 66.9662 113.896C67.6306 113.898 68.2923 113.81 68.9328 113.633C69.5175 113.461 70.0676 113.188 70.5586 112.827C71.006 112.475 71.3688 112.027 71.6206 111.516C71.8944 110.927 72.029 110.284 72.0139 109.635V109.582C72.0332 109.029 71.8969 108.482 71.6206 108.002C71.3865 107.584 71.0724 107.217 70.6962 106.921V106.914ZM100.91 104.062C101.284 104.934 101.471 105.874 101.461 106.822V106.875C101.469 107.818 101.277 108.751 100.897 109.615C100.539 110.461 100.023 111.231 99.3764 111.883C98.3171 112.901 96.9853 113.589 95.5424 113.865C94.0995 114.141 92.6076 113.992 91.2477 113.437C90.3879 113.089 89.6042 112.577 88.9401 111.929C88.2818 111.276 87.761 110.497 87.4086 109.639C87.0562 108.781 86.8792 107.861 86.8883 106.934V106.881C86.8813 105.931 87.0687 104.99 87.4389 104.115C87.8042 103.27 88.3245 102.5 88.9729 101.847C89.6318 101.188 90.4135 100.664 91.2739 100.306C92.1941 99.9246 93.1819 99.7328 94.178 99.7423C95.1776 99.7333 96.1692 99.9227 97.0952 100.3C97.9565 100.65 98.7389 101.169 99.3961 101.827C100.047 102.465 100.562 103.227 100.91 104.069V104.062ZM98.3276 106.875C98.3272 106.293 98.2229 105.715 98.0195 105.17C97.8203 104.655 97.5268 104.182 97.1542 103.774C96.784 103.374 96.3385 103.051 95.8431 102.823C95.3317 102.588 94.7772 102.461 94.2144 102.451C93.6516 102.44 93.0927 102.547 92.5729 102.763C92.0532 102.979 91.5838 103.3 91.1944 103.707C90.805 104.113 90.5039 104.596 90.3102 105.124C90.1186 105.67 90.0232 106.244 90.0284 106.822V106.875C90.0265 107.451 90.1332 108.023 90.343 108.559C90.5375 109.081 90.8314 109.559 91.2083 109.969C91.583 110.388 92.043 110.722 92.5576 110.948C93.0721 111.174 93.6291 111.287 94.1911 111.28C94.784 111.289 95.3719 111.17 95.9152 110.932C96.4115 110.707 96.8574 110.384 97.2263 109.982C97.5896 109.579 97.8702 109.109 98.0522 108.599C98.2402 108.064 98.3355 107.501 98.3341 106.934L98.3276 106.875ZM108.626 110.061L104.955 100.018H101.586L107.21 113.784H110.023L115.614 100.018H112.337L108.626 110.061ZM128.725 104.272C129.004 105.183 129.143 106.132 129.138 107.084C129.138 107.216 129.138 107.36 129.138 107.504C129.138 107.648 129.138 107.806 129.099 107.956H119.043C119.146 108.95 119.613 109.87 120.354 110.539C121.091 111.144 122.023 111.461 122.976 111.431C123.674 111.445 124.365 111.304 125.002 111.018C125.62 110.699 126.186 110.288 126.68 109.798L128.522 111.431C127.872 112.199 127.076 112.831 126.182 113.292C125.161 113.785 124.037 114.026 122.904 113.994C121.959 113.999 121.023 113.824 120.144 113.476C119.307 113.146 118.546 112.648 117.908 112.014C117.27 111.379 116.768 110.621 116.434 109.785C116.06 108.87 115.875 107.889 115.89 106.901V106.848C115.883 105.902 116.05 104.962 116.381 104.075C116.692 103.24 117.164 102.473 117.771 101.82C118.36 101.171 119.076 100.651 119.875 100.293C120.723 99.9156 121.642 99.7255 122.57 99.7357C123.554 99.709 124.53 99.9134 125.421 100.332C126.215 100.704 126.914 101.251 127.467 101.932C128.034 102.626 128.461 103.423 128.725 104.279V104.272ZM126.031 105.583C125.986 105.208 125.872 104.843 125.697 104.508C125.534 104.086 125.299 103.696 125.002 103.354C124.708 103.031 124.351 102.773 123.953 102.594C123.514 102.406 123.04 102.315 122.563 102.325C122.117 102.313 121.674 102.394 121.261 102.565C120.849 102.735 120.477 102.991 120.17 103.315C119.523 103.906 119.113 104.712 119.017 105.583H126.031ZM80.7065 111.293C78.3006 111.293 76.6224 109.326 76.6224 106.868C76.6224 104.41 78.2744 102.496 80.5557 102.496C81.2356 102.501 81.906 102.657 82.5182 102.953C83.1304 103.249 83.6692 103.677 84.0956 104.207L86.0623 102.102C85.3868 101.328 84.5459 100.716 83.6018 100.311C82.6577 99.9057 81.6345 99.7181 80.6081 99.762C78.7565 99.8181 76.9996 100.593 75.7097 101.923C74.4198 103.252 73.6984 105.032 73.6984 106.884C73.6984 108.737 74.4198 110.517 75.7097 111.846C76.9996 113.176 78.7565 113.951 80.6081 114.007C81.6733 114.041 82.7318 113.828 83.7008 113.384C84.6698 112.941 85.5229 112.279 86.1934 111.45L84.3054 109.589C83.8607 110.11 83.3093 110.53 82.6885 110.821C82.0677 111.112 81.3919 111.266 80.7065 111.273V111.293ZM134.606 102.299V100.044H131.479V113.686H134.606V108.481C134.578 107.674 134.693 106.868 134.946 106.101C135.89 103.61 138.519 102.909 139.876 102.705L138.808 100.083C137.194 100.304 135.708 101.08 134.606 102.279V102.299ZM150.962 100.044L147.461 110.061L144.183 100.044H140.846L145.92 113.614L145.888 113.699C145.888 113.699 144.865 116.472 143.921 117.141C143.206 117.508 141.548 117.475 140.912 117.435V119.999C142.013 119.999 144.609 120.058 145.435 119.533C146.484 118.878 146.746 118.583 147.441 117.134C148.215 115.554 154.2 100.044 154.2 100.044H150.962Z" fill="white"/>
<path d="M176.249 69.0506C172.906 69.0506 172.69 66.101 172.69 64.7218V45.585C172.69 33.872 168.465 22.7595 153.203 22.6671C140.796 22.6671 135.571 30.7178 135.571 30.7178V0.164972H122.191V68.0938C112.526 68.9055 108.555 64.2863 108.555 64.2863C114.001 57.9448 115.327 50.2901 116.248 41.7775H104.591C104.591 50.8642 100.777 55.589 100.777 55.589C95.7293 49.2276 94.9391 48.1256 89.8585 41.243C99.2949 36.7756 103.69 30.9685 103.22 23.3732C102.606 13.4749 94.2795 7.64809 85.5288 8.1958C83.2575 8.31478 81.0324 8.88945 78.9831 9.88632C76.9339 10.8832 75.1015 12.2823 73.5928 14.0021C72.0842 15.7219 70.9294 17.7279 70.1959 19.9033C69.4624 22.0787 69.1647 24.3799 69.3203 26.6727C69.6338 31.7736 71.6125 35.304 72.8924 37.6268C69.6795 39.1841 65.2715 41.4476 61.8822 46.6739C59.2845 50.6245 58.0495 55.3308 58.3688 60.063C58.491 61.9627 58.8531 63.8388 59.4463 65.6456L59.1851 65.2101C58.297 66.7807 56.6121 69.0309 54.1763 69.0309C50.8196 69.0309 50.6041 66.0746 50.6041 64.6888V45.4993C50.6041 33.7599 46.3725 22.6209 31.0848 22.5285C18.677 22.5285 13.4527 30.599 13.4527 30.599V0H0V79.4637H13.9359V50.4286C13.9359 44.5556 15.0461 40.2994 17.2599 37.4552C19.4737 34.6111 22.7715 33.3309 26.7159 33.3375H26.8073C30.5362 33.3375 33.1941 34.8685 34.6438 37.6004C36.0936 40.3323 36.603 44.1333 36.6421 48.8713V67.8761C36.6421 72.9242 39.0192 80.955 50.578 80.955C57.2782 80.955 61.8495 77.1409 64.4617 74.0592C68.9611 78.6784 75.7005 81.3576 83.9419 80.8363C93.411 80.2358 97.806 76.0851 100.268 73.848C101.998 75.0952 106.857 79.5429 116.032 79.5429H136.12V50.5078C136.12 44.6414 137.224 40.3917 139.431 37.5542C141.638 34.7167 144.929 33.4365 148.867 33.4431H148.959C152.681 33.4431 155.332 34.9675 156.795 37.6994C158.258 40.4313 158.754 44.2191 158.787 48.9505V67.9157C158.787 72.9506 161.164 80.9683 172.697 80.9683C175.693 80.9766 178.654 80.3164 181.369 79.0348V67.5263C179.834 68.5007 178.062 69.0281 176.249 69.0506ZM86.2798 18.5956C86.9921 18.5511 87.7061 18.6504 88.3801 18.8877C89.054 19.125 89.6745 19.4956 90.2052 19.9778C90.7359 20.46 91.1662 21.0442 91.4711 21.6963C91.776 22.3484 91.9492 23.0553 91.9808 23.7757C92.2551 28.2432 89.0552 30.0117 83.9615 32.737C82.564 30.3218 81.2449 27.3788 81.0881 24.8778C80.8138 20.5093 84.0137 18.754 86.2798 18.5956ZM83.6676 69.3146C75.4328 69.8359 71.1227 63.7452 70.8158 58.8554C70.5611 54.6915 72.7226 51.2139 79.1943 47.248C85.1892 55.5362 86.6455 57.43 93.1432 65.4741C90.4703 67.7546 87.1399 69.1016 83.648 69.3146H83.6676Z" fill="white"/>
<path d="M42.1036 106.068C42.1036 104.627 41.6762 103.218 40.8755 102.02C40.0748 100.822 38.9367 99.8875 37.6051 99.336C36.2736 98.7844 34.8084 98.6401 33.3948 98.9213C31.9812 99.2024 30.6828 99.8965 29.6637 100.916C28.6445 101.935 27.9505 103.233 27.6693 104.647C27.3881 106.06 27.5325 107.526 28.084 108.857C28.6355 110.189 29.5696 111.327 30.7679 112.127C31.9663 112.928 33.3752 113.356 34.8165 113.356C36.7491 113.356 38.6026 112.588 39.9692 111.221C41.3358 109.855 42.1036 108.001 42.1036 106.068Z" fill="white"/>
</svg>
