<svg width="552" height="120" viewBox="0 0 552 120" fill="none" xmlns="http://www.w3.org/2000/svg">
<path d="M30.7284 119.985C21.1407 120.235 11.7335 117.348 3.93613 111.764C1.25691 109.562 0.743083 107.873 2.21115 105.194C3.2388 103.286 4.15634 101.304 5.11059 99.4321C6.79887 96.0555 8.41374 95.4683 11.7536 97.4502C17.9108 101.324 25.0708 103.302 32.3433 103.139C44.1245 102.772 48.5654 95.4316 48.3452 85.412C46.1996 87.6223 43.5961 89.3361 40.7175 90.433C37.8389 91.5299 34.7551 91.9833 31.6826 91.7614C25.0898 91.67 18.6841 89.5561 13.3318 85.7056C8.57015 82.3075 4.88625 77.6116 2.71929 72.1779C0.552323 66.7442 -0.00627232 60.802 1.1101 55.0597C1.78144 48.6975 4.37469 42.6906 8.54462 37.8388C12.7146 32.987 18.2634 29.5204 24.4524 27.9004C28.8509 26.4866 33.5597 26.3464 38.0345 27.4959C42.5093 28.6455 46.5674 31.0379 49.7399 34.3966C49.7399 31.4972 49.9601 29.6621 51.1713 28.7078C53.0205 27.9145 55.0429 27.6111 57.0435 27.827C66.4392 27.827 66.219 27.46 66.1456 33.9562C66.1456 47.4624 66.1456 66.9877 66.1456 80.3105C66.1456 97.8906 60.6036 119.985 30.7284 119.985ZM49.0793 59.9043C49.2406 57.7782 48.9622 55.6417 48.2615 53.6279C47.5609 51.6141 46.4529 49.7663 45.0066 48.1995C43.5604 46.6328 41.8069 45.3807 39.8556 44.5214C37.9042 43.6622 35.7967 43.214 33.6645 43.205C31.4845 43.0995 29.3069 43.4592 27.2766 44.2603C25.2463 45.0614 23.4098 46.2856 21.8892 47.8513C20.3685 49.4171 19.1986 51.2886 18.4572 53.3414C17.7158 55.3943 17.4199 57.5814 17.5892 59.7575C17.5892 70.5111 24.379 76.5669 33.5911 76.6403C35.7316 76.6482 37.8502 76.2102 39.812 75.3543C41.7739 74.4983 43.536 73.2432 44.9861 71.6688C46.4362 70.0944 47.5425 68.2352 48.2346 66.2098C48.9267 64.1843 49.1893 62.0369 49.0059 59.9043H49.0793Z" fill="white"/>
<path d="M487.188 115.397C484.949 114.223 485.61 111.727 486.674 109.855C487.041 109.121 487.482 108.387 487.922 107.653C490.932 101.818 490.932 101.744 497.134 103.212C498.85 103.803 500.72 103.758 502.405 103.084C504.089 102.41 505.475 101.153 506.31 99.5422C508.295 96.4134 510.014 93.1231 511.448 89.7061C511.448 89.7061 494.638 51.3895 486.968 33.7727C484.802 28.818 485.023 28.5243 490.344 28.5243C493.758 28.5243 497.134 28.5243 500.548 28.5243C501.563 28.3887 502.593 28.6372 503.434 29.221C504.276 29.8049 504.87 30.6821 505.098 31.6807C509.613 43.205 519.412 68.3824 519.412 68.3824C521.284 62.9139 523.413 57.3719 525.174 52.3805C527.56 45.5173 530.129 38.7274 532.515 31.7908C532.72 30.6622 533.365 29.6612 534.308 29.0075C535.25 28.3539 536.414 28.1009 537.543 28.3041C540.662 28.5243 543.819 28.3041 547.012 28.3041C551.343 28.3041 552.077 29.4786 550.462 33.4791C546.792 43.205 542.718 52.9677 538.791 62.8405C533.946 74.8786 527.78 89.5593 523.009 101.524C519.999 108.864 512.806 119.581 500.988 119.581C496.04 119.844 491.157 118.363 487.188 115.397Z" fill="white"/>
<path d="M189.463 33.5525C194.004 29.3205 199.956 26.9268 206.163 26.8361C210.844 26.8446 215.459 27.9356 219.649 30.024C223.838 32.1123 227.488 35.1413 230.312 38.8743C239.378 49.8848 239.451 71.5388 229.431 82.4025C226.999 85.4272 223.975 87.9235 220.545 89.7386C217.114 91.5537 213.349 92.6495 209.48 92.9587C205.611 93.268 201.72 92.7842 198.045 91.537C194.369 90.2899 190.987 88.3056 188.105 85.7057C187.665 85.3387 188.105 89.3759 187.224 90.5136C186.16 92.5689 173.792 92.4221 172.544 90.5136C172.054 89.5629 171.825 88.4988 171.883 87.4307C171.883 60.4916 171.883 32.7451 171.883 5.80602C171.883 2.53957 173.315 1.2183 176.471 1.29171C179.627 1.36511 181.793 1.51192 184.509 1.29171C188.179 1.29171 189.17 2.83318 189.17 6.09963C189.243 13.9905 189.39 33.2589 189.463 33.5525ZM204.511 43.2785C195.739 43.2785 189.023 49.7747 188.803 59.9044C188.641 62.056 188.924 64.2179 189.632 66.2559C190.341 68.2938 191.461 70.1643 192.923 71.7512C194.385 73.3382 196.158 74.6077 198.131 75.481C200.104 76.3543 202.235 76.8128 204.393 76.8279C206.551 76.843 208.689 76.4145 210.674 75.5689C212.659 74.7234 214.449 73.4788 215.933 71.9125C217.417 70.3462 218.563 68.4916 219.301 66.4638C220.038 64.436 220.351 62.2783 220.219 60.1246C220.387 57.9656 220.105 55.7954 219.39 53.7513C218.675 51.7073 217.543 49.834 216.066 48.2503C214.59 46.6665 212.8 45.4068 210.811 44.551C208.822 43.6951 206.676 43.2618 204.511 43.2785Z" fill="white"/>
<path d="M334.399 86.2561C334.399 95.3214 334.399 103.653 334.399 111.947C334.399 118.076 334.399 118.076 328.049 118.076C325.847 118.076 323.645 118.076 321.48 118.076C318.617 118.076 317.809 116.755 317.809 114.113V32.2311C317.809 29.5519 318.837 28.1572 321.7 28.561C323.498 28.561 326.801 28.561 328.636 28.561C333.665 28.561 333.371 30.029 333.371 34.8369C350.951 18.1377 376.899 30.6897 381.56 52.0868C383.461 59.4185 382.819 67.1783 379.739 74.098C376.66 81.0177 371.324 86.6883 364.604 90.1832C360.511 92.3908 355.888 93.4254 351.245 93.1729C346.602 92.9203 342.118 91.3904 338.289 88.7518C337.078 88.0912 336.16 87.3571 334.399 86.2561ZM334.105 59.8308C333.971 61.9944 334.277 64.1628 335.004 66.2049C335.731 68.247 336.865 70.1204 338.336 71.7121C339.808 73.3038 341.587 74.5806 343.566 75.4655C345.545 76.3504 347.683 76.8249 349.85 76.8604C352.029 76.8925 354.192 76.4696 356.198 75.6187C358.205 74.7678 360.012 73.5077 361.504 71.9189C362.996 70.33 364.141 68.4474 364.864 66.3913C365.587 64.3352 365.874 62.1507 365.705 59.9776C365.705 50.5086 360.53 43.6454 350.584 43.2783C348.381 43.1552 346.178 43.4996 344.118 44.2889C342.058 45.0782 340.188 46.2945 338.631 47.8579C337.075 49.4213 335.867 51.2964 335.087 53.36C334.307 55.4235 333.972 57.6288 334.105 59.8308Z" fill="white"/>
<path d="M463.552 34.2864C464.359 28.3774 463.552 28.304 470.048 28.3774C472.03 28.3774 473.718 28.3774 475.883 28.3774C479.15 28.0104 480.178 29.8455 480.178 32.6715V87.4305C480.178 90.5135 478.856 92.2017 475.516 91.9081C473.828 91.9081 472.066 91.9081 470.415 91.9081C464.579 91.9081 463.405 91.9081 463.405 85.4853C461.269 87.8531 458.667 89.7536 455.762 91.0673C452.856 92.3811 449.71 93.0797 446.522 93.1193C443.02 93.3333 439.51 92.8427 436.2 91.6765C432.89 90.5102 429.848 88.692 427.254 86.3295C423.182 82.9303 419.957 78.6309 417.833 73.7711C415.709 68.9112 414.744 63.6239 415.015 58.327C415.285 53.0301 416.784 47.8687 419.392 43.2505C422 38.6323 425.646 34.6839 430.043 31.7173C434.552 28.5302 439.968 26.8805 445.487 27.0127C451.007 27.145 456.338 29.052 460.689 32.4513L463.552 34.2864ZM432.135 59.9776C432.135 69.9238 438.705 77.3008 447.697 77.0806C449.875 77.0765 452.029 76.6235 454.025 75.7498C456.021 74.8761 457.815 73.6005 459.296 72.0026C460.777 70.4047 461.912 68.5188 462.632 66.4625C463.352 64.4062 463.64 62.2236 463.478 60.051C463.577 57.8896 463.239 55.7304 462.485 53.7023C461.732 51.6741 460.577 49.8187 459.09 48.2465C457.604 46.6743 455.816 45.4176 453.833 44.5514C451.85 43.6853 449.713 43.2273 447.55 43.2049C445.438 43.2611 443.36 43.7384 441.435 44.609C439.511 45.4796 437.78 46.7259 436.344 48.2747C434.908 49.8235 433.796 51.6435 433.074 53.628C432.351 55.6124 432.032 57.7213 432.135 59.8308V59.9776Z" fill="white"/>
<path d="M164.58 59.8309C164.682 64.2276 163.9 68.5999 162.279 72.6881C160.658 76.7764 158.231 80.497 155.144 83.6289C152.057 86.7608 148.371 89.2401 144.306 90.9195C140.242 92.5988 135.881 93.4439 131.484 93.4045C127.086 93.3651 122.741 92.4421 118.707 90.6903C114.673 88.9384 111.033 86.3935 108.002 83.2068C104.971 80.0201 102.612 76.2566 101.064 72.1401C99.5169 68.0235 98.8127 63.6378 98.9938 59.2437C99.1099 50.5832 102.649 42.3208 108.839 36.262C115.028 30.2033 123.364 26.8408 132.025 26.9095C136.338 26.8844 140.613 27.7215 144.598 29.3717C148.583 31.0219 152.198 33.4519 155.231 36.5188C158.264 39.5858 160.653 43.2279 162.259 47.2312C163.864 51.2345 164.653 55.5183 164.58 59.8309ZM147.44 60.565C147.579 58.4454 147.293 56.3194 146.599 54.312C145.904 52.3047 144.815 50.4565 143.396 48.8762C141.977 47.296 140.255 46.0156 138.334 45.1104C136.412 44.2052 134.329 43.6935 132.207 43.6053C130.084 43.5172 127.966 43.8545 125.976 44.5972C123.986 45.34 122.164 46.4733 120.619 47.9305C119.073 49.3876 117.835 51.1391 116.976 53.082C116.118 55.0249 115.657 57.1199 115.62 59.2437C115.455 61.4603 115.737 63.6874 116.449 65.7931C117.16 67.8989 118.286 69.8407 119.761 71.5037C121.236 73.1666 123.029 74.517 125.035 75.4749C127.04 76.4328 129.218 76.9789 131.438 77.0807C133.578 77.0619 135.692 76.618 137.659 75.7749C139.625 74.9318 141.405 73.7063 142.893 72.1697C144.382 70.633 145.551 68.8158 146.331 66.8236C147.112 64.8315 147.489 62.704 147.44 60.565Z" fill="white"/>
<path d="M244.076 59.7576C244.202 51.0944 247.765 42.8363 253.98 36.8C260.195 30.7637 268.554 27.4436 277.217 27.5701C285.88 27.6967 294.139 31.2595 300.175 37.4747C306.211 43.69 309.531 52.0486 309.405 60.7118C309.342 65.0014 308.435 69.2366 306.736 73.1757C305.036 77.1147 302.578 80.6805 299.5 83.6694C296.423 86.6583 292.787 89.0117 288.8 90.5954C284.813 92.179 280.553 92.9619 276.263 92.8992C267.6 92.7727 259.342 89.2099 253.305 82.9946C247.269 76.7794 243.949 68.4207 244.076 59.7576ZM292.559 59.7576C292.678 57.5584 292.337 55.3584 291.555 53.2993C290.774 51.2401 289.57 49.3673 288.021 47.8013C286.473 46.2353 284.613 45.0108 282.563 44.2066C280.513 43.4024 278.317 43.0362 276.116 43.1317C273.891 43.2235 271.709 43.7725 269.705 44.7444C267.702 45.7162 265.92 47.0902 264.47 48.7807C263.021 50.4712 261.935 52.4421 261.28 54.5705C260.626 56.6989 260.416 58.9393 260.665 61.1522C260.789 65.4328 262.583 69.495 265.662 72.4712C268.741 75.4475 272.862 77.1018 277.144 77.0808C279.301 76.9979 281.42 76.4813 283.373 75.5618C285.327 74.6423 287.075 73.3387 288.514 71.7288C289.952 70.1189 291.052 68.2356 291.747 66.1915C292.442 64.1473 292.718 61.9841 292.559 59.831V59.7576Z" fill="white"/>
<path d="M407.251 46.9853C407.251 60.4915 407.251 74.0711 407.251 87.5774C407.251 90.7337 406.077 91.9816 403.031 91.8348C400.354 91.688 397.67 91.688 394.993 91.8348C391.323 92.055 390.185 90.3667 390.185 87.0635V7.34739C390.185 2.75967 390.809 2.09904 395.36 2.02563C397.893 2.02563 400.462 2.02563 403.031 2.02563C406.15 2.02563 407.251 3.27349 407.251 6.31974C407.178 19.8994 407.251 33.479 407.251 46.9853Z" fill="white"/>
<path d="M74.4037 46.9119V5.21872C74.4037 0.263987 76.3856 -1.42429 82.5148 1.29164C89.5982 4.37458 91.4333 4.96181 91.4333 10.8708C91.4333 33.4057 91.4333 58.583 91.2131 81.7418C91.2131 86.2562 91.4333 88.238 85.8546 90.7338C84.7169 91.2476 82.4414 92.422 80.7531 93.046C77.4132 94.4406 74.3303 93.046 74.4037 88.1646C74.4037 78.402 74.4037 68.6026 74.4037 58.8033C74.3303 55.0597 74.3303 50.9491 74.4037 46.9119Z" fill="white"/>
</svg>
