<svg width="520" height="120" viewBox="0 0 520 120" fill="none" xmlns="http://www.w3.org/2000/svg">
<path d="M60.5448 0C44.533 0.0311241 29.1863 6.35718 17.8667 17.5924C6.54712 28.8275 0.177546 44.0558 0.15332 59.9412C0.15332 93.1081 27.2756 120 60.5718 120C93.868 120 121.109 93.092 121.109 59.9412C121.082 26.908 93.841 0 60.5448 0ZM101.832 88.2668C88.6377 89.7111 74.3324 90.0695 60.5448 90.0695C46.7572 90.0695 32.4574 89.7111 19.1389 88.2668C15.3644 87.9083 13.4448 86.9454 12.9596 82.9815C12.237 75.4173 12.237 67.7247 12.237 59.9198C12.237 52.2325 12.237 44.5453 12.9596 36.9757C13.4448 33.0118 15.386 32.0489 19.1389 31.6904C32.4574 30.2514 46.7411 29.8877 60.5448 29.8877C74.3486 29.8877 88.6377 30.2514 101.832 31.6904C105.709 32.0489 107.645 33.0118 108.13 36.9757C108.734 44.5453 108.734 52.2325 108.734 59.9198C108.734 67.7247 108.734 75.4333 108.13 82.9815C107.645 86.9668 105.736 87.9297 101.832 88.2882V88.2668Z" fill="white"/>
<path d="M36.0864 59.9401C36.1099 55.146 37.5642 50.4662 40.266 46.4913C42.9677 42.5164 46.7958 39.4245 51.267 37.606C55.7382 35.7874 60.6523 35.3236 65.3889 36.2732C70.1256 37.2227 74.4726 39.543 77.8813 42.9412C81.29 46.3394 83.6077 50.6632 84.5419 55.367C85.4761 60.0708 84.9848 64.9437 83.1302 69.3708C81.2755 73.7978 78.1406 77.5806 74.121 80.2417C70.1014 82.9029 65.3774 84.3231 60.545 84.3232C57.3204 84.3325 54.126 83.7072 51.1466 82.4837C48.1671 81.2602 45.4618 79.4626 43.1872 77.195C40.9126 74.9275 39.1139 72.2349 37.895 69.2731C36.6762 66.3113 36.0615 63.1392 36.0864 59.9401Z" fill="white"/>
<path d="M210.969 51.532V99.9022C210.969 102.78 209.227 104.508 206.326 104.508H192.01C189.109 104.508 187.367 102.78 187.367 99.9022V55.3729C187.367 42.7053 182.515 36.1789 172.081 36.1789C161.248 36.1789 155.252 43.6682 155.252 56.1379V99.9022C155.252 102.78 153.51 104.508 150.61 104.508H136.293C133.393 104.508 131.651 102.78 131.651 99.9022V20.0555C131.651 17.1775 133.393 15.4496 136.293 15.4496H149.235C152.135 15.4496 153.877 17.1775 153.877 20.0555V25.0413C159.318 18.7128 168.021 13.9143 178.853 13.9143C198.971 13.9143 210.969 27.93 210.969 51.532Z" fill="white"/>
<path d="M309.773 62.0919V62.2845C309.773 65.1625 308.032 66.8904 305.131 66.8904H244.2C246.524 78.2153 255.421 85.6993 267.219 85.6993C274.768 85.6993 280.16 83.5862 283.859 78.7877C285.407 76.6747 286.954 75.7171 289.467 75.7171H304.166C307.455 75.7171 308.808 77.8569 307.843 80.7082C302.451 97.0188 286.949 106.043 266.248 106.043C240.517 106.043 220.416 86.6568 220.416 59.9789C220.416 33.8786 240.533 13.9143 264.911 13.9143C292.939 13.9143 309.773 35.2053 309.773 62.0919ZM244.383 49.2531H284.619C282.107 39.2709 274.374 33.7075 265.472 33.7075C254.634 33.6861 246.896 40.2125 244.383 49.2317V49.2531Z" fill="white"/>
<path d="M435.194 15.4497C438.483 15.4497 440.046 17.5895 439.065 20.6334L413.528 100.667C412.752 103.165 410.832 104.508 408.109 104.508H394.181C391.485 104.508 389.733 103.165 388.956 100.667L374.257 47.7072L359.941 100.667C359.165 103.165 357.423 104.508 354.717 104.508H340.789C338.093 104.508 336.146 103.165 335.397 100.667L309.45 20.6334C308.479 17.5521 310.027 15.4497 313.332 15.4497H330.743C333.439 15.4497 335.192 16.7978 335.774 19.4832L347.96 70.3409L362.082 19.4832C362.859 16.9904 364.406 15.4497 367.113 15.4497H382.588C385.284 15.4497 386.848 16.7978 387.619 19.4832L401.741 70.7261L413.738 19.4832C414.315 16.8085 416.057 15.4497 418.764 15.4497H435.194Z" fill="white"/>
<path d="M444.058 80.7082C443.088 77.6376 444.829 75.7171 448.118 75.7171H463.216C465.54 75.7171 466.894 76.6747 468.247 78.7877C470.571 82.4361 473.86 85.3141 483.145 85.3141C490.694 85.3141 495.914 83.201 495.914 78.9803C495.914 71.6889 485.464 70.726 473.86 68.6183C459.738 65.9436 443.869 61.5142 443.869 40.9774C443.869 24.854 457.997 13.9143 480.433 13.9143C500.751 13.9143 513.131 23.8965 517.579 39.057C518.545 42.3202 516.808 44.2406 513.519 44.2406H498.222C495.903 44.2406 494.933 43.4757 493.369 40.9774C490.872 37.1418 487.195 34.6704 478.104 34.6704C470.754 34.6704 466.883 37.741 466.883 41.1968C466.883 48.1083 479.069 48.3009 491.649 50.7938C505.188 53.4685 519.31 58.4703 519.31 77.2791C519.31 94.7453 503.447 106.07 481.97 106.07C458.951 106.043 448.312 93.9482 444.058 80.7082Z" fill="white"/>
</svg>
