<svg width="454" height="120" viewBox="0 0 454 120" fill="none" xmlns="http://www.w3.org/2000/svg">
<path d="M8.39242 76.3459L0 96.0186H38.7602L47.1526 76.3459H8.39242Z" fill="white"/>
<path d="M210.456 77.3311C199.474 77.3311 191.447 69.095 191.447 58.1508C191.447 47.2066 199.474 39.0936 210.456 39.0936C221.438 39.0936 229.466 47.2122 229.466 58.1508C229.466 69.0894 221.444 77.3311 210.456 77.3311ZM210.456 18.6879C187.374 18.6879 169.23 35.8987 169.23 58.1508C169.23 80.4028 187.374 97.7423 210.456 97.7423C233.538 97.7423 251.688 80.3972 251.688 58.1508C251.688 35.9043 233.544 18.6879 210.456 18.6879Z" fill="white"/>
<path d="M119.853 77.5773C108.994 77.5773 100.973 69.3412 100.973 58.1508C100.973 46.9604 108.994 38.8474 119.853 38.8474C130.841 38.8474 138.986 46.966 138.986 58.1508C138.986 69.3356 130.745 77.5773 119.853 77.5773ZM124.909 18.6879C113.797 18.6879 105.77 23.8523 101.456 29.9958V20.4057H79.4917V120H101.961V88.1522C107.017 94.0551 115.662 97.3731 125.414 97.3731C146.03 97.3731 161.214 80.028 161.214 58.2739C161.214 35.7756 145.412 18.6879 124.925 18.6879" fill="white"/>
<path d="M428.075 20.406L411.29 65.7774L394.871 20.406H368.458L400.056 96.0193H421.778L454 20.406H428.075Z" fill="white"/>
<path d="M282.792 96.0193V60.8648C282.792 48.1973 290.196 40.7221 305.262 40.7221H309.087V20.406H307.132C294.909 20.406 287.629 23.8526 282.32 31.9657V20.406H260.328V96.0193H282.792Z" fill="white"/>
<path d="M71.3468 75.1213V73.398C71.3468 57.5413 61.1007 50.5305 43.2036 48.6841L27.5253 47.0895C23.6999 46.7202 22.3292 45.6123 22.3292 43.5197C22.3292 41.2817 23.9358 40.0787 27.3849 40.0787H56.3933L64.7857 20.406H28.3904C11.2348 20.406 0 29.9962 0 44.1352C0 58.2742 7.53295 65.7774 28.0197 67.8644L42.4621 69.3415C46.2875 69.7108 48.3884 71.1879 48.3884 74.5059V75.1213H71.3468Z" fill="white"/>
<path d="M362.037 96.019V75.7364H352.78C343.522 75.7364 339.298 71.5512 339.298 62.4535V40.7218H356.33L364.992 20.4056H339.32V0H316.851V65.9001C316.851 85.6903 327.956 96.019 350.915 96.019H362.037Z" fill="white"/>
</svg>
