<svg width="208" height="120" viewBox="0 0 208 120" fill="none" xmlns="http://www.w3.org/2000/svg">
<path d="M160.152 29.0347H130.109C129.711 29.0347 129.527 28.8355 129.419 28.4525L119.988 0L110.755 28.4525C110.663 28.8509 110.464 29.0347 110.065 29.0347H80.0225L104.284 46.7007C104.575 46.8999 104.867 46.8999 105.173 46.7007C111.844 42.5792 117.841 39.6374 130.309 36.4964C118.914 45.3218 107.719 55.3269 98.4868 66.9101C98.1954 67.3085 98.0881 67.4004 97.9041 67.9826L95.2509 76.1185L119.512 58.5598C119.911 58.2686 120.095 58.2686 120.494 58.5598L144.755 76.1185L135.523 47.4668C135.431 47.0684 135.523 46.8846 135.814 46.6854L160.152 29.0347Z" fill="white"/>
<path fill-rule="evenodd" clip-rule="evenodd" d="M206.114 28.4525C206.114 37.6762 199.151 44.9387 190.701 46.0112L208 70.143H192.879L176.669 46.0112V70.1583H163.603V9.91319H184.812C197.97 9.91319 206.114 16.4862 206.114 28.4525ZM184.797 21.3892H176.654V36.3126H184.797C189.704 36.3126 192.848 33.1716 192.848 28.3606C192.848 23.9326 189.704 21.3892 184.797 21.3892Z" fill="white"/>
<path d="M45.3634 9.91319V21.7722H58.6136V70.143H71.8791V21.7722H85.1292V9.91319H45.3634Z" fill="white"/>
<path d="M20.8107 32.0838C16.8848 30.3218 15.4125 28.3606 15.4125 25.8018C15.4125 22.8601 17.8663 20.4086 21.7922 20.5005C25.2275 20.5925 27.8806 22.4617 29.7515 26.8744L41.0387 21.8642C37.8949 13.8202 31.5151 9.11646 21.2095 9.11646C10.3057 9.11646 2.25437 16.287 2.25437 25.8938C2.25437 32.4668 5.49023 37.6609 13.1581 41.4913L21.6082 45.7048C26.3163 48.0644 28.586 49.8264 28.586 53.2584C28.586 56.9816 25.5495 59.6323 21.6082 59.6323C17.3908 59.6323 13.5569 57.2727 11.7933 51.9867L0 55.4341C2.74512 65.3473 10.9038 71.1389 21.5008 71.1389C32.9874 71.1389 41.8208 63.7845 41.8208 53.1818C41.8208 45.046 37.4041 39.6374 28.9541 35.8223L20.8107 32.0838Z" fill="white"/>
<path d="M181.914 95.3167H187.22V114.5H197.066V119.402H181.914V95.3167Z" fill="white"/>
<path d="M158.419 95.3167H174.798V100.22H163.725V104.709H174.184V109.612H163.725V114.515H175.411V119.418H158.419V95.3167Z" fill="white"/>
<path d="M128.422 95.3167H135.63L145.874 112.048H145.936V95.3167H151.273V119.402H144.326L133.79 102.257H133.729V119.402H128.422V95.3167Z" fill="white"/>
<path d="M98.6248 95.3167H105.848L116.092 112.048H116.154V95.3167H121.46V119.402H114.513L103.992 102.257H103.931V119.402H98.6248V95.3167Z" fill="white"/>
<path fill-rule="evenodd" clip-rule="evenodd" d="M83.6723 95.3167H79.2863L68.8579 119.402H74.7162L76.7252 114.3H86.0954L88.1657 119.402H94.162L83.6723 95.3167ZM78.3968 109.826L81.3259 102.334L84.2858 109.826H78.3968Z" fill="white"/>
<path d="M43.4618 95.3167H48.768V104.295H59.089V95.3167H64.3952V119.402H59.089V108.999H48.768V119.402H43.4618V95.3167Z" fill="white"/>
<path d="M33.8462 101.583C32.788 100.327 31.2544 99.6068 29.2761 99.6068C25.2581 99.6068 22.2983 102.87 22.2983 107.36C22.2983 111.849 25.2581 115.112 29.1074 115.112C31.2544 115.112 32.9874 114.162 34.0762 112.523L38.5083 115.817C36.4993 118.682 33.0947 120 29.7975 120C22.2676 120 16.7927 115.066 16.7927 107.344C16.7927 99.6221 22.2676 94.6885 29.7975 94.6885C32.4813 94.6885 35.8858 95.6078 37.9408 98.2278L33.8462 101.583Z" fill="white"/>
</svg>
